<svg width="29" height="29" viewBox="0 0 29 29" fill="none" xmlns="http://www.w3.org/2000/svg">
<g clip-path="url(#clip0_132_7421)">
<path d="M14.5 7.25V15.0239L19.6685 20.2065L18.394 21.481L12.6875 15.7886V7.25H14.5ZM27.8672 8.8501C28.6224 10.6626 29 12.5459 29 14.5C29 16.4541 28.6224 18.3374 27.8672 20.1499C27.1309 21.8774 26.0924 23.4115 24.752 24.752C23.4115 26.0924 21.8774 27.1309 20.1499 27.8672C18.3374 28.6224 16.4541 29 14.5 29C12.8574 29 11.2715 28.731 9.74219 28.1929C8.25065 27.6737 6.88656 26.9373 5.6499 25.9839C4.42269 25.0304 3.37012 23.9071 2.49219 22.6138C2.0485 21.9624 1.66618 21.2827 1.34521 20.5747C1.02425 19.8667 0.755208 19.1304 0.538086 18.3657L2.27979 17.8843C2.65739 19.2531 3.23796 20.5086 4.02148 21.6509C4.80501 22.7931 5.73958 23.7749 6.8252 24.5962C7.91081 25.4175 9.10498 26.0547 10.4077 26.5078C11.7104 26.9609 13.0745 27.1875 14.5 27.1875C15.6611 27.1875 16.7798 27.0365 17.856 26.7344C18.9321 26.4323 19.9422 26.0075 20.8862 25.46C21.8302 24.9124 22.6893 24.2469 23.4634 23.4634C24.2375 22.6798 24.8983 21.8255 25.4458 20.9004C25.9933 19.9753 26.4229 18.9652 26.7344 17.8701C27.0459 16.7751 27.1969 15.6517 27.1875 14.5C27.1875 13.3389 27.0365 12.2202 26.7344 11.144C26.4323 10.0679 26.0075 9.05778 25.46 8.11377C24.9124 7.16976 24.2469 6.31071 23.4634 5.53662C22.6798 4.76253 21.8255 4.10173 20.9004 3.5542C19.9753 3.00667 18.9652 2.57715 17.8701 2.26562C16.7751 1.9541 15.6517 1.80306 14.5 1.8125C13.2728 1.8125 12.0833 1.98242 10.9316 2.32227C9.77995 2.66211 8.7085 3.15299 7.71729 3.79492C6.72607 4.43685 5.82926 5.19678 5.02686 6.07471C4.22445 6.95264 3.56364 7.94857 3.04443 9.0625H7.25V10.875H0V3.625H1.8125V7.50488C1.97298 7.2028 2.14762 6.91016 2.33643 6.62695C2.52523 6.34375 2.72347 6.06055 2.93115 5.77734C3.81852 4.59733 4.85693 3.5778 6.04639 2.71875C7.29248 1.83138 8.62825 1.15641 10.0537 0.693848C11.4792 0.231283 12.9613 0 14.5 0C16.4541 0 18.3374 0.377604 20.1499 1.13281C21.8774 1.86914 23.4115 2.90755 24.752 4.24805C26.0924 5.58854 27.1309 7.12256 27.8672 8.8501Z" fill="url(#paint0_linear_132_7421)"/>
</g>
<defs>
<linearGradient id="paint0_linear_132_7421" x1="0" y1="0" x2="29" y2="29" gradientUnits="userSpaceOnUse">
<stop stop-color="#293794"/>
<stop offset="1" stop-color="#000021"/>
</linearGradient>
<clipPath id="clip0_132_7421">
<rect width="29" height="29" fill="white"/>
</clipPath>
</defs>
</svg>
