<svg width="26" height="26" viewBox="0 0 26 26" fill="none" xmlns="http://www.w3.org/2000/svg">
<path d="M12.0065 14.0833C12.2825 15.6867 13.1496 17.1284 14.4365 18.1238C15.7235 19.1191 17.3369 19.5958 18.9582 19.4598C20.5795 19.3237 22.0909 18.5848 23.194 17.3889C24.2971 16.193 24.9117 14.6269 24.9166 13C24.9181 11.3691 24.3065 9.79731 23.2031 8.59638C22.0998 7.39545 20.5853 6.65317 18.9602 6.5168C17.335 6.38043 15.718 6.85994 14.4299 7.86019C13.1419 8.86044 12.2769 10.3083 12.0065 11.9166H1.08329V14.0833H3.24996V18.4166H5.41662V14.0833H7.58329V18.4166H9.74996V14.0833H12.0065ZM18.4166 17.3333C17.2674 17.3333 16.1652 16.8767 15.3525 16.0641C14.5398 15.2514 14.0833 14.1492 14.0833 13C14.0833 11.8507 14.5398 10.7485 15.3525 9.93583C16.1652 9.12317 17.2674 8.66663 18.4166 8.66663C19.5659 8.66663 20.6681 9.12317 21.4808 9.93583C22.2934 10.7485 22.75 11.8507 22.75 13C22.75 14.1492 22.2934 15.2514 21.4808 16.0641C20.6681 16.8767 19.5659 17.3333 18.4166 17.3333Z" fill="url(#paint0_linear_212_908)"/>
<defs>
<linearGradient id="paint0_linear_212_908" x1="24.9166" y1="6.49402" x2="14.0015" y2="26.5227" gradientUnits="userSpaceOnUse">
<stop stop-color="#293794"/>
<stop offset="1" stop-color="#000021"/>
</linearGradient>
</defs>
</svg>
