<svg width="22" height="22" viewBox="0 0 22 22" fill="none" xmlns="http://www.w3.org/2000/svg">
<g clip-path="url(#clip0_212_925)">
<path d="M11.0946 -1.26183e-05C11.4548 -1.26183e-05 11.8096 0.0233624 12.1396 0.0783624C12.4647 0.120244 12.7855 0.191109 13.098 0.290112C13.4096 0.383612 13.7186 0.504154 14.0247 0.651737C14.3231 0.793362 14.6297 0.966612 14.9363 1.15499C15.4547 1.48499 15.9648 1.75174 16.4846 1.96486C17.5075 2.37522 18.5896 2.61894 19.6897 2.68674C20.2461 2.72799 20.8223 2.74907 21.4181 2.74999V8.24999C21.4181 9.29407 21.2847 10.2868 21.018 11.2282C20.7617 12.158 20.3976 13.0546 19.9331 13.8999C19.4706 14.7439 18.9233 15.5387 18.2996 16.2717C17.6667 17.0218 16.9812 17.7258 16.2481 18.3782C15.5047 19.0318 14.7227 19.6402 13.9065 20.2001C13.0888 20.7684 12.2666 21.2923 11.4397 21.7717L11.1097 21.9684L10.7797 21.7717C9.93155 21.2808 9.10315 20.7566 8.29647 20.2001C7.47582 19.6462 6.6935 19.0375 5.95485 18.3782C5.22224 17.7257 4.53713 17.0218 3.90472 16.2717C3.28315 15.5352 2.73341 14.741 2.26297 13.8999C1.80683 13.0507 1.44312 12.155 1.1781 11.2282C0.911432 10.2581 0.779115 9.25605 0.784846 8.24999V2.74999C1.38068 2.74907 1.95726 2.72799 2.5146 2.68674C3.06422 2.64938 3.61025 2.57078 4.1481 2.45161C4.67472 2.33336 5.20135 2.17661 5.71972 1.96486C6.25749 1.74748 6.77319 1.47905 7.25972 1.16324C7.86472 0.769987 8.47797 0.479862 9.08297 0.288737C9.73458 0.0892104 10.4132 -0.00819406 11.0946 -1.26183e-05ZM20.0348 4.10161C18.9941 4.05067 17.963 3.87667 16.9631 3.58324C15.9689 3.28589 15.0217 2.84936 14.1498 2.28661C13.6975 1.99045 13.2066 1.75774 12.691 1.59499C12.1756 1.43956 11.6398 1.36261 11.1015 1.36674C10.5592 1.36343 10.0194 1.44035 9.4996 1.59499C8.98337 1.75289 8.49319 1.98593 8.04485 2.28661C7.17113 2.85186 6.22162 3.29027 5.22472 3.58874C4.2503 3.87199 3.22868 4.04524 2.15985 4.10849V8.25686C2.15985 9.16711 2.2781 10.0416 2.5146 10.8804C2.75574 11.7131 3.08774 12.5168 3.5046 13.277C3.92662 14.045 4.42407 14.7691 4.9896 15.4385C5.56297 16.1136 6.17485 16.742 6.83485 17.3387C7.49485 17.9355 8.18647 18.4882 8.90972 18.997C9.6403 19.5067 10.3709 19.9728 11.1015 20.3954C11.8494 19.9607 12.5784 19.4941 13.2863 18.997C14.0152 18.4896 14.7106 17.9357 15.3681 17.3387C16.0281 16.742 16.6413 16.1136 17.2147 15.4385C17.7802 14.7691 18.2777 14.045 18.6997 13.277C19.1145 12.5176 19.4415 11.7136 19.6746 10.8804C19.9185 10.0274 20.0398 9.14402 20.0348 8.25686V4.10161Z" fill="url(#paint0_linear_212_925)"/>
<path fill-rule="evenodd" clip-rule="evenodd" d="M16.2206 6.47495L15.6156 5.9552L15.0574 6.00333L9.06239 13.0818L7.02051 10.1668L6.47051 10.0733L5.83389 10.5285L5.73901 11.0785L8.36389 14.8267L8.66226 14.9917L9.29064 15.0302L9.61239 14.89L16.2605 7.03183L16.2206 6.47495Z" fill="url(#paint1_linear_212_925)"/>
</g>
<defs>
<linearGradient id="paint0_linear_212_925" x1="0.784668" y1="-0.000488281" x2="22.7104" y2="20.5924" gradientUnits="userSpaceOnUse">
<stop stop-color="#293794"/>
<stop offset="1" stop-color="#000021"/>
</linearGradient>
<linearGradient id="paint1_linear_212_925" x1="5.73901" y1="5.9552" x2="14.7157" y2="16.3627" gradientUnits="userSpaceOnUse">
<stop stop-color="#293794"/>
<stop offset="1" stop-color="#000021"/>
</linearGradient>
<clipPath id="clip0_212_925">
<rect width="22" height="22" fill="white"/>
</clipPath>
</defs>
</svg>
