<svg width="25" height="22" viewBox="0 0 25 22" fill="none" xmlns="http://www.w3.org/2000/svg">
<path d="M20.5501 16.1667V17.0334C20.5501 18.9477 18.4916 20.5001 15.9502 20.5001H13.6502" stroke="url(#paint0_linear_212_943)" stroke-width="1.5" stroke-linecap="round" stroke-linejoin="round"/>
<path d="M4.45044 7.5C4.45044 3.90983 8.05447 1 12.5003 1C16.9461 1 20.5501 3.90983 20.5501 7.5" stroke="url(#paint1_linear_212_943)" stroke-width="1.5" stroke-linecap="square" stroke-linejoin="round"/>
<path d="M18.2501 9.45545C18.2501 9.08061 18.2501 8.8932 18.3099 8.72636C18.4836 8.24103 18.9424 8.05361 19.4024 7.85645C19.9176 7.63436 20.1752 7.52386 20.4316 7.50436C20.7214 7.4827 21.0124 7.5412 21.2608 7.67228C21.5896 7.84561 21.8196 8.17711 22.0542 8.44578C23.1387 9.68728 23.6815 10.308 23.8793 10.9916C24.0403 11.5441 24.0403 12.1226 23.8793 12.674C23.5906 13.6729 22.6764 14.5092 21.999 15.2849C21.6529 15.6803 21.4793 15.8785 21.2608 15.9944C21.0081 16.1264 20.7195 16.1849 20.4316 16.1624C20.1752 16.1429 19.9176 16.0324 19.4012 15.8103C18.9412 15.6131 18.4836 15.4257 18.3099 14.9404C18.2501 14.7735 18.2501 14.5861 18.2501 14.2113V9.45545ZM6.75034 9.45545C6.75034 8.98311 6.73654 8.55953 6.33175 8.22803C6.18455 8.10778 5.98906 8.02436 5.59921 7.85645C5.08287 7.63545 4.82528 7.52386 4.56884 7.50436C3.8018 7.44586 3.38896 7.93986 2.94737 8.44686C1.86179 9.68728 1.319 10.308 1.12005 10.9927C0.959982 11.5434 0.959982 12.1244 1.12005 12.6751C1.40985 13.6729 2.32523 14.5103 3.00142 15.2849C3.42806 15.7724 3.8363 16.2176 4.56884 16.1624C4.82528 16.1429 5.08287 16.0324 5.59921 15.8103C5.99021 15.6434 6.18455 15.5589 6.33175 15.4387C6.73654 15.1072 6.75034 14.6836 6.75034 14.2124V9.45545Z" stroke="url(#paint2_linear_212_943)" stroke-width="1.5"/>
<defs>
<linearGradient id="paint0_linear_212_943" x1="13.6502" y1="16.1667" x2="17.5536" y2="22.382" gradientUnits="userSpaceOnUse">
<stop stop-color="#293794"/>
<stop offset="1" stop-color="#000021"/>
</linearGradient>
<linearGradient id="paint1_linear_212_943" x1="4.45044" y1="1" x2="8.96337" y2="12.178" gradientUnits="userSpaceOnUse">
<stop stop-color="#293794"/>
<stop offset="1" stop-color="#000021"/>
</linearGradient>
<linearGradient id="paint2_linear_212_943" x1="1" y1="7.49963" x2="6.72023" y2="22.6789" gradientUnits="userSpaceOnUse">
<stop stop-color="#293794"/>
<stop offset="1" stop-color="#000021"/>
</linearGradient>
</defs>
</svg>
