<svg width="49" height="49" viewBox="0 0 49 49" fill="none" xmlns="http://www.w3.org/2000/svg">
<g filter="url(#filter0_d_212_894)">
<circle cx="24" cy="23" r="19.5" stroke="url(#paint0_linear_212_894)" shape-rendering="crispEdges"/>
</g>
<path d="M22.0065 25.0833C22.2825 26.6867 23.1496 28.1284 24.4365 29.1238C25.7235 30.1191 27.3369 30.5958 28.9582 30.4598C30.5795 30.3237 32.0909 29.5848 33.194 28.3889C34.2971 27.193 34.9117 25.6269 34.9166 24C34.9181 22.3691 34.3065 20.7973 33.2031 19.5964C32.0998 18.3955 30.5853 17.6532 28.9602 17.5168C27.335 17.3804 25.718 17.8599 24.4299 18.8602C23.1419 19.8604 22.2769 21.3083 22.0065 22.9166H11.0833V25.0833H13.25V29.4166H15.4166V25.0833H17.5833V29.4166H19.75V25.0833H22.0065ZM28.4166 28.3333C27.2674 28.3333 26.1652 27.8767 25.3525 27.0641C24.5398 26.2514 24.0833 25.1492 24.0833 24C24.0833 22.8507 24.5398 21.7485 25.3525 20.9358C26.1652 20.1232 27.2674 19.6666 28.4166 19.6666C29.5659 19.6666 30.6681 20.1232 31.4808 20.9358C32.2934 21.7485 32.75 22.8507 32.75 24C32.75 25.1492 32.2934 26.2514 31.4808 27.0641C30.6681 27.8767 29.5659 28.3333 28.4166 28.3333Z" fill="url(#paint1_linear_212_894)"/>
<defs>
<filter id="filter0_d_212_894" x="-2.08616e-07" y="0.333333" width="48.5333" height="48.5333" filterUnits="userSpaceOnUse" color-interpolation-filters="sRGB">
<feFlood flood-opacity="0" result="BackgroundImageFix"/>
<feColorMatrix in="SourceAlpha" type="matrix" values="0 0 0 0 0 0 0 0 0 0 0 0 0 0 0 0 0 0 127 0" result="hardAlpha"/>
<feOffset dx="0.266667" dy="1.6"/>
<feGaussianBlur stdDeviation="2.13333"/>
<feComposite in2="hardAlpha" operator="out"/>
<feColorMatrix type="matrix" values="0 0 0 0 0 0 0 0 0 0 0 0 0 0 0 0 0 0 0.1 0"/>
<feBlend mode="normal" in2="BackgroundImageFix" result="effect1_dropShadow_212_894"/>
<feBlend mode="normal" in="SourceGraphic" in2="effect1_dropShadow_212_894" result="shape"/>
</filter>
<linearGradient id="paint0_linear_212_894" x1="4" y1="3" x2="44" y2="43" gradientUnits="userSpaceOnUse">
<stop stop-color="#293794"/>
<stop offset="1" stop-color="#000021"/>
</linearGradient>
<linearGradient id="paint1_linear_212_894" x1="34.9166" y1="17.494" x2="24.0015" y2="37.5227" gradientUnits="userSpaceOnUse">
<stop stop-color="#293794"/>
<stop offset="1" stop-color="#000021"/>
</linearGradient>
</defs>
</svg>
