<svg width="45" height="45" viewBox="0 0 45 45" fill="none" xmlns="http://www.w3.org/2000/svg">
<path d="M23.6302 28.9887C27.5756 32.6608 33.74 32.4527 37.3973 28.5231C41.0547 24.5935 40.8194 18.4313 36.874 14.7592C32.9285 11.0871 26.7676 11.2983 23.1113 15.2267C21.4173 17.0468 21.0149 19.1429 21.0149 19.1429L4.36861 19.7053C3.62101 19.731 2.14404 20.2298 2.21165 22.0228L2.28493 23.9434C2.3644 24.6355 2.9075 26.006 4.44418 25.953L6.68602 25.8791C6.77073 28.1184 8.71572 28.6944 9.83084 28.496C11.7381 28.1107 11.8206 26.0249 11.8206 26.0249L12.4612 26.003C12.5759 29.0761 14.8348 29.4485 15.9499 29.2501C17.8583 28.8658 18.1059 26.9337 18.1059 26.9337C18.389 25.963 17.7243 25.3443 19.3254 25.2901L21.2463 25.2256C21.4278 26.6287 22.9123 28.3206 23.6324 28.9908L23.6302 28.9887Z" stroke="url(#paint0_linear_180_1363)" stroke-width="1.5" stroke-linejoin="round"/>
<path d="M32.7444 24.1944C32.1292 24.8524 31.2778 25.2392 30.3775 25.2696C29.4771 25.3001 28.6016 24.9718 27.9433 24.3568C27.2827 23.7443 26.8925 22.8945 26.8583 21.9943C26.8242 21.0941 27.1489 20.2172 27.7612 19.5564C28.0658 19.2303 28.4316 18.9674 28.8377 18.7828C29.2439 18.5981 29.6825 18.4952 30.1284 18.48C30.5743 18.4648 31.0189 18.5376 31.4367 18.6942C31.8545 18.8509 32.2373 19.0882 32.5634 19.3928C32.8905 19.6962 33.1547 20.0611 33.3409 20.4666C33.5271 20.872 33.6315 21.3102 33.6483 21.7561C33.6651 22.202 33.594 22.6468 33.4389 23.0651C33.2838 23.4835 33.0478 23.8672 32.7444 24.1944Z" stroke="url(#paint1_linear_180_1363)" stroke-width="1.5"/>
<defs>
<linearGradient id="paint0_linear_180_1363" x1="21.4094" y1="0.365929" x2="22.9765" y2="44.019" gradientUnits="userSpaceOnUse">
<stop stop-color="#293794"/>
<stop offset="1" stop-color="#000021"/>
</linearGradient>
<linearGradient id="paint1_linear_180_1363" x1="30.0718" y1="17.0738" x2="30.3978" y2="26.6771" gradientUnits="userSpaceOnUse">
<stop stop-color="#293794"/>
<stop offset="1" stop-color="#000021"/>
</linearGradient>
</defs>
</svg>
