<svg width="53" height="53" viewBox="0 0 53 53" fill="none" xmlns="http://www.w3.org/2000/svg">
<g clip-path="url(#clip0_116_1295)">
<path d="M27.6302 32.9887C31.5756 36.6608 37.74 36.4528 41.3973 32.5232C45.0547 28.5936 44.8194 22.4313 40.874 18.7592C36.9285 15.0871 30.7676 15.2983 27.1113 19.2268C25.4173 21.0469 25.0149 23.143 25.0149 23.143L8.36861 23.7053C7.62101 23.731 6.14404 24.2299 6.21165 26.0228L6.28493 27.9434C6.3644 28.6355 6.9075 30.006 8.44418 29.9531L10.686 29.8792C10.7707 32.1185 12.7157 32.6945 13.8308 32.496C15.7381 32.1107 15.8206 30.025 15.8206 30.025L16.4612 30.0031C16.5759 33.0761 18.8348 33.4486 19.9499 33.2501C21.8583 32.8658 22.1059 30.9337 22.1059 30.9337C22.389 29.963 21.7243 29.3444 23.3254 29.2902L25.2463 29.2256C25.4278 30.6288 26.9123 32.3206 27.6324 32.9908L27.6302 32.9887Z" stroke="url(#paint0_linear_116_1295)" stroke-width="1.5" stroke-linejoin="round"/>
<path d="M36.7443 28.1944C36.129 28.8525 35.2777 29.2392 34.3773 29.2697C33.477 29.3001 32.6014 28.9718 31.9431 28.3569C31.2826 27.7443 30.8924 26.8945 30.8582 25.9943C30.8241 25.0941 31.1488 24.2172 31.7611 23.5564C32.0656 23.2304 32.4315 22.9675 32.8376 22.7828C33.2438 22.5981 33.6824 22.4953 34.1283 22.4801C34.5742 22.4649 35.0188 22.5377 35.4366 22.6943C35.8544 22.8509 36.2372 23.0883 36.5633 23.3929C36.8904 23.6962 37.1546 24.0611 37.3408 24.4666C37.5269 24.8721 37.6314 25.3103 37.6482 25.7562C37.665 26.202 37.5938 26.6468 37.4388 27.0652C37.2837 27.4836 37.0477 27.8673 36.7443 28.1944Z" stroke="url(#paint1_linear_116_1295)" stroke-width="1.5"/>
</g>
<defs>
<linearGradient id="paint0_linear_116_1295" x1="25.4094" y1="4.36597" x2="26.9765" y2="48.019" gradientUnits="userSpaceOnUse">
<stop stop-color="#293794"/>
<stop offset="1" stop-color="#000021"/>
</linearGradient>
<linearGradient id="paint1_linear_116_1295" x1="34.0717" y1="21.0739" x2="34.3977" y2="30.6771" gradientUnits="userSpaceOnUse">
<stop stop-color="#293794"/>
<stop offset="1" stop-color="#000021"/>
</linearGradient>
<clipPath id="clip0_116_1295">
<rect width="37.065" height="37.065" fill="white" transform="translate(25.2524) rotate(42.9451)"/>
</clipPath>
</defs>
</svg>
