<svg width="174" height="84" viewBox="0 0 174 84" fill="none" xmlns="http://www.w3.org/2000/svg">
<g filter="url(#filter0_d_128_8879)">
<mask id="mask0_128_8879" style="mask-type:luminance" maskUnits="userSpaceOnUse" x="54" y="12" width="84" height="36">
<path d="M137.995 12.6599C137.966 12.7938 137.924 12.9264 137.91 13.0631C137.796 14.2278 137.686 15.3939 137.575 16.5586C137.572 16.5826 137.554 16.6037 137.525 16.6672C136.789 16.725 136.03 16.6841 135.274 16.6911C134.498 16.6982 133.722 16.6925 132.946 16.6925H116.758C115.976 25.4333 115.203 34.1416 114.426 42.8992C114.589 42.9119 114.723 42.9288 114.855 42.9303C115.796 42.9331 116.737 42.9303 117.678 42.9303H134.892C134.732 44.5222 134.579 46.052 134.423 47.6031H106.864C107.75 37.3099 108.633 27.0463 109.52 16.7377C109.391 16.7207 109.285 16.694 109.179 16.6925C106.673 16.6897 104.168 16.6911 101.662 16.6925C101.574 16.6925 101.486 16.7081 101.344 16.7222C100.291 27.0055 99.2538 37.2902 98.205 47.5608C97.8985 47.6425 90.4469 47.6595 89.9817 47.5777C90.1056 45.8687 90.3187 44.164 90.4803 42.4537C90.6419 40.7377 90.8271 39.0231 91.0026 37.3085C91.1781 35.5939 91.3536 33.8793 91.5291 32.1633C91.7032 30.4614 91.8787 28.7595 92.0514 27.0576C92.2255 25.343 92.3982 23.627 92.5709 21.9124C92.7437 20.1993 92.915 18.4861 93.0821 16.8194C93.0403 16.7588 93.0348 16.7475 93.0264 16.7391C93.0167 16.7306 93.0055 16.7207 92.9944 16.7193C92.8941 16.7081 92.7938 16.6911 92.6935 16.6911C83.5997 16.6925 74.5059 16.6954 65.4121 16.6996C65.3758 16.6996 65.341 16.7222 65.2589 16.7504C64.4232 25.4375 63.5861 34.1402 62.7448 42.8908C62.9259 42.9049 63.0832 42.926 63.2406 42.926C66.6238 42.9274 70.007 42.9274 73.3902 42.9274H73.893C74.3708 38.3181 74.8443 33.744 75.3151 29.198C75.2733 29.1571 75.2636 29.1473 75.2538 29.1388C75.2441 29.1318 75.2343 29.1219 75.2232 29.1191C75.1981 29.112 75.1731 29.1078 75.148 29.1064C75.1104 29.1036 75.0714 29.1036 75.0338 29.1036C72.2105 29.1007 69.3872 29.0965 66.5639 29.0937C66.5528 29.0937 66.5403 29.0852 66.5291 29.0824C66.4678 28.7877 66.7854 25.6081 66.9428 24.9271C67.2436 24.8509 83.4186 24.8425 83.8239 24.9271C83.1693 32.4763 82.5133 40.0312 81.8573 47.6045H54.0493C55.1329 35.7448 56.2152 23.9105 57.2974 12.055C57.4158 12.0367 57.5119 12.0141 57.6094 12.0084C57.7236 12.0014 57.8378 12.0056 57.952 12.0056C84.4326 12.0056 110.913 12.0056 137.394 12.0056C137.596 12.0056 137.798 12.0268 138 12.0366V12.6542L137.995 12.6599Z" fill="white"/>
</mask>
<g mask="url(#mask0_128_8879)">
<path d="M137.999 12.0044H44.9839V47.6312H137.999V12.0044Z" fill="url(#paint0_linear_128_8879)"/>
</g>
<mask id="mask1_128_8879" style="mask-type:luminance" maskUnits="userSpaceOnUse" x="12" y="12" width="43" height="36">
<path d="M54.2459 12.0465C48.9963 18.1237 43.808 24.1304 38.5974 30.1639C42.372 35.9647 46.141 41.7543 49.9337 47.5805C49.8111 47.6017 49.7303 47.6285 49.6482 47.6285C46.4808 47.6299 43.3135 47.627 40.1462 47.6369C39.8969 47.6369 39.7869 47.5142 39.6657 47.3366C37.745 44.5179 35.8103 41.7092 33.9091 38.8764C33.6111 38.4323 33.3102 38.1954 32.774 38.28C32.5163 38.3209 32.2475 38.2871 31.9452 38.2871C31.6207 41.4074 31.2989 44.4869 30.9786 47.558C30.6805 47.6482 12.986 47.6863 12.1099 47.5988C12.2046 47.4846 12.2742 47.3888 12.355 47.3027C14.2312 45.3428 16.1087 43.3843 17.9862 41.4244C19.3317 40.02 20.6758 38.6128 22.0268 37.2126C22.1968 37.0364 22.2817 36.8488 22.3054 36.6035C22.4962 34.6957 22.6996 32.7908 22.896 30.883C23.0603 29.2968 23.2205 27.7091 23.3821 26.1214C23.4378 25.5715 23.4712 25.0173 23.559 24.4717C23.6133 24.1389 23.5381 23.8837 23.357 23.6115C21.5923 20.9339 19.8387 18.2506 18.0823 15.5688C17.4082 14.5395 16.7313 13.5101 16.0572 12.4794C15.975 12.3539 15.8998 12.2228 15.7939 12.0479C15.9471 12.031 16.053 12.0071 16.1602 12.0071C19.4543 12.0056 22.7483 12.0071 26.0424 12C26.2973 12 26.4324 12.0959 26.5508 12.3102C26.8558 12.8601 27.1957 13.3903 27.4909 13.9444C27.6428 14.2307 27.8266 14.3322 28.1497 14.3308C31.012 14.3181 33.8729 14.3237 36.7352 14.3237C38.3383 14.3237 39.9401 14.3167 41.5432 14.3308C41.833 14.3336 42.0085 14.2405 42.1686 14.0008C42.5628 13.4171 42.9918 12.8559 43.3929 12.2764C43.5211 12.0902 43.6617 12.0014 43.893 12.0028C47.2121 12.0085 50.5326 12.007 53.8517 12.0085C53.9492 12.0085 54.0481 12.0254 54.2431 12.0451L54.2459 12.0465ZM31.9048 22.9404H32.409C35.8048 22.9404 39.1991 22.9404 42.5948 22.9432C42.8052 22.9432 42.9806 22.9206 43.1422 22.75C45.1437 20.6265 47.1522 18.5101 49.1579 16.3908C49.2136 16.3316 49.2512 16.2554 49.3194 16.1539H25.6064C24.5548 26.2892 23.5046 36.4019 22.4517 46.547H29.4172C29.7348 43.4985 30.0524 40.4613 30.3713 37.4016H35.7602C36.6628 37.4016 37.5653 37.4016 38.4693 37.4016C39.3523 37.4016 40.234 37.403 41.1797 37.4002C41.0794 37.2197 41.0237 37.1083 40.9583 37.0039C39.7186 35.0116 38.4734 33.022 37.2408 31.0254C37.0945 30.7886 36.9316 30.7054 36.6586 30.7068C34.9551 30.7181 33.2503 30.7124 31.5469 30.7124H31.0998C31.37 28.101 31.636 25.5475 31.9062 22.9418L31.9048 22.9404Z" fill="white"/>
</mask>
<g mask="url(#mask1_128_8879)">
<path d="M138 12H12V52.4578H138V12Z" fill="url(#paint1_linear_128_8879)"/>
</g>
</g>
<path d="M16.4557 54.5051H14.7439V58.9538H13.7118V54.5051H12V53.5914H16.4543V54.5051H16.4557Z" fill="#B28556"/>
<path d="M17.2299 58.9552V53.5914H19.5963C19.8429 53.5914 20.0699 53.6436 20.2788 53.7465C20.4878 53.8495 20.6674 53.9863 20.8179 54.154C20.9683 54.3232 21.0867 54.5136 21.1716 54.7279C21.2566 54.9422 21.2998 55.158 21.2998 55.3737C21.2998 55.7206 21.2134 56.0378 21.0393 56.3212C20.8666 56.6061 20.6312 56.8105 20.3345 56.9374L21.5561 58.9538H20.3875L19.2941 57.156H18.269V58.9538H17.2285L17.2299 58.9552ZM18.2704 56.2423H19.5741C19.6688 56.2423 19.7593 56.2197 19.8415 56.1746C19.925 56.1295 19.9961 56.0674 20.056 55.9899C20.1159 55.9123 20.1646 55.8193 20.1994 55.7135C20.2343 55.6078 20.2524 55.495 20.2524 55.3737C20.2524 55.2525 20.2315 55.1326 20.1925 55.0268C20.1521 54.9211 20.0978 54.8294 20.0309 54.7505C19.9627 54.6729 19.8847 54.6123 19.7969 54.5686C19.7092 54.5263 19.62 54.5037 19.5295 54.5037H18.2704V56.2409V56.2423Z" fill="#B28556"/>
<path d="M24.7209 58.0711C24.9674 58.0711 25.175 58.0203 25.3421 57.9202C25.5106 57.8201 25.6457 57.689 25.7488 57.5268C25.8519 57.3661 25.9243 57.1799 25.9675 56.9713C26.0107 56.7626 26.0315 56.5469 26.0315 56.3255V53.5914H27.0636V56.3255C27.0636 56.6935 27.0191 57.0375 26.9313 57.3604C26.8436 57.6833 26.7057 57.9653 26.5163 58.2064C26.3282 58.4476 26.0859 58.6393 25.7892 58.7803C25.4925 58.9213 25.1387 58.9918 24.7265 58.9918C24.3142 58.9918 23.9367 58.9171 23.6373 58.769C23.3378 58.621 23.0955 58.4236 22.9102 58.1797C22.7236 57.9357 22.5899 57.6523 22.5063 57.3294C22.4227 57.0065 22.3823 56.6723 22.3823 56.3255V53.5914H23.4228V56.3255C23.4228 56.5525 23.4437 56.7696 23.4868 56.9783C23.53 57.187 23.6024 57.3717 23.7055 57.5339C23.8086 57.6946 23.9423 57.8243 24.1094 57.923C24.2752 58.0217 24.4785 58.0697 24.7195 58.0697L24.7209 58.0711Z" fill="#B28556"/>
<path d="M31.5346 55.0353C31.4998 55.0001 31.4357 54.9521 31.3424 54.8915C31.2491 54.8309 31.1362 54.7716 31.0025 54.7138C30.8688 54.656 30.7254 54.6067 30.5694 54.5672C30.4134 54.5263 30.2546 54.5065 30.0944 54.5065C29.8075 54.5065 29.5944 54.5587 29.4537 54.6645C29.313 54.7702 29.242 54.9183 29.242 55.11C29.242 55.2214 29.2684 55.3131 29.3214 55.3864C29.3743 55.4597 29.4509 55.5232 29.5512 55.5796C29.6515 55.6346 29.7782 55.6853 29.9314 55.7305C30.0847 55.7756 30.2615 55.8235 30.4635 55.8743C30.7254 55.9448 30.9621 56.0209 31.1752 56.1013C31.3883 56.1817 31.5694 56.2832 31.7184 56.403C31.8661 56.5243 31.9817 56.6681 32.0611 56.8373C32.1419 57.0065 32.1823 57.2138 32.1823 57.4605C32.1823 57.7482 32.1279 57.9935 32.0207 58.1966C31.9121 58.401 31.7672 58.566 31.5833 58.6915C31.3995 58.817 31.1892 58.9086 30.9496 58.9665C30.7114 59.0243 30.4607 59.0539 30.2003 59.0539C29.7977 59.0539 29.4008 58.9932 29.0094 58.872C28.618 58.7507 28.2656 58.5801 27.9536 58.3587L28.4132 57.4605C28.4578 57.5057 28.54 57.5649 28.6584 57.6382C28.7768 57.7115 28.9161 57.7849 29.0762 57.8568C29.2364 57.9301 29.4161 57.9921 29.6111 58.0415C29.8075 58.0922 30.008 58.1176 30.2142 58.1176C30.7866 58.1176 31.0736 57.9343 31.0736 57.5663C31.0736 57.4507 31.0401 57.352 30.9761 57.2716C30.9106 57.1912 30.8173 57.1207 30.6975 57.0601C30.5763 56.9995 30.4315 56.9445 30.2601 56.8937C30.0888 56.843 29.898 56.788 29.6877 56.7273C29.4314 56.6568 29.2086 56.5807 29.0205 56.4975C28.8325 56.4143 28.6751 56.3156 28.5497 56.2028C28.4244 56.09 28.3297 55.9589 28.267 55.8094C28.2043 55.6614 28.1723 55.4837 28.1723 55.2764C28.1723 55.0043 28.2224 54.7632 28.3227 54.5517C28.423 54.3402 28.5623 54.1639 28.7406 54.0229C28.9188 53.8819 29.1264 53.7748 29.3618 53.7014C29.5986 53.6281 29.852 53.5914 30.1236 53.5914C30.5011 53.5914 30.8479 53.6507 31.1641 53.7691C31.4803 53.8876 31.7574 54.0271 31.9928 54.1879L31.5332 55.0339L31.5346 55.0353Z" fill="#B28556"/>
<path d="M37.4235 54.5051H35.7117V58.9538H34.6796V54.5051H32.9678V53.5914H37.4221V54.5051H37.4235Z" fill="#B28556"/>
<path d="M41.9768 58.0415V58.9552H38.2607V53.5914H41.9086V54.5051H39.3012V55.7967H41.5548V56.6427H39.3012V58.0401H41.9768V58.0415Z" fill="#B28556"/>
<path d="M42.6938 59.0186V53.6549H44.6382C45.0755 53.6549 45.4586 53.7254 45.7873 53.8664C46.116 54.0074 46.3917 54.1992 46.6132 54.4403C46.8347 54.6814 47.0004 54.9648 47.1105 55.2905C47.2205 55.6148 47.2762 55.9617 47.2762 56.3297C47.2762 56.7372 47.2149 57.1066 47.091 57.4366C46.9684 57.7665 46.7901 58.0485 46.5589 58.2826C46.3277 58.5167 46.0505 58.6985 45.726 58.8269C45.4014 58.9552 45.0393 59.02 44.6368 59.02H42.6924L42.6938 59.0186ZM46.2288 56.3283C46.2288 56.0717 46.194 55.8348 46.1229 55.6176C46.0519 55.4005 45.9488 55.2144 45.8137 55.0593C45.6786 54.9028 45.5115 54.7829 45.3123 54.6969C45.1131 54.6109 44.8889 54.5686 44.6382 54.5686H43.7342V58.1035H44.6382C44.8945 58.1035 45.1215 58.0584 45.3207 57.9667C45.5184 57.8765 45.6856 57.751 45.8179 57.5931C45.9516 57.4352 46.0533 57.2476 46.1229 57.0305C46.1926 56.8148 46.2288 56.5807 46.2288 56.3283Z" fill="#B28556"/>
<path d="M50.314 60V53.1642H51.1733V60H50.314Z" fill="#B28556"/>
<path d="M54.5136 59.0186V53.6549H56.88C57.1266 53.6549 57.3536 53.7071 57.5625 53.81C57.7714 53.9129 57.9511 54.0497 58.1015 54.2175C58.252 54.3867 58.3704 54.577 58.4553 54.7914C58.5403 55.0057 58.5835 55.2214 58.5835 55.4372C58.5835 55.784 58.4971 56.1013 58.323 56.3847C58.1503 56.6695 57.9149 56.874 57.6182 57.0009L58.8397 59.0172H57.6712L56.5778 57.2194H55.5527V59.0172H54.5122L54.5136 59.0186ZM55.5527 56.3057H56.8563C56.9511 56.3057 57.0416 56.2832 57.1238 56.2381C57.2073 56.1929 57.2784 56.1309 57.3383 56.0533C57.3982 55.9758 57.4469 55.8827 57.4817 55.777C57.5166 55.6712 57.5347 55.5584 57.5347 55.4372C57.5347 55.3159 57.5138 55.196 57.4748 55.0903C57.4344 54.9845 57.3801 54.8929 57.3132 54.8139C57.2449 54.7364 57.1669 54.6757 57.0792 54.632C56.9915 54.5897 56.9023 54.5672 56.8118 54.5672H55.5527V56.3043V56.3057Z" fill="#B28556"/>
<path d="M63.4304 58.1035V59.0172H59.7144V53.6535H63.3622V54.5672H60.7548V55.8588H63.0084V56.7048H60.7548V58.1021H63.4304V58.1035Z" fill="#B28556"/>
<path d="M68.0351 58.4137C67.6075 58.8424 67.1103 59.0553 66.542 59.0553C66.1896 59.0553 65.8595 58.9848 65.5503 58.8438C65.2411 58.7028 64.9723 58.5096 64.7438 58.2628C64.5154 58.0161 64.3344 57.7256 64.2006 57.39C64.0669 57.0559 64.0015 56.6935 64.0015 56.3057C64.0015 55.9377 64.0683 55.5923 64.2006 55.2665C64.333 54.9422 64.5168 54.6574 64.7508 54.4135C64.9848 54.1696 65.2592 53.975 65.5768 53.8326C65.8929 53.6887 66.237 53.6168 66.6089 53.6168C67.1117 53.6168 67.5421 53.7226 67.9014 53.9341C68.2608 54.1456 68.531 54.4304 68.712 54.7871L67.9362 55.361C67.8011 55.0945 67.6103 54.8901 67.3666 54.7491C67.1228 54.6081 66.8582 54.5376 66.5712 54.5376C66.3456 54.5376 66.1381 54.5855 65.95 54.6814C65.762 54.7773 65.6004 54.9084 65.4681 55.0748C65.3344 55.2412 65.2313 55.4329 65.1589 55.6487C65.0865 55.8658 65.0503 56.0942 65.0503 56.3353C65.0503 56.5765 65.0907 56.8218 65.1714 57.0418C65.2522 57.2603 65.3623 57.4507 65.5029 57.6128C65.6436 57.7736 65.8108 57.9005 66.0044 57.9935C66.198 58.0866 66.4083 58.1331 66.6339 58.1331C67.1521 58.1331 67.6187 57.8892 68.0365 57.3999V57.022H66.9585V56.2592H68.8959V59.0158H68.0365V58.4109L68.0351 58.4137Z" fill="#B28556"/>
<path d="M72.2346 58.1345C72.4811 58.1345 72.6886 58.0838 72.8558 57.9837C73.0243 57.8836 73.1594 57.7524 73.2625 57.5903C73.3655 57.4295 73.438 57.2434 73.4812 57.0347C73.5243 56.826 73.5452 56.6103 73.5452 56.3889V53.6549H74.5773V56.3889C74.5773 56.7569 74.5327 57.101 74.445 57.4239C74.3572 57.7468 74.2194 58.0288 74.0299 58.2699C73.8419 58.511 73.5995 58.7028 73.3029 58.8438C73.0062 58.9848 72.6524 59.0553 72.2401 59.0553C71.8279 59.0553 71.4504 58.9805 71.1509 58.8325C70.8515 58.6844 70.6091 58.487 70.4239 58.2431C70.2372 57.9992 70.1035 57.7158 70.02 57.3929C69.9364 57.07 69.896 56.7358 69.896 56.3889V53.6549H70.9364V56.3889C70.9364 56.6159 70.9573 56.8331 71.0005 57.0418C71.0437 57.2504 71.1161 57.4352 71.2192 57.5973C71.3223 57.7581 71.456 57.8878 71.6231 57.9865C71.7889 58.0852 71.9922 58.1331 72.2332 58.1331L72.2346 58.1345Z" fill="#B28556"/>
<path d="M75.814 59.0186V53.6549H76.8544V58.1035H79.583V59.0172H75.814V59.0186Z" fill="#B28556"/>
<path d="M81.9272 53.6549H82.8464L84.8813 59.0186H83.8117L83.3144 57.6819H81.4452L80.955 59.0186H79.8853L81.9285 53.6549H81.9272ZM83.1264 56.9487L82.3882 54.8407L81.6193 56.9487H83.1264Z" fill="#B28556"/>
<path d="M89.1335 54.5686H87.4231V59.0172H86.3911V54.5686H84.6807V53.6549H89.1349V54.5686H89.1335Z" fill="#B28556"/>
<path d="M93.7009 58.1035V59.0172H89.9849V53.6535H93.6327V54.5672H91.0253V55.8588H93.2789V56.7048H91.0253V58.1021H93.7009V58.1035Z" fill="#B28556"/>
<path d="M94.7035 59.0186V53.6549H96.6479C97.0853 53.6549 97.4683 53.7254 97.797 53.8664C98.1257 54.0074 98.4015 54.1992 98.623 54.4403C98.8444 54.6814 99.0102 54.9648 99.1202 55.2905C99.2303 55.6148 99.286 55.9617 99.286 56.3297C99.286 56.7372 99.2247 57.1066 99.1007 57.4366C98.9782 57.7665 98.7999 58.0485 98.5687 58.2826C98.3374 58.5167 98.0603 58.6985 97.7357 58.8269C97.4112 58.9552 97.0491 59.02 96.6465 59.02H94.7021L94.7035 59.0186ZM98.2386 56.3283C98.2386 56.0717 98.2037 55.8348 98.1327 55.6176C98.0617 55.4005 97.9586 55.2144 97.8235 55.0593C97.6884 54.9028 97.5212 54.7829 97.3221 54.6969C97.1229 54.6109 96.8987 54.5686 96.6479 54.5686H95.744V58.1035H96.6479C96.9042 58.1035 97.1313 58.0584 97.3304 57.9667C97.5282 57.8765 97.6954 57.751 97.8277 57.5931C97.9614 57.4352 98.0631 57.2476 98.1327 57.0305C98.2023 56.8148 98.2386 56.5807 98.2386 56.3283Z" fill="#B28556"/>
<path d="M102.324 60V53.1642H103.183V60H102.324Z" fill="#B28556"/>
<path d="M110.238 58.4137C109.811 58.8424 109.313 59.0553 108.745 59.0553C108.393 59.0553 108.063 58.9848 107.753 58.8438C107.444 58.7028 107.175 58.5096 106.947 58.2628C106.719 58.0161 106.537 57.7256 106.404 57.39C106.27 57.0559 106.205 56.6935 106.205 56.3057C106.205 55.9377 106.271 55.5923 106.404 55.2665C106.536 54.9422 106.72 54.6574 106.954 54.4135C107.188 54.1696 107.462 53.975 107.78 53.8326C108.096 53.6887 108.44 53.6168 108.812 53.6168C109.315 53.6168 109.745 53.7226 110.105 53.9341C110.464 54.1456 110.734 54.4304 110.915 54.7871L110.139 55.361C110.004 55.0945 109.813 54.8901 109.57 54.7491C109.326 54.6081 109.061 54.5376 108.774 54.5376C108.549 54.5376 108.341 54.5855 108.153 54.6814C107.965 54.7773 107.804 54.9084 107.671 55.0748C107.538 55.2412 107.434 55.4329 107.362 55.6487C107.29 55.8658 107.253 56.0942 107.253 56.3353C107.253 56.5765 107.294 56.8218 107.375 57.0418C107.455 57.2603 107.565 57.4507 107.706 57.6128C107.847 57.7736 108.014 57.9005 108.207 57.9935C108.401 58.0866 108.611 58.1331 108.837 58.1331C109.355 58.1331 109.822 57.8892 110.24 57.3999V57.022H109.162V56.2592H111.099V59.0158H110.24V58.4109L110.238 58.4137Z" fill="#B28556"/>
<path d="M112.175 59.0186V53.6549H113.216V58.1035H115.944V59.0172H112.175V59.0186Z" fill="#B28556"/>
<path d="M118.711 59.0553C118.319 59.0553 117.963 58.9791 117.644 58.8254C117.325 58.6718 117.051 58.4673 116.822 58.2135C116.594 57.9597 116.417 57.6678 116.29 57.3407C116.165 57.0136 116.102 56.678 116.102 56.3368C116.102 55.9955 116.169 55.6374 116.301 55.3088C116.435 54.9817 116.617 54.6927 116.851 54.4403C117.085 54.1893 117.363 53.9891 117.684 53.8396C118.006 53.6916 118.356 53.6168 118.732 53.6168C119.108 53.6168 119.471 53.6958 119.79 53.8551C120.109 54.013 120.382 54.2217 120.608 54.4783C120.834 54.735 121.01 55.0268 121.136 55.354C121.261 55.6811 121.324 56.0139 121.324 56.3509C121.324 56.709 121.258 57.0502 121.127 57.3745C120.996 57.6988 120.815 57.9865 120.584 58.2361C120.353 58.4856 120.077 58.6844 119.755 58.8325C119.434 58.9805 119.084 59.0553 118.708 59.0553H118.711ZM117.158 56.3368C117.158 56.568 117.193 56.7922 117.264 57.0093C117.333 57.2265 117.435 57.4168 117.569 57.5832C117.702 57.7496 117.865 57.8821 118.059 57.9837C118.253 58.0838 118.473 58.1345 118.719 58.1345C118.966 58.1345 119.193 58.0824 119.386 57.9794C119.58 57.8765 119.743 57.7397 119.877 57.5677C120.01 57.3971 120.111 57.2039 120.179 56.9896C120.247 56.7753 120.281 56.5581 120.281 56.3368C120.281 56.1154 120.244 55.8813 120.172 55.6642C120.099 55.447 119.996 55.2567 119.863 55.0903C119.729 54.9239 119.566 54.7914 119.372 54.6941C119.179 54.5954 118.962 54.5474 118.721 54.5474C118.48 54.5474 118.246 54.5996 118.049 54.7025C117.853 54.8055 117.69 54.9422 117.559 55.11C117.428 55.2792 117.329 55.4696 117.261 55.6839C117.193 55.8982 117.159 56.1154 117.159 56.3368H117.158Z" fill="#B28556"/>
<path d="M126.625 57.6354C126.625 57.8624 126.58 58.0612 126.49 58.2318C126.399 58.4024 126.275 58.5463 126.116 58.6619C125.958 58.7775 125.775 58.8663 125.566 58.927C125.357 58.9876 125.136 59.0172 124.899 59.0172H122.314V53.6535H125.179C125.364 53.6535 125.533 53.6944 125.685 53.7747C125.835 53.8551 125.963 53.9595 126.069 54.0878C126.175 54.2161 126.256 54.3627 126.314 54.5263C126.373 54.6898 126.401 54.8548 126.401 55.0212C126.401 55.2835 126.335 55.5288 126.204 55.7572C126.073 55.9871 125.882 56.1563 125.632 56.2677C125.938 56.3579 126.18 56.52 126.359 56.7555C126.537 56.9896 126.626 57.2829 126.626 57.6354H126.625ZM123.354 54.546V55.8982H124.742C124.917 55.8982 125.068 55.8376 125.19 55.7163C125.313 55.5951 125.375 55.4287 125.375 55.2172C125.375 55.0057 125.318 54.8464 125.205 54.7265C125.093 54.6052 124.953 54.5446 124.788 54.5446H123.356L123.354 54.546ZM125.577 57.4394C125.577 57.3435 125.561 57.2519 125.529 57.163C125.497 57.0756 125.452 56.998 125.396 56.9332C125.341 56.8683 125.275 56.8162 125.2 56.7781C125.125 56.74 125.041 56.7217 124.951 56.7217H123.353V58.1345H124.898C124.992 58.1345 125.083 58.1176 125.165 58.0809C125.249 58.0457 125.32 57.9963 125.38 57.9343C125.439 57.8708 125.488 57.7975 125.523 57.7115C125.558 57.6255 125.576 57.5353 125.576 57.4394H125.577Z" fill="#B28556"/>
<path d="M129.037 53.6549H129.956L131.991 59.0186H130.92L130.423 57.6819H128.554L128.063 59.0186H126.994L129.037 53.6549ZM130.236 56.9487L129.498 54.8407L128.729 56.9487H130.236Z" fill="#B28556"/>
<path d="M132.769 59.0186V53.6549H133.809V58.1035H136.538V59.0172H132.769V59.0186Z" fill="#B28556"/>
<defs>
<filter id="filter0_d_128_8879" x="0.109863" y="0" width="173.89" height="83.6482" filterUnits="userSpaceOnUse" color-interpolation-filters="sRGB">
<feFlood flood-opacity="0" result="BackgroundImageFix"/>
<feColorMatrix in="SourceAlpha" type="matrix" values="0 0 0 0 0 0 0 0 0 0 0 0 0 0 0 0 0 0 127 0" result="hardAlpha"/>
<feOffset dx="12" dy="12"/>
<feGaussianBlur stdDeviation="12"/>
<feColorMatrix type="matrix" values="0 0 0 0 0 0 0 0 0 0 0 0 0 0 0 0 0 0 0.2 0"/>
<feBlend mode="normal" in2="BackgroundImageFix" result="effect1_dropShadow_128_8879"/>
<feBlend mode="normal" in="SourceGraphic" in2="effect1_dropShadow_128_8879" result="shape"/>
</filter>
<linearGradient id="paint0_linear_128_8879" x1="137.999" y1="29.8178" x2="44.9839" y2="29.8178" gradientUnits="userSpaceOnUse">
<stop stop-color="#01133C"/>
<stop offset="0.17" stop-color="#01133C"/>
<stop offset="0.21" stop-color="#021442"/>
<stop offset="0.42" stop-color="#0C1D62"/>
<stop offset="0.63" stop-color="#122378"/>
<stop offset="0.83" stop-color="#162686"/>
<stop offset="1" stop-color="#01143C"/>
</linearGradient>
<linearGradient id="paint1_linear_128_8879" x1="138" y1="103.587" x2="12" y2="103.587" gradientUnits="userSpaceOnUse">
<stop stop-color="#01133C"/>
<stop offset="0.17" stop-color="#01133C"/>
<stop offset="0.21" stop-color="#021442"/>
<stop offset="0.42" stop-color="#0C1D62"/>
<stop offset="0.63" stop-color="#122378"/>
<stop offset="0.83" stop-color="#162686"/>
<stop offset="1" stop-color="#01143C"/>
</linearGradient>
</defs>
</svg>
