<svg width="49" height="48" viewBox="0 0 49 48" fill="none" xmlns="http://www.w3.org/2000/svg">
<g clip-path="url(#clip0_128_8945)">
<path d="M17.5399 17.376L22.5349 23.25L17.5429 29.124C16.3846 30.2663 14.9144 31.0407 13.3172 31.3498C11.72 31.6588 10.0671 31.4888 8.56629 30.861C7.06548 30.2332 5.78377 29.1758 4.8823 27.8215C3.98084 26.4673 3.49987 24.8768 3.49987 23.25C3.49987 21.6232 3.98084 20.0327 4.8823 18.6785C5.78377 17.3243 7.06548 16.2668 8.56629 15.639C10.0671 15.0112 11.72 14.8412 13.3172 15.1503C14.9144 15.4593 16.3846 16.2337 17.5429 17.376H17.5399ZM24.4999 20.934L19.7479 15.339L19.7059 15.294C18.1324 13.721 16.1278 12.6498 13.9456 12.216C11.7634 11.7821 9.50157 12.0051 7.44608 12.8566C5.39058 13.7082 3.63375 15.1502 2.39771 17.0001C1.16168 18.8501 0.501953 21.0251 0.501953 23.25C0.501953 25.4749 1.16168 27.6499 2.39771 29.4999C3.63375 31.3498 5.39058 32.7918 7.44608 33.6434C9.50157 34.4949 11.7634 34.7179 13.9456 34.2841C16.1278 33.8502 18.1324 32.779 19.7059 31.206L19.7479 31.161L24.4999 25.566L29.2519 31.161L29.2939 31.206C30.8673 32.779 32.8719 33.8502 35.0541 34.2841C37.2363 34.7179 39.4981 34.4949 41.5536 33.6434C43.6091 32.7918 45.366 31.3498 46.602 29.4999C47.838 27.6499 48.4978 25.4749 48.4978 23.25C48.4978 21.0251 47.838 18.8501 46.602 17.0001C45.366 15.1502 43.6091 13.7082 41.5536 12.8566C39.4981 12.0051 37.2363 11.7821 35.0541 12.216C32.8719 12.6498 30.8673 13.721 29.2939 15.294L29.2519 15.339L24.4999 20.934ZM26.4679 23.25L31.4569 17.376C32.6151 16.2337 34.0853 15.4593 35.6825 15.1503C37.2797 14.8412 38.9326 15.0112 40.4334 15.639C41.9342 16.2668 43.2159 17.3243 44.1174 18.6785C45.0189 20.0327 45.4998 21.6232 45.4998 23.25C45.4998 24.8768 45.0189 26.4673 44.1174 27.8215C43.2159 29.1758 41.9342 30.2332 40.4334 30.861C38.9326 31.4888 37.2797 31.6588 35.6825 31.3498C34.0853 31.0407 32.6151 30.2663 31.4569 29.124L26.4679 23.25Z" fill="#BC9366"/>
</g>
<defs>
<clipPath id="clip0_128_8945">
<rect width="48" height="48" fill="white" transform="translate(0.5)"/>
</clipPath>
</defs>
</svg>
