<svg width="49" height="49" viewBox="0 0 49 49" fill="none" xmlns="http://www.w3.org/2000/svg">
<g filter="url(#filter0_d_212_948)">
<circle cx="24" cy="23" r="19.5" stroke="url(#paint0_linear_212_948)" shape-rendering="crispEdges"/>
</g>
<path d="M32.5501 28.1667V29.0334C32.5501 30.9477 30.4916 32.5001 27.9502 32.5001H25.6502" stroke="url(#paint1_linear_212_948)" stroke-width="1.5" stroke-linecap="round" stroke-linejoin="round"/>
<path d="M16.4504 19.5C16.4504 15.9098 20.0545 13 24.5003 13C28.9461 13 32.5501 15.9098 32.5501 19.5" stroke="url(#paint2_linear_212_948)" stroke-width="1.5" stroke-linecap="square" stroke-linejoin="round"/>
<path d="M30.2501 21.4554C30.2501 21.0806 30.2501 20.8932 30.3099 20.7264C30.4836 20.241 30.9424 20.0536 31.4024 19.8564C31.9176 19.6344 32.1752 19.5239 32.4316 19.5044C32.7214 19.4827 33.0124 19.5412 33.2608 19.6723C33.5896 19.8456 33.8196 20.1771 34.0542 20.4458C35.1387 21.6873 35.6815 22.308 35.8793 22.9916C36.0403 23.5441 36.0403 24.1226 35.8793 24.674C35.5906 25.6729 34.6764 26.5092 33.999 27.2849C33.6529 27.6803 33.4793 27.8785 33.2608 27.9944C33.0081 28.1264 32.7195 28.1849 32.4316 28.1624C32.1752 28.1429 31.9176 28.0324 31.4012 27.8103C30.9412 27.6131 30.4836 27.4257 30.3099 26.9404C30.2501 26.7735 30.2501 26.5861 30.2501 26.2113V21.4554ZM18.7503 21.4554C18.7503 20.9831 18.7365 20.5595 18.3318 20.228C18.1846 20.1078 17.9891 20.0244 17.5992 19.8564C17.0829 19.6354 16.8253 19.5239 16.5688 19.5044C15.8018 19.4459 15.389 19.9399 14.9474 20.4469C13.8618 21.6873 13.319 22.308 13.1201 22.9927C12.96 23.5434 12.96 24.1244 13.1201 24.6751C13.4098 25.6729 14.3252 26.5103 15.0014 27.2849C15.4281 27.7724 15.8363 28.2176 16.5688 28.1624C16.8253 28.1429 17.0829 28.0324 17.5992 27.8103C17.9902 27.6434 18.1846 27.5589 18.3318 27.4387C18.7365 27.1072 18.7503 26.6836 18.7503 26.2124V21.4554Z" stroke="url(#paint3_linear_212_948)" stroke-width="1.5"/>
<defs>
<filter id="filter0_d_212_948" x="-2.08616e-07" y="0.333333" width="48.5333" height="48.5333" filterUnits="userSpaceOnUse" color-interpolation-filters="sRGB">
<feFlood flood-opacity="0" result="BackgroundImageFix"/>
<feColorMatrix in="SourceAlpha" type="matrix" values="0 0 0 0 0 0 0 0 0 0 0 0 0 0 0 0 0 0 127 0" result="hardAlpha"/>
<feOffset dx="0.266667" dy="1.6"/>
<feGaussianBlur stdDeviation="2.13333"/>
<feComposite in2="hardAlpha" operator="out"/>
<feColorMatrix type="matrix" values="0 0 0 0 0 0 0 0 0 0 0 0 0 0 0 0 0 0 0.1 0"/>
<feBlend mode="normal" in2="BackgroundImageFix" result="effect1_dropShadow_212_948"/>
<feBlend mode="normal" in="SourceGraphic" in2="effect1_dropShadow_212_948" result="shape"/>
</filter>
<linearGradient id="paint0_linear_212_948" x1="4" y1="3" x2="44" y2="43" gradientUnits="userSpaceOnUse">
<stop stop-color="#293794"/>
<stop offset="1" stop-color="#000021"/>
</linearGradient>
<linearGradient id="paint1_linear_212_948" x1="25.6502" y1="28.1667" x2="29.5536" y2="34.382" gradientUnits="userSpaceOnUse">
<stop stop-color="#293794"/>
<stop offset="1" stop-color="#000021"/>
</linearGradient>
<linearGradient id="paint2_linear_212_948" x1="16.4504" y1="13" x2="20.9634" y2="24.178" gradientUnits="userSpaceOnUse">
<stop stop-color="#293794"/>
<stop offset="1" stop-color="#000021"/>
</linearGradient>
<linearGradient id="paint3_linear_212_948" x1="13" y1="19.4996" x2="18.7202" y2="34.6789" gradientUnits="userSpaceOnUse">
<stop stop-color="#293794"/>
<stop offset="1" stop-color="#000021"/>
</linearGradient>
</defs>
</svg>
