<svg width="32" height="30" viewBox="0 0 32 30" fill="none" xmlns="http://www.w3.org/2000/svg">
<path d="M26.5 22.5V23.7C26.5 26.3505 23.815 28.5 20.5 28.5H17.5" stroke="url(#paint0_linear_180_1390)" stroke-width="1.6491" stroke-linecap="round" stroke-linejoin="round"/>
<path d="M5.50024 10.5C5.50024 5.52902 10.2012 1.50002 16.0002 1.50002C21.7992 1.50002 26.5002 5.52902 26.5002 10.5" stroke="url(#paint1_linear_180_1390)" stroke-width="1.6491" stroke-linecap="square" stroke-linejoin="round"/>
<path d="M23.5001 13.2075C23.5001 12.6885 23.5001 12.429 23.5781 12.198C23.8046 11.526 24.4031 11.2665 25.0031 10.9935C25.6751 10.686 26.0111 10.533 26.3456 10.506C26.7236 10.476 27.1031 10.557 27.4271 10.7385C27.8561 10.9785 28.1561 11.4375 28.4621 11.8095C29.8766 13.5285 30.5846 14.388 30.8426 15.3345C31.0526 16.0995 31.0526 16.9005 30.8426 17.664C30.4661 19.047 29.2736 20.205 28.3901 21.279C27.9386 21.8265 27.7121 22.101 27.4271 22.2615C27.0975 22.4443 26.7212 22.5252 26.3456 22.494C26.0111 22.467 25.6751 22.314 25.0016 22.0065C24.4016 21.7335 23.8046 21.474 23.5781 20.802C23.5001 20.571 23.5001 20.3115 23.5001 19.7925V13.2075ZM8.50011 13.2075C8.50011 12.5535 8.48211 11.967 7.95411 11.508C7.76211 11.3415 7.50711 11.226 6.99861 10.9935C6.32511 10.6875 5.98911 10.533 5.65461 10.506C4.65411 10.425 4.11561 11.109 3.53961 11.811C2.12361 13.5285 1.41561 14.388 1.15611 15.336C0.947314 16.0985 0.947314 16.9031 1.15611 17.6655C1.53411 19.047 2.72811 20.2065 3.61011 21.279C4.16661 21.954 4.69911 22.5705 5.65461 22.494C5.98911 22.467 6.32511 22.314 6.99861 22.0065C7.50861 21.7755 7.76211 21.6585 7.95411 21.492C8.48211 21.033 8.50011 20.4465 8.50011 19.794V13.2075Z" stroke="url(#paint2_linear_180_1390)" stroke-width="1.6491"/>
<defs>
<linearGradient id="paint0_linear_180_1390" x1="17.5" y1="22.5" x2="23.0385" y2="30.8077" gradientUnits="userSpaceOnUse">
<stop stop-color="#293794"/>
<stop offset="1" stop-color="#000021"/>
</linearGradient>
<linearGradient id="paint1_linear_180_1390" x1="5.50024" y1="1.50002" x2="12.0175" y2="16.7069" gradientUnits="userSpaceOnUse">
<stop stop-color="#293794"/>
<stop offset="1" stop-color="#000021"/>
</linearGradient>
<linearGradient id="paint2_linear_180_1390" x1="0.999512" y1="10.4995" x2="9.27654" y2="31.1906" gradientUnits="userSpaceOnUse">
<stop stop-color="#293794"/>
<stop offset="1" stop-color="#000021"/>
</linearGradient>
</defs>
</svg>
