<svg width="36" height="36" viewBox="0 0 36 36" fill="none" xmlns="http://www.w3.org/2000/svg">
<path d="M28.5 25.5V26.7C28.5 29.3505 25.815 31.5 22.5 31.5H19.5" stroke="url(#paint0_linear_116_1365)" stroke-width="1.6491" stroke-linecap="round" stroke-linejoin="round"/>
<path d="M7.5 13.5C7.5 8.529 12.201 4.5 18 4.5C23.799 4.5 28.5 8.529 28.5 13.5" stroke="url(#paint1_linear_116_1365)" stroke-width="1.6491" stroke-linecap="square" stroke-linejoin="round"/>
<path d="M25.5 16.2076C25.5 15.6886 25.5 15.4291 25.578 15.1981C25.8045 14.5261 26.403 14.2666 27.003 13.9936C27.675 13.6861 28.011 13.5331 28.3455 13.5061C28.7235 13.4761 29.103 13.5571 29.427 13.7386C29.856 13.9786 30.156 14.4376 30.462 14.8096C31.8765 16.5286 32.5845 17.3881 32.8425 18.3346C33.0525 19.0996 33.0525 19.9006 32.8425 20.6641C32.466 22.0471 31.2735 23.2051 30.39 24.2791C29.9385 24.8266 29.712 25.1011 29.427 25.2616C29.0974 25.4443 28.721 25.5252 28.3455 25.4941C28.011 25.4671 27.675 25.3141 27.0015 25.0066C26.4015 24.7336 25.8045 24.4741 25.578 23.8021C25.5 23.5711 25.5 23.3116 25.5 22.7926V16.2076ZM10.5 16.2076C10.5 15.5536 10.482 14.9671 9.95398 14.5081C9.76198 14.3416 9.50698 14.2261 8.99848 13.9936C8.32498 13.6876 7.98898 13.5331 7.65448 13.5061C6.65398 13.4251 6.11548 14.1091 5.53948 14.8111C4.12348 16.5286 3.41548 17.3881 3.15598 18.3361C2.94719 19.0985 2.94719 19.9031 3.15598 20.6656C3.53398 22.0471 4.72798 23.2066 5.60998 24.2791C6.16648 24.9541 6.69898 25.5706 7.65448 25.4941C7.98898 25.4671 8.32498 25.3141 8.99848 25.0066C9.50848 24.7756 9.76198 24.6586 9.95398 24.4921C10.482 24.0331 10.5 23.4466 10.5 22.7941V16.2076Z" stroke="url(#paint2_linear_116_1365)" stroke-width="1.6491"/>
<defs>
<linearGradient id="paint0_linear_116_1365" x1="19.5" y1="25.5" x2="25.0385" y2="33.8077" gradientUnits="userSpaceOnUse">
<stop stop-color="#293794"/>
<stop offset="1" stop-color="#000021"/>
</linearGradient>
<linearGradient id="paint1_linear_116_1365" x1="7.5" y1="4.5" x2="14.0172" y2="19.7069" gradientUnits="userSpaceOnUse">
<stop stop-color="#293794"/>
<stop offset="1" stop-color="#000021"/>
</linearGradient>
<linearGradient id="paint2_linear_116_1365" x1="2.99939" y1="13.4995" x2="11.2764" y2="34.1906" gradientUnits="userSpaceOnUse">
<stop stop-color="#293794"/>
<stop offset="1" stop-color="#000021"/>
</linearGradient>
</defs>
</svg>
