<svg width="49" height="49" viewBox="0 0 49 49" fill="none" xmlns="http://www.w3.org/2000/svg">
<g filter="url(#filter0_d_212_919)">
<circle cx="24" cy="23" r="19.5" stroke="url(#paint0_linear_212_919)" shape-rendering="crispEdges"/>
</g>
<g clip-path="url(#clip0_212_919)">
<path d="M24.0946 12C24.4548 12 24.8096 12.0234 25.1396 12.0784C25.4647 12.1202 25.7855 12.1911 26.098 12.2901C26.4096 12.3836 26.7186 12.5042 27.0247 12.6517C27.3231 12.7934 27.6297 12.9666 27.9363 13.155C28.4547 13.485 28.9648 13.7517 29.4846 13.9649C30.5075 14.3752 31.5896 14.6189 32.6897 14.6867C33.2461 14.728 33.8223 14.7491 34.4181 14.75V20.25C34.4181 21.2941 34.2847 22.2868 34.018 23.2282C33.7617 24.158 33.3976 25.0546 32.9331 25.8999C32.4706 26.7439 31.9233 27.5387 31.2996 28.2717C30.6667 29.0218 29.9812 29.7258 29.2481 30.3782C28.5047 31.0318 27.7227 31.6402 26.9065 32.2001C26.0888 32.7684 25.2666 33.2923 24.4397 33.7717L24.1097 33.9684L23.7797 33.7717C22.9316 33.2808 22.1032 32.7566 21.2965 32.2001C20.4758 31.6462 19.6935 31.0375 18.9548 30.3782C18.2222 29.7257 17.5371 29.0218 16.9047 28.2717C16.2832 27.5352 15.7334 26.741 15.263 25.8999C14.8068 25.0507 14.4431 24.155 14.1781 23.2282C13.9114 22.2581 13.7791 21.256 13.7848 20.25V14.75C14.3807 14.7491 14.9573 14.728 15.5146 14.6867C16.0642 14.6494 16.6103 14.5708 17.1481 14.4516C17.6747 14.3334 18.2013 14.1766 18.7197 13.9649C19.2575 13.7475 19.7732 13.479 20.2597 13.1632C20.8647 12.77 21.478 12.4799 22.083 12.2887C22.7346 12.0892 23.4132 11.9918 24.0946 12ZM33.0348 16.1016C31.9941 16.0507 30.963 15.8767 29.9631 15.5832C28.9689 15.2859 28.0217 14.8494 27.1498 14.2866C26.6975 13.9904 26.2066 13.7577 25.691 13.595C25.1756 13.4396 24.6398 13.3626 24.1015 13.3667C23.5592 13.3634 23.0194 13.4403 22.4996 13.595C21.9834 13.7529 21.4932 13.9859 21.0448 14.2866C20.1711 14.8519 19.2216 15.2903 18.2247 15.5887C17.2503 15.872 16.2287 16.0452 15.1598 16.1085V20.2569C15.1598 21.1671 15.2781 22.0416 15.5146 22.8804C15.7557 23.7131 16.0877 24.5168 16.5046 25.277C16.9266 26.045 17.4241 26.7691 17.9896 27.4385C18.563 28.1136 19.1748 28.742 19.8348 29.3387C20.4948 29.9355 21.1865 30.4882 21.9097 30.997C22.6403 31.5067 23.3709 31.9728 24.1015 32.3954C24.8494 31.9607 25.5784 31.4941 26.2863 30.997C27.0152 30.4896 27.7106 29.9357 28.3681 29.3387C29.0281 28.742 29.6413 28.1136 30.2147 27.4385C30.7802 26.7691 31.2777 26.045 31.6997 25.277C32.1145 24.5176 32.4415 23.7136 32.6746 22.8804C32.9185 22.0274 33.0398 21.144 33.0348 20.2569V16.1016Z" fill="url(#paint1_linear_212_919)"/>
<path fill-rule="evenodd" clip-rule="evenodd" d="M29.2206 18.475L28.6156 17.9552L28.0574 18.0033L22.0624 25.0818L20.0205 22.1668L19.4705 22.0733L18.8339 22.5285L18.739 23.0785L21.3639 26.8267L21.6623 26.9917L22.2906 27.0302L22.6124 26.89L29.2605 19.0318L29.2206 18.475Z" fill="url(#paint2_linear_212_919)"/>
</g>
<defs>
<filter id="filter0_d_212_919" x="-2.08616e-07" y="0.333333" width="48.5333" height="48.5333" filterUnits="userSpaceOnUse" color-interpolation-filters="sRGB">
<feFlood flood-opacity="0" result="BackgroundImageFix"/>
<feColorMatrix in="SourceAlpha" type="matrix" values="0 0 0 0 0 0 0 0 0 0 0 0 0 0 0 0 0 0 127 0" result="hardAlpha"/>
<feOffset dx="0.266667" dy="1.6"/>
<feGaussianBlur stdDeviation="2.13333"/>
<feComposite in2="hardAlpha" operator="out"/>
<feColorMatrix type="matrix" values="0 0 0 0 0 0 0 0 0 0 0 0 0 0 0 0 0 0 0.1 0"/>
<feBlend mode="normal" in2="BackgroundImageFix" result="effect1_dropShadow_212_919"/>
<feBlend mode="normal" in="SourceGraphic" in2="effect1_dropShadow_212_919" result="shape"/>
</filter>
<linearGradient id="paint0_linear_212_919" x1="4" y1="3" x2="44" y2="43" gradientUnits="userSpaceOnUse">
<stop stop-color="#293794"/>
<stop offset="1" stop-color="#000021"/>
</linearGradient>
<linearGradient id="paint1_linear_212_919" x1="13.7847" y1="11.9995" x2="35.7104" y2="32.5924" gradientUnits="userSpaceOnUse">
<stop stop-color="#293794"/>
<stop offset="1" stop-color="#000021"/>
</linearGradient>
<linearGradient id="paint2_linear_212_919" x1="18.739" y1="17.9552" x2="27.7157" y2="28.3627" gradientUnits="userSpaceOnUse">
<stop stop-color="#293794"/>
<stop offset="1" stop-color="#000021"/>
</linearGradient>
<clipPath id="clip0_212_919">
<rect width="22" height="22" fill="white" transform="translate(13 12)"/>
</clipPath>
</defs>
</svg>
