<svg width="29" height="29" viewBox="0 0 29 29" fill="none" xmlns="http://www.w3.org/2000/svg">
<g clip-path="url(#clip0_116_1343)">
<path d="M14.6247 1.66586e-05C15.0995 1.66586e-05 15.5672 0.0308292 16.0022 0.103329C16.4307 0.158536 16.8535 0.25195 17.2655 0.382454C17.6763 0.505704 18.0835 0.6646 18.4871 0.859142C18.8804 1.04583 19.2846 1.2742 19.6888 1.52252C20.3721 1.95752 21.0445 2.30914 21.7297 2.59008C23.0781 3.131 24.5045 3.45227 25.9546 3.54164C26.6881 3.59602 27.4475 3.62381 28.2329 3.62502V10.875C28.2329 12.2513 28.0571 13.5599 27.7055 14.8009C27.3676 16.0265 26.8877 17.2084 26.2754 18.3226C25.6658 19.4352 24.9443 20.4828 24.1222 21.4491C23.288 22.4379 22.3842 23.3658 21.4179 24.2259C20.438 25.0874 19.4072 25.8894 18.3312 26.6275C17.2534 27.3766 16.1695 28.0672 15.0796 28.6991L14.6446 28.9583L14.2096 28.6991C13.0916 28.052 11.9996 27.3609 10.9362 26.6275C9.85446 25.8973 8.82322 25.095 7.84954 24.2259C6.88383 23.3658 5.98073 22.4378 5.1471 21.4491C4.32776 20.4783 3.60309 19.4313 2.98297 18.3226C2.3817 17.2032 1.90227 16.0226 1.55291 14.8009C1.2014 13.5221 1.02698 12.2012 1.03454 10.875V3.62502C1.81995 3.62381 2.58 3.59602 3.31466 3.54164C4.03916 3.49239 4.75894 3.38879 5.46791 3.2317C6.1621 3.07583 6.85629 2.8692 7.5396 2.59008C8.24848 2.30353 8.92826 1.94969 9.5696 1.53339C10.3671 1.01502 11.1755 0.632579 11.973 0.380642C12.8319 0.117629 13.7264 -0.010768 14.6247 1.66586e-05ZM26.4095 5.4067C25.0376 5.33955 23.6784 5.11019 22.3604 4.72339C21.0499 4.33144 19.8014 3.756 18.652 3.0142C18.0557 2.6238 17.4087 2.31705 16.729 2.10252C16.0496 1.89763 15.3433 1.7962 14.6337 1.80164C13.9189 1.79728 13.2073 1.89867 12.5222 2.10252C11.8417 2.31066 11.1955 2.61784 10.6045 3.0142C9.45282 3.75931 8.2012 4.33721 6.8871 4.73064C5.60264 5.10402 4.25595 5.33239 2.84704 5.41577V10.8841C2.84704 12.084 3.00291 13.2367 3.31466 14.3423C3.63254 15.44 4.07017 16.4995 4.61966 17.5015C5.17597 18.5139 5.8317 19.4683 6.57716 20.3508C7.33297 21.2407 8.13954 22.069 9.00954 22.8556C9.87954 23.6423 10.7912 24.3709 11.7446 25.0415C12.7076 25.7133 13.6707 26.3278 14.6337 26.8848C15.6197 26.3119 16.5806 25.6968 17.5138 25.0415C18.4746 24.3727 19.3912 23.6426 20.2579 22.8556C21.1279 22.069 21.9363 21.2407 22.6921 20.3508C23.4376 19.4683 24.0933 18.5139 24.6496 17.5015C25.1963 16.5006 25.6274 15.4407 25.9347 14.3423C26.2562 13.2179 26.4161 12.0535 26.4095 10.8841V5.4067Z" fill="url(#paint0_linear_116_1343)"/>
<path fill-rule="evenodd" clip-rule="evenodd" d="M21.3816 8.53522L20.5841 7.8501L19.8483 7.91354L11.9458 17.2443L9.25419 13.4018L8.52919 13.2785L7.69 13.8785L7.56494 14.6035L11.025 19.5443L11.4183 19.7618L12.2466 19.8126L12.6708 19.6277L21.4342 9.26929L21.3816 8.53522Z" fill="url(#paint1_linear_116_1343)"/>
</g>
<defs>
<linearGradient id="paint0_linear_116_1343" x1="1.0343" y1="-0.000610352" x2="29.9364" y2="27.1446" gradientUnits="userSpaceOnUse">
<stop stop-color="#293794"/>
<stop offset="1" stop-color="#000021"/>
</linearGradient>
<linearGradient id="paint1_linear_116_1343" x1="7.56494" y1="7.8501" x2="19.3978" y2="21.569" gradientUnits="userSpaceOnUse">
<stop stop-color="#293794"/>
<stop offset="1" stop-color="#000021"/>
</linearGradient>
<clipPath id="clip0_116_1343">
<rect width="29" height="29" fill="white"/>
</clipPath>
</defs>
</svg>
