<svg width="28" height="29" viewBox="0 0 28 29" fill="none" xmlns="http://www.w3.org/2000/svg">
<path d="M13.6248 -2.91177e-05C14.0997 -2.91177e-05 14.5673 0.0307834 15.0023 0.103283C15.4309 0.15849 15.8537 0.251904 16.2656 0.382408C16.6764 0.505658 17.0836 0.664554 17.4872 0.859096C17.8805 1.04578 18.2847 1.27416 18.6889 1.52247C19.3722 1.95747 20.0447 2.3091 20.7298 2.59003C22.0782 3.13096 23.5046 3.45222 24.9547 3.5416C25.6882 3.59597 26.4476 3.62376 27.233 3.62497V10.875C27.233 12.2513 27.0572 13.5599 26.7056 14.8008C26.3678 16.0265 25.8878 17.2084 25.2755 18.3225C24.6659 19.4352 23.9444 20.4828 23.1223 21.4491C22.2881 22.4378 21.3844 23.3658 20.418 24.2258C19.4381 25.0874 18.4073 25.8893 17.3313 26.6274C16.2535 27.3766 15.1696 28.0671 14.0797 28.6991L13.6447 28.9583L13.2097 28.6991C12.0917 28.052 10.9997 27.3609 9.93635 26.6274C8.85458 25.8973 7.82334 25.0949 6.84966 24.2258C5.88395 23.3657 4.98085 22.4378 4.14722 21.4491C3.32788 20.4782 2.60321 19.4313 1.9831 18.3225C1.38182 17.2032 0.902388 16.0225 0.553034 14.8008C0.201522 13.5221 0.0271041 12.2011 0.0346591 10.875V3.62497C0.820076 3.62376 1.58012 3.59597 2.31478 3.5416C3.03928 3.49235 3.75906 3.38874 4.46803 3.23166C5.16222 3.07578 5.85641 2.86916 6.53972 2.59003C7.2486 2.30349 7.92838 1.94964 8.56972 1.53335C9.36722 1.01497 10.1756 0.632533 10.9731 0.380596C11.832 0.117583 12.7265 -0.0108137 13.6248 -2.91177e-05ZM25.4097 5.40666C24.0377 5.33951 22.6785 5.11014 21.3605 4.72335C20.05 4.33139 18.8015 3.75596 17.6522 3.01416C17.0558 2.62376 16.4088 2.317 15.7291 2.10247C15.0497 1.89758 14.3434 1.79616 13.6338 1.8016C12.919 1.79724 12.2075 1.89863 11.5223 2.10247C10.8418 2.31061 10.1957 2.6178 9.60466 3.01416C8.45294 3.75926 7.20132 4.33717 5.88722 4.7306C4.60276 5.10397 3.25608 5.33235 1.84716 5.41572V10.884C1.84716 12.0839 2.00303 13.2367 2.31478 14.3423C2.63266 15.44 3.07029 16.4994 3.61978 17.5015C4.17609 18.5138 4.83182 19.4683 5.57728 20.3507C6.3331 21.2407 7.13966 22.069 8.00966 22.8556C8.87966 23.6422 9.79135 24.3708 10.7447 25.0415C11.7078 25.7133 12.6708 26.3277 13.6338 26.8848C14.6198 26.3118 15.5807 25.6968 16.5139 25.0415C17.4747 24.3727 18.3913 23.6425 19.258 22.8556C20.128 22.069 20.9364 21.2407 21.6922 20.3507C22.4377 19.4683 23.0934 18.5138 23.6497 17.5015C24.1964 16.5005 24.6276 15.4407 24.9348 14.3423C25.2563 13.2179 25.4162 12.0535 25.4097 10.884V5.40666Z" fill="url(#paint0_linear_180_1376)"/>
<path fill-rule="evenodd" clip-rule="evenodd" d="M20.3819 8.53517L19.5844 7.85004L18.8485 7.91348L10.946 17.2442L8.25444 13.4017L7.52944 13.2785L6.69025 13.8784L6.56519 14.6034L10.0252 19.5443L10.4186 19.7618L11.2469 19.8125L11.671 19.6277L20.4344 9.26923L20.3819 8.53517Z" fill="url(#paint1_linear_180_1376)"/>
<defs>
<linearGradient id="paint0_linear_180_1376" x1="0.0344238" y1="-0.000656128" x2="28.9365" y2="27.1446" gradientUnits="userSpaceOnUse">
<stop stop-color="#293794"/>
<stop offset="1" stop-color="#000021"/>
</linearGradient>
<linearGradient id="paint1_linear_180_1376" x1="6.56519" y1="7.85004" x2="18.398" y2="21.569" gradientUnits="userSpaceOnUse">
<stop stop-color="#293794"/>
<stop offset="1" stop-color="#000021"/>
</linearGradient>
</defs>
</svg>
