<svg width="33" height="33" viewBox="0 0 33 33" fill="none" xmlns="http://www.w3.org/2000/svg">
<g clip-path="url(#clip0_16_5081)">
<circle cx="16.5" cy="16.5" r="16.5" fill="#4D4D70"/>
<path d="M5.33325 17C5.33325 23.4435 10.5564 28.6667 16.9999 28.6667C23.4434 28.6667 28.6666 23.4435 28.6666 17C28.6666 10.5565 23.4434 5.33337 16.9999 5.33337C12.2166 5.33337 8.10409 8.21271 6.30392 12.3334M5.33325 8.25004L5.91659 12.9167L10.5833 11.75" stroke="white" stroke-width="1.5" stroke-linecap="round" stroke-linejoin="round"/>
<path d="M20.1803 14.7367C20.0636 13.8477 19.0451 12.4092 17.2111 12.4092C15.0808 12.4092 14.1848 13.5922 14.0028 14.1825C13.7193 14.9735 13.7753 16.5987 16.2731 16.776C19.3939 16.9977 20.6446 17.3675 20.4848 19.2809C20.3261 21.1942 18.5866 21.6084 17.2111 21.564C15.8368 21.5197 13.5863 20.8874 13.4988 19.184M16.9929 10.5834V12.415M16.9929 21.5535V23.4167" stroke="white" stroke-width="1.5" stroke-linecap="round" stroke-linejoin="round"/>
</g>
<defs>
<clipPath id="clip0_16_5081">
<rect width="33" height="33" fill="white"/>
</clipPath>
</defs>
</svg>
