<svg width="33" height="33" viewBox="0 0 33 33" fill="none" xmlns="http://www.w3.org/2000/svg">
<g clip-path="url(#clip0_16_5027)">
<circle cx="16.5" cy="16.5" r="16.5" fill="#4D4D70"/>
<path fill-rule="evenodd" clip-rule="evenodd" d="M25.9276 18.1579V23.6842C25.9276 24.5636 25.5749 25.407 24.947 26.0288C24.3192 26.6507 23.4676 27 22.5797 27H18.116V18.1579H25.9276ZM15.8841 18.1579V27H11.4203C10.5324 27 9.68089 26.6507 9.05305 26.0288C8.42521 25.407 8.07249 24.5636 8.07249 23.6842V18.1579H15.8841ZM13.6522 6C14.2855 5.99997 14.9115 6.13339 15.4887 6.39141C16.0659 6.64944 16.5811 7.02615 17 7.49653C17.4189 7.02615 17.9341 6.64944 18.5113 6.39141C19.0885 6.13339 19.7146 5.99997 20.3479 6H20.9058C21.3498 6 21.7755 6.17467 22.0895 6.48559C22.4034 6.7965 22.5797 7.2182 22.5797 7.6579V8.21053C22.5797 9.01627 22.3621 9.77116 21.9827 10.4211H24.8116C25.4036 10.4211 25.9712 10.6539 26.3898 11.0685C26.8084 11.4831 27.0435 12.0453 27.0435 12.6316V14.8421C27.0435 15.2444 26.9353 15.6224 26.7444 15.9474H18.116V12.6316C18.116 12.3384 17.9984 12.0573 17.7891 11.85C17.5798 11.6428 17.296 11.5263 17 11.5263C16.7041 11.5263 16.4202 11.6428 16.2109 11.85C16.0017 12.0573 15.8841 12.3384 15.8841 12.6316V15.9474H7.25562C7.05971 15.6113 6.95657 15.2301 6.95655 14.8421V12.6316C6.95655 12.0453 7.1917 11.4831 7.61025 11.0685C8.02881 10.6539 8.5965 10.4211 9.18843 10.4211H12.0173C11.6259 9.74887 11.42 8.9865 11.4203 8.21053V7.6579C11.4203 7.2182 11.5967 6.7965 11.9106 6.48559C12.2245 6.17467 12.6503 6 13.0942 6H13.6522ZM13.6522 8.21053C13.6522 8.7968 13.8873 9.35905 14.3059 9.77361C14.7245 10.1882 15.2922 10.4211 15.8841 10.4211C15.8841 9.83479 15.6489 9.27253 15.2304 8.85798C14.8118 8.44342 14.2441 8.21053 13.6522 8.21053ZM20.3479 8.21053C19.7559 8.21053 19.1882 8.44342 18.7697 8.85798C18.3511 9.27253 18.116 9.83479 18.116 10.4211C18.7079 10.4211 19.2756 10.1882 19.6942 9.77361C20.1127 9.35905 20.3479 8.7968 20.3479 8.21053Z" fill="white"/>
</g>
<defs>
<clipPath id="clip0_16_5027">
<rect width="33" height="33" fill="white"/>
</clipPath>
</defs>
</svg>
