<svg width="33" height="33" viewBox="0 0 33 33" fill="none" xmlns="http://www.w3.org/2000/svg">
<g clip-path="url(#clip0_16_5053)">
<circle cx="16.5" cy="16.5" r="16.5" fill="#4D4D70"/>
<path d="M6.72572 14.9058C6.62836 14.7741 6.55814 14.6244 6.51912 14.4654C6.4801 14.3063 6.47308 14.1411 6.49844 13.9793C6.52381 13.8176 6.58106 13.6624 6.66688 13.523C6.7527 13.3835 6.86537 13.2625 6.99835 13.1669C7.13134 13.0713 7.28198 13.0031 7.44154 12.9663C7.6011 12.9294 7.76638 12.9246 7.92781 12.9522C8.08923 12.9798 8.24357 13.0391 8.38186 13.1268C8.52015 13.2145 8.63965 13.3288 8.7334 13.4631C9.10922 13.986 9.68902 14.4855 10.4394 14.9182C12.0379 15.8404 14.2533 16.3819 16.6355 16.3819C19.019 16.3819 21.2344 15.8416 22.8329 14.9182C23.5833 14.4855 24.1631 13.986 24.5389 13.4631C24.6327 13.3288 24.7522 13.2145 24.8905 13.1268C25.0288 13.0391 25.1831 12.9798 25.3445 12.9522C25.5059 12.9246 25.6712 12.9294 25.8308 12.9663C25.9903 13.0031 26.141 13.0713 26.274 13.1669C26.407 13.2625 26.5196 13.3835 26.6054 13.523C26.6913 13.6624 26.7485 13.8176 26.7739 13.9793C26.7993 14.1411 26.7922 14.3063 26.7532 14.4654C26.7142 14.6244 26.644 14.7741 26.5466 14.9058C25.9532 15.7328 25.1076 16.4598 24.0692 17.0593C22.0763 18.2091 19.4357 18.8544 16.6355 18.8544C13.8354 18.8544 11.196 18.2091 9.20317 17.0593C8.16472 16.4598 7.31912 15.7328 6.72572 14.9058Z" fill="white"/>
<path d="M18.2378 18.2363C18.2378 17.9084 18.1075 17.5939 17.8757 17.3621C17.6438 17.1302 17.3294 17 17.0015 17C16.6736 17 16.3592 17.1302 16.1273 17.3621C15.8955 17.5939 15.7653 17.9084 15.7653 18.2363V21.3269C15.7653 21.6548 15.8955 21.9692 16.1273 22.2011C16.3592 22.4329 16.6736 22.5632 17.0015 22.5632C17.3294 22.5632 17.6438 22.4329 17.8757 22.2011C18.1075 21.9692 18.2378 21.6548 18.2378 21.3269V18.2363ZM11.4754 17.9371C11.5595 17.624 11.7631 17.3564 12.0425 17.1919C12.322 17.0275 12.6548 16.9795 12.9693 17.0581C13.2838 17.1367 13.5549 17.3358 13.7241 17.6123C13.8932 17.8889 13.947 18.2208 13.8738 18.5367L13.2557 21.0092C13.2172 21.1677 13.1477 21.317 13.0512 21.4485C12.9548 21.58 12.8332 21.6911 12.6937 21.7754C12.5541 21.8598 12.3992 21.9157 12.2379 21.9399C12.0766 21.9641 11.9121 21.9562 11.7539 21.9165C11.5957 21.8769 11.4469 21.8064 11.3161 21.709C11.1853 21.6116 11.075 21.4893 10.9917 21.3491C10.9083 21.2089 10.8536 21.0536 10.8305 20.8921C10.8074 20.7307 10.8166 20.5663 10.8573 20.4084L11.4754 17.9371ZM21.9094 17.9371C21.8254 17.624 21.6218 17.3564 21.3424 17.1919C21.0629 17.0275 20.7301 16.9795 20.4156 17.0581C20.1011 17.1367 19.83 17.3358 19.6608 17.6123C19.4916 17.8889 19.4379 18.2208 19.5111 18.5367L20.1292 21.0092C20.1677 21.1677 20.2372 21.317 20.3337 21.4485C20.4301 21.58 20.5516 21.6911 20.6912 21.7754C20.8308 21.8598 20.9857 21.9157 21.147 21.9399C21.3083 21.9641 21.4728 21.9562 21.631 21.9165C21.7892 21.8769 21.938 21.8064 22.0688 21.709C22.1996 21.6116 22.3099 21.4893 22.3932 21.3491C22.4765 21.2089 22.5313 21.0536 22.5544 20.8921C22.5774 20.7307 22.5683 20.5663 22.5276 20.4084L21.9094 17.9371ZM25.0681 14.8897C24.954 14.7716 24.8176 14.6775 24.6668 14.6127C24.516 14.5479 24.3538 14.5138 24.1896 14.5123C24.0255 14.5109 23.8627 14.5422 23.7107 14.6044C23.5588 14.6665 23.4208 14.7583 23.3047 14.8744C23.1886 14.9905 23.0968 15.1285 23.0347 15.2804C22.9725 15.4324 22.9412 15.5951 22.9426 15.7593C22.9441 15.9234 22.9782 16.0857 23.043 16.2365C23.1078 16.3873 23.2019 16.5237 23.32 16.6378L25.7925 19.1103C26.0257 19.3355 26.338 19.4601 26.6621 19.4573C26.9863 19.4545 27.2963 19.3244 27.5255 19.0952C27.7547 18.866 27.8848 18.556 27.8876 18.2318C27.8904 17.9077 27.7658 17.5954 27.5406 17.3622L25.0681 14.8897ZM8.44415 14.9317C8.55341 14.8116 8.68526 14.7142 8.83218 14.645C8.97909 14.5758 9.1382 14.5362 9.30041 14.5286C9.46262 14.5209 9.62475 14.5452 9.77755 14.6002C9.93036 14.6551 10.0708 14.7397 10.191 14.8489C10.3111 14.9582 10.4086 15.09 10.4777 15.2369C10.5469 15.3839 10.5865 15.543 10.5942 15.7052C10.6019 15.8674 10.5775 16.0295 10.5226 16.1823C10.4676 16.3351 10.3831 16.4756 10.2738 16.5957L8.02629 19.0683C7.80563 19.3109 7.49763 19.4559 7.17003 19.4715C6.84244 19.487 6.52209 19.3717 6.27946 19.1511C6.03683 18.9304 5.8918 18.6224 5.87627 18.2948C5.86073 17.9672 5.97597 17.6469 6.19663 17.4043L8.44415 14.9317Z" fill="white"/>
<path d="M6.23741 7.98398C6.01222 7.75082 5.88761 7.43854 5.89043 7.1144C5.89324 6.79026 6.02326 6.48019 6.25247 6.25098C6.48168 6.02176 6.79175 5.89175 7.11589 5.88893C7.44004 5.88612 7.75232 6.01072 7.98548 6.23592L27.7656 26.016C27.9908 26.2492 28.1154 26.5615 28.1126 26.8856C28.1097 27.2097 27.9797 27.5198 27.7505 27.749C27.5213 27.9782 27.2112 28.1083 26.8871 28.1111C26.563 28.1139 26.2507 27.9893 26.0175 27.7641L6.23741 7.98398Z" fill="white"/>
</g>
<defs>
<clipPath id="clip0_16_5053">
<rect width="33" height="33" fill="white"/>
</clipPath>
</defs>
</svg>
