<svg width="156" height="77" viewBox="0 0 156 77" fill="none" xmlns="http://www.w3.org/2000/svg">
<g filter="url(#filter0_d_8_4856)">
<path d="M122.463 12.5744C122.437 12.691 122.401 12.8063 122.389 12.9253C122.288 13.9389 122.192 14.9537 122.094 15.9673C122.092 15.9882 122.076 16.0066 122.05 16.0618C121.406 16.1121 120.74 16.0765 120.077 16.0827C119.397 16.0888 118.717 16.0839 118.037 16.0839H103.843C103.158 23.6907 102.481 31.2693 101.799 38.8909C101.942 38.9019 102.059 38.9166 102.175 38.9179C103.001 38.9203 103.825 38.9179 104.651 38.9179H119.742C119.602 40.3033 119.468 41.6347 119.331 42.9845H95.1697C95.9463 34.0266 96.7205 25.0945 97.4984 16.1232C97.3848 16.1084 97.292 16.0851 97.1992 16.0839C95.0024 16.0814 92.8056 16.0827 90.6088 16.0839C90.5319 16.0839 90.4549 16.0974 90.3304 16.1097C89.4072 25.0589 88.4975 34.0094 87.578 42.9477C87.3093 43.0189 80.7763 43.0336 80.3684 42.9624C80.4771 41.4752 80.664 39.9916 80.8056 38.5031C80.9473 37.0097 81.1097 35.5176 81.2635 34.0254C81.4174 32.5332 81.5713 31.0411 81.7251 29.5477C81.8778 28.0666 82.0316 26.5855 82.183 25.1043C82.3357 23.6122 82.4871 22.1188 82.6385 20.6266C82.7899 19.1357 82.9401 17.6448 83.0867 16.1943C83.05 16.1416 83.0451 16.1318 83.0378 16.1244C83.0293 16.117 83.0195 16.1084 83.0097 16.1072C82.9218 16.0974 82.8339 16.0827 82.746 16.0827C74.7732 16.0839 66.8005 16.0864 58.8278 16.09C58.796 16.09 58.7655 16.1097 58.6935 16.1342C57.9608 23.6944 57.2269 31.2681 56.4893 38.8835C56.6481 38.8958 56.7861 38.9142 56.9241 38.9142C59.8902 38.9154 62.8563 38.9154 65.8224 38.9154H66.2632C66.6821 34.904 67.0972 30.9233 67.51 26.9671C67.4734 26.9315 67.4648 26.9229 67.4563 26.9156C67.4477 26.9094 67.4392 26.9008 67.4294 26.8984C67.4074 26.8922 67.3854 26.8886 67.3635 26.8873C67.3305 26.8849 67.2963 26.8849 67.2633 26.8849C64.7881 26.8824 62.3129 26.8787 59.8377 26.8763C59.8279 26.8763 59.8169 26.8689 59.8071 26.8665C59.7534 26.61 60.0318 23.8429 60.1698 23.2502C60.4336 23.1839 74.6145 23.1766 74.9698 23.2502C74.3959 29.8201 73.8208 36.3949 73.2456 42.9857H48.8658C49.8159 32.6645 50.7647 22.3654 51.7135 12.0479C51.8173 12.032 51.9016 12.0124 51.987 12.0075C52.0872 12.0013 52.1873 12.005 52.2874 12.005C75.5035 12.005 98.7195 12.005 121.936 12.005C122.113 12.005 122.29 12.0234 122.467 12.032V12.5695L122.463 12.5744Z" fill="white"/>
<path d="M49.038 12.0405C44.4356 17.3293 39.8869 22.5568 35.3186 27.8076C38.6279 32.8559 41.9323 37.8944 45.2574 42.9648C45.1499 42.9832 45.0791 43.0065 45.0071 43.0065C42.2302 43.0077 39.4534 43.0053 36.6765 43.0138C36.458 43.0138 36.3615 42.9071 36.2552 42.7525C34.5713 40.2995 32.8752 37.8551 31.2083 35.3898C30.947 35.0033 30.6832 34.7972 30.2131 34.8708C29.9872 34.9064 29.7515 34.8769 29.4865 34.8769C29.202 37.5925 28.9199 40.2725 28.6391 42.9451C28.3778 43.0237 12.8646 43.0568 12.0965 42.9807C12.1795 42.8813 12.2406 42.7979 12.3114 42.723C13.9563 41.0174 15.6023 39.3129 17.2484 37.6072C18.428 36.385 19.6064 35.1604 20.7909 33.9419C20.9399 33.7885 21.0144 33.6253 21.0351 33.4118C21.2024 31.7515 21.3807 30.0937 21.5529 28.4334C21.697 27.0529 21.8374 25.6712 21.9791 24.2895C22.0279 23.8109 22.0572 23.3286 22.1341 22.8537C22.1818 22.5641 22.1158 22.342 21.9571 22.1052C20.4099 19.7749 18.8725 17.4398 17.3327 15.1058C16.7417 14.21 16.1482 13.3142 15.5572 12.4172C15.4851 12.308 15.4192 12.1939 15.3264 12.0417C15.4607 12.027 15.5535 12.0061 15.6475 12.0061C18.5355 12.0049 21.4235 12.0061 24.3114 12C24.5349 12 24.6533 12.0834 24.7571 12.27C25.0246 12.7485 25.3225 13.2099 25.5814 13.6922C25.7145 13.9413 25.8757 14.0296 26.159 14.0284C28.6684 14.0174 31.1766 14.0223 33.686 14.0223C35.0915 14.0223 36.4958 14.0161 37.9013 14.0284C38.1553 14.0309 38.3092 13.9499 38.4496 13.7413C38.7952 13.2332 39.1713 12.7449 39.523 12.2405C39.6353 12.0785 39.7587 12.0012 39.9614 12.0025C42.8713 12.0074 45.7825 12.0061 48.6924 12.0074C48.7779 12.0074 48.8646 12.0221 49.0355 12.0393L49.038 12.0405ZM29.4511 21.5211H29.8932C32.8703 21.5211 35.8462 21.5211 38.8233 21.5236C39.0077 21.5236 39.1615 21.5039 39.3032 21.3554C41.0579 19.5074 42.8188 17.6655 44.5772 15.8212C44.6261 15.7697 44.659 15.7034 44.7189 15.6151H23.9292C23.0073 24.4355 22.0865 33.2363 21.1634 42.0653H27.2702C27.5486 39.4123 27.827 36.7691 28.1067 34.1063H32.8312C33.6225 34.1063 34.4138 34.1063 35.2063 34.1063C35.9805 34.1063 36.7535 34.1075 37.5826 34.1051C37.4947 33.948 37.4458 33.8511 37.3884 33.7603C36.3016 32.0264 35.21 30.2949 34.1293 28.5573C34.001 28.3512 33.8582 28.2788 33.6188 28.28C32.1254 28.2898 30.6307 28.2849 29.1373 28.2849H28.7453C28.9822 26.0123 29.2155 23.79 29.4524 21.5223L29.4511 21.5211Z" fill="white"/>
</g>
<path d="M15.9064 49.0464H14.4056V52.9179H13.5008V49.0464H12V48.2512H15.9052V49.0464H15.9064Z" fill="#B28556"/>
<path d="M16.6525 52.9191V48.2512H18.7272C18.9433 48.2512 19.1423 48.2966 19.3255 48.3862C19.5087 48.4758 19.6662 48.5948 19.7981 48.7408C19.93 48.8881 20.0338 49.0537 20.1083 49.2403C20.1827 49.4268 20.2206 49.6145 20.2206 49.8023C20.2206 50.1041 20.1449 50.3802 19.9922 50.6269C19.8408 50.8748 19.6345 51.0527 19.3744 51.1631L20.4453 52.9179H19.4208L18.4622 51.3533H17.5634V52.9179H16.6512L16.6525 52.9191ZM17.5646 50.5582H18.7076C18.7907 50.5582 18.87 50.5385 18.9421 50.4993C19.0153 50.46 19.0776 50.406 19.1301 50.3385C19.1826 50.271 19.2254 50.19 19.2559 50.098C19.2864 50.006 19.3023 49.9078 19.3023 49.8023C19.3023 49.6968 19.284 49.5924 19.2498 49.5004C19.2144 49.4084 19.1668 49.3286 19.1082 49.2599C19.0483 49.1924 18.9799 49.1396 18.903 49.1016C18.8261 49.0648 18.7479 49.0452 18.6685 49.0452H17.5646V50.5569V50.5582Z" fill="#B28556"/>
<path d="M23.1953 52.1497C23.4114 52.1497 23.5934 52.1056 23.7399 52.0184C23.8877 51.9313 24.0061 51.8172 24.0965 51.6761C24.1868 51.5362 24.2503 51.3742 24.2882 51.1926C24.3261 51.011 24.3444 50.8232 24.3444 50.6306V48.2512H25.2492V50.6306C25.2492 50.9509 25.2101 51.2503 25.1332 51.5313C25.0563 51.8123 24.9354 52.0577 24.7693 52.2675C24.6045 52.4774 24.392 52.6443 24.1319 52.767C23.8718 52.8897 23.5616 52.951 23.2002 52.951C22.8387 52.951 22.5078 52.886 22.2453 52.7571C21.9827 52.6283 21.7702 52.4565 21.6078 52.2442C21.4442 52.0319 21.327 51.7853 21.2537 51.5043C21.1804 51.2233 21.145 50.9324 21.145 50.6306V48.2512H22.0572V50.6306C22.0572 50.8281 22.0755 51.0171 22.1134 51.1987C22.1512 51.3803 22.2147 51.5411 22.3051 51.6822C22.3955 51.8221 22.5127 51.935 22.6592 52.0209C22.8045 52.1068 22.9828 52.1485 23.1941 52.1485L23.1953 52.1497Z" fill="#B28556"/>
<path d="M29.1299 49.4732C29.0994 49.4426 29.0432 49.4008 28.9614 49.3481C28.8796 49.2953 28.7807 49.2438 28.6635 49.1935C28.5462 49.1431 28.4205 49.1002 28.2837 49.0658C28.1469 49.0303 28.0077 49.0131 27.8673 49.0131C27.6157 49.0131 27.4289 49.0585 27.3056 49.1505C27.1822 49.2425 27.12 49.3714 27.12 49.5383C27.12 49.6352 27.1432 49.715 27.1896 49.7788C27.236 49.8426 27.3031 49.8978 27.391 49.9469C27.479 49.9948 27.5901 50.0389 27.7244 50.0782C27.8587 50.1175 28.0138 50.1592 28.1909 50.2034C28.4205 50.2647 28.628 50.331 28.8149 50.4009C29.0017 50.4709 29.1605 50.5592 29.2911 50.6635C29.4206 50.7691 29.5219 50.8942 29.5915 51.0415C29.6623 51.1887 29.6978 51.3691 29.6978 51.5839C29.6978 51.8342 29.6501 52.0477 29.5561 52.2244C29.4609 52.4023 29.3339 52.5459 29.1727 52.6551C29.0115 52.7643 28.8271 52.8441 28.6171 52.8944C28.4082 52.9447 28.1884 52.9705 27.9601 52.9705C27.6072 52.9705 27.2592 52.9177 26.916 52.8122C26.5729 52.7067 26.2639 52.5582 25.9904 52.3655L26.3934 51.5839C26.4325 51.6231 26.5045 51.6747 26.6083 51.7385C26.7121 51.8023 26.8342 51.8661 26.9746 51.9287C27.1151 51.9925 27.2726 52.0465 27.4436 52.0894C27.6157 52.1336 27.7916 52.1557 27.9723 52.1557C28.4742 52.1557 28.7257 51.9962 28.7257 51.6759C28.7257 51.5753 28.6964 51.4894 28.6403 51.4194C28.5829 51.3495 28.5011 51.2881 28.396 51.2354C28.2898 51.1826 28.1628 51.1347 28.0126 51.0906C27.8624 51.0464 27.6951 50.9985 27.5107 50.9458C27.286 50.8844 27.0907 50.8181 26.9258 50.7457C26.7609 50.6733 26.623 50.5874 26.5131 50.4893C26.4032 50.3911 26.3201 50.277 26.2652 50.1469C26.2102 50.0181 26.1821 49.8635 26.1821 49.6831C26.1821 49.4462 26.2261 49.2364 26.314 49.0523C26.4019 48.8683 26.524 48.7149 26.6804 48.5922C26.8367 48.4695 27.0186 48.3762 27.225 48.3124C27.4326 48.2486 27.6548 48.2167 27.8929 48.2167C28.2239 48.2167 28.5279 48.2682 28.8051 48.3713C29.0823 48.4744 29.3253 48.5959 29.5317 48.7357L29.1287 49.472L29.1299 49.4732Z" fill="#B28556"/>
<path d="M34.0266 49.0464H32.5259V52.9179H31.621V49.0464H30.1202V48.2512H34.0254V49.0464H34.0266Z" fill="#B28556"/>
<path d="M38.0307 52.1226V52.9178H34.7728V48.2499H37.9709V49.045H35.6849V50.1691H37.6607V50.9053H35.6849V52.1214H38.0307V52.1226Z" fill="#B28556"/>
<path d="M38.9099 52.9191V48.2512H40.6146C40.998 48.2512 41.3338 48.3126 41.622 48.4353C41.9102 48.558 42.152 48.7249 42.3462 48.9347C42.5403 49.1446 42.6856 49.3912 42.7821 49.6747C42.8786 49.9569 42.9274 50.2588 42.9274 50.579C42.9274 50.9337 42.8737 51.2552 42.765 51.5423C42.6575 51.8295 42.5012 52.0749 42.2985 52.2786C42.0958 52.4823 41.8528 52.6406 41.5683 52.7522C41.2838 52.8639 40.9663 52.9204 40.6134 52.9204H38.9087L38.9099 52.9191ZM42.0091 50.5778C42.0091 50.3545 41.9786 50.1483 41.9163 49.9593C41.854 49.7704 41.7637 49.6084 41.6452 49.4734C41.5268 49.3372 41.3802 49.2329 41.2056 49.1581C41.031 49.0832 40.8344 49.0464 40.6146 49.0464H39.8221V52.1227H40.6146C40.8393 52.1227 41.0383 52.0835 41.213 52.0037C41.3864 51.9252 41.5329 51.816 41.6489 51.6785C41.7661 51.5411 41.8553 51.3779 41.9163 51.1889C41.9774 51.0012 42.0091 50.7975 42.0091 50.5778Z" fill="#B28556"/>
<path d="M45.5908 53.7731V47.8241H46.3442V53.7731H45.5908Z" fill="#B28556"/>
<path d="M49.2724 52.9191V48.2512H51.3471C51.5632 48.2512 51.7623 48.2966 51.9454 48.3862C52.1286 48.4758 52.2861 48.5948 52.418 48.7408C52.5499 48.8881 52.6537 49.0537 52.7282 49.2403C52.8027 49.4268 52.8405 49.6145 52.8405 49.8023C52.8405 50.1041 52.7648 50.3802 52.6122 50.6269C52.4608 50.8748 52.2544 51.0527 51.9943 51.1631L53.0652 52.9179H52.0407L51.0821 51.3533H50.1834V52.9179H49.2712L49.2724 52.9191ZM50.1834 50.5582H51.3263C51.4094 50.5582 51.4887 50.5385 51.5608 50.4993C51.6341 50.46 51.6963 50.406 51.7488 50.3385C51.8013 50.271 51.8441 50.19 51.8746 50.098C51.9051 50.006 51.921 49.9078 51.921 49.8023C51.921 49.6968 51.9027 49.5924 51.8685 49.5004C51.8331 49.4084 51.7855 49.3286 51.7269 49.2599C51.667 49.1924 51.5986 49.1396 51.5217 49.1016C51.4448 49.0648 51.3666 49.0452 51.2873 49.0452H50.1834V50.5569V50.5582Z" fill="#B28556"/>
<path d="M57.0901 52.1226V52.9178H53.8321V48.2499H57.0302V49.045H54.7443V50.1691H56.72V50.9053H54.7443V52.1214H57.0901V52.1226Z" fill="#B28556"/>
<path d="M61.1271 52.3926C60.7522 52.7657 60.3162 52.951 59.818 52.951C59.5091 52.951 59.2197 52.8896 58.9486 52.7669C58.6775 52.6442 58.4418 52.4761 58.2416 52.2613C58.0413 52.0466 57.8825 51.7938 57.7653 51.5018C57.6481 51.2109 57.5907 50.8956 57.5907 50.5581C57.5907 50.2378 57.6493 49.9372 57.7653 49.6537C57.8813 49.3715 58.0425 49.1236 58.2477 48.9113C58.4528 48.699 58.6934 48.5297 58.9718 48.4058C59.249 48.2806 59.5506 48.218 59.8766 48.218C60.3175 48.218 60.6948 48.3101 61.0098 48.4941C61.3249 48.6782 61.5618 48.9261 61.7205 49.2365L61.0404 49.7359C60.9219 49.504 60.7546 49.3261 60.5409 49.2034C60.3272 49.0807 60.0952 49.0193 59.8437 49.0193C59.6459 49.0193 59.4639 49.061 59.2991 49.1445C59.1342 49.2279 58.9926 49.342 58.8765 49.4868C58.7593 49.6316 58.669 49.7985 58.6055 49.9863C58.542 50.1753 58.5102 50.374 58.5102 50.5839C58.5102 50.7937 58.5456 51.0072 58.6164 51.1987C58.6873 51.3889 58.7837 51.5545 58.9071 51.6956C59.0304 51.8355 59.1769 51.946 59.3467 52.0269C59.5164 52.1079 59.7008 52.1484 59.8986 52.1484C60.3529 52.1484 60.762 51.9361 61.1283 51.5103V51.1815H60.1831V50.5176H61.8817V52.9166H61.1283V52.3902L61.1271 52.3926Z" fill="#B28556"/>
<path d="M64.8088 52.1497C65.025 52.1497 65.2069 52.1056 65.3534 52.0184C65.5012 51.9313 65.6196 51.8172 65.71 51.6761C65.8004 51.5362 65.8639 51.3742 65.9017 51.1926C65.9396 51.011 65.9579 50.8232 65.9579 50.6306V48.2512H66.8627V50.6306C66.8627 50.9509 66.8237 51.2503 66.7467 51.5313C66.6698 51.8123 66.5489 52.0577 66.3828 52.2675C66.218 52.4774 66.0055 52.6443 65.7454 52.767C65.4853 52.8897 65.1752 52.951 64.8137 52.951C64.4522 52.951 64.1213 52.886 63.8588 52.7571C63.5962 52.6283 63.3838 52.4565 63.2213 52.2442C63.0577 52.0319 62.9405 51.7853 62.8672 51.5043C62.794 51.2233 62.7585 50.9324 62.7585 50.6306V48.2512H63.6707V50.6306C63.6707 50.8281 63.689 51.0171 63.7269 51.1987C63.7648 51.3803 63.8283 51.5411 63.9186 51.6822C64.009 51.8221 64.1262 51.935 64.2727 52.0209C64.4181 52.1068 64.5963 52.1485 64.8076 52.1485L64.8088 52.1497Z" fill="#B28556"/>
<path d="M67.9471 52.9191V48.2512H68.8593V52.1227H71.2514V52.9179H67.9471V52.9191Z" fill="#B28556"/>
<path d="M73.3066 48.2512H74.1125L75.8966 52.9191H74.9588L74.5228 51.7558H72.8841L72.4542 52.9191H71.5164L73.3078 48.2512H73.3066ZM74.358 51.1177L73.7108 49.2832L73.0367 51.1177H74.358Z" fill="#B28556"/>
<path d="M79.6247 49.0464H78.1252V52.9179H77.2203V49.0464H75.7208V48.2512H79.6259V49.0464H79.6247Z" fill="#B28556"/>
<path d="M83.6288 52.1226V52.9178H80.3708V48.2499H83.569V49.045H81.283V50.1691H83.2588V50.9053H81.283V52.1214H83.6288V52.1226Z" fill="#B28556"/>
<path d="M84.508 52.9191V48.2512H86.2127C86.5961 48.2512 86.9319 48.3126 87.2201 48.4353C87.5083 48.558 87.7501 48.7249 87.9442 48.9347C88.1384 49.1446 88.2837 49.3912 88.3802 49.6747C88.4767 49.9569 88.5255 50.2588 88.5255 50.579C88.5255 50.9337 88.4718 51.2552 88.3631 51.5423C88.2556 51.8295 88.0993 52.0749 87.8966 52.2786C87.6939 52.4823 87.4509 52.6406 87.1664 52.7522C86.8819 52.8639 86.5644 52.9204 86.2115 52.9204H84.5068L84.508 52.9191ZM87.6072 50.5778C87.6072 50.3545 87.5767 50.1483 87.5144 49.9593C87.4521 49.7704 87.3618 49.6084 87.2433 49.4734C87.1249 49.3372 86.9783 49.2329 86.8037 49.1581C86.6291 49.0832 86.4325 49.0464 86.2127 49.0464H85.4202V52.1227H86.2127C86.4374 52.1227 86.6364 52.0835 86.811 52.0037C86.9844 51.9252 87.131 51.816 87.247 51.6785C87.3642 51.5411 87.4533 51.3779 87.5144 51.1889C87.5755 51.0012 87.6072 50.7975 87.6072 50.5778Z" fill="#B28556"/>
<path d="M91.1887 53.7731V47.8241H91.9422V53.7731H91.1887Z" fill="#B28556"/>
<path d="M98.1272 52.3926C97.7523 52.7657 97.3164 52.951 96.8181 52.951C96.5092 52.951 96.2198 52.8896 95.9487 52.7669C95.6776 52.6442 95.4419 52.4761 95.2417 52.2613C95.0414 52.0466 94.8827 51.7938 94.7654 51.5018C94.6482 51.2109 94.5908 50.8956 94.5908 50.5581C94.5908 50.2378 94.6494 49.9372 94.7654 49.6537C94.8814 49.3715 95.0426 49.1236 95.2478 48.9113C95.4529 48.699 95.6935 48.5297 95.9719 48.4058C96.2491 48.2806 96.5507 48.218 96.8768 48.218C97.3176 48.218 97.6949 48.3101 98.01 48.4941C98.325 48.6782 98.5619 48.9261 98.7207 49.2365L98.0405 49.7359C97.922 49.504 97.7547 49.3261 97.5411 49.2034C97.3274 49.0807 97.0953 49.0193 96.8438 49.0193C96.646 49.0193 96.464 49.061 96.2992 49.1445C96.1343 49.2279 95.9927 49.342 95.8767 49.4868C95.7594 49.6316 95.6691 49.7985 95.6056 49.9863C95.5421 50.1753 95.5103 50.374 95.5103 50.5839C95.5103 50.7937 95.5457 51.0072 95.6166 51.1987C95.6874 51.3889 95.7839 51.5545 95.9072 51.6956C96.0305 51.8355 96.1771 51.946 96.3468 52.0269C96.5165 52.1079 96.7009 52.1484 96.8987 52.1484C97.353 52.1484 97.7621 51.9361 98.1284 51.5103V51.1815H97.1833V50.5176H98.8819V52.9166H98.1284V52.3902L98.1272 52.3926Z" fill="#B28556"/>
<path d="M99.8258 52.9191V48.2512H100.738V52.1227H103.13V52.9179H99.8258V52.9191Z" fill="#B28556"/>
<path d="M105.555 52.951C105.212 52.951 104.9 52.8847 104.62 52.7509C104.34 52.6172 104.1 52.4393 103.899 52.2184C103.699 51.9975 103.544 51.7435 103.433 51.4588C103.323 51.1741 103.268 50.8821 103.268 50.5851C103.268 50.2881 103.327 49.9765 103.443 49.6905C103.56 49.4059 103.72 49.1543 103.925 48.9346C104.13 48.7162 104.373 48.542 104.655 48.4119C104.937 48.2831 105.244 48.218 105.574 48.218C105.903 48.218 106.222 48.2867 106.502 48.4254C106.781 48.5628 107.021 48.7444 107.218 48.9678C107.416 49.1911 107.571 49.4451 107.681 49.7298C107.791 50.0145 107.846 50.3041 107.846 50.5974C107.846 50.9091 107.789 51.206 107.674 51.4883C107.559 51.7705 107.4 52.0208 107.198 52.238C106.995 52.4552 106.753 52.6282 106.471 52.7571C106.189 52.8859 105.883 52.951 105.553 52.951H105.555ZM104.194 50.5851C104.194 50.7863 104.224 50.9815 104.287 51.1704C104.348 51.3594 104.437 51.5251 104.554 51.6699C104.671 51.8147 104.814 51.93 104.984 52.0184C105.154 52.1055 105.346 52.1497 105.563 52.1497C105.779 52.1497 105.978 52.1043 106.148 52.0147C106.317 51.9251 106.46 51.8061 106.577 51.6564C106.695 51.5079 106.783 51.3398 106.842 51.1532C106.902 50.9667 106.932 50.7778 106.932 50.5851C106.932 50.3924 106.9 50.1887 106.836 49.9998C106.773 49.8108 106.682 49.6451 106.565 49.5003C106.448 49.3555 106.305 49.2402 106.135 49.1555C105.966 49.0696 105.775 49.0279 105.564 49.0279C105.353 49.0279 105.147 49.0733 104.975 49.1629C104.803 49.2525 104.66 49.3715 104.545 49.5175C104.431 49.6648 104.344 49.8304 104.284 50.017C104.224 50.2035 104.195 50.3924 104.195 50.5851H104.194Z" fill="#B28556"/>
<path d="M112.494 51.7152C112.494 51.9128 112.455 52.0858 112.375 52.2343C112.296 52.3828 112.187 52.5079 112.048 52.6086C111.909 52.7092 111.749 52.7865 111.566 52.8393C111.383 52.892 111.188 52.9178 110.981 52.9178H108.714V48.2499H111.226C111.389 48.2499 111.536 48.2855 111.669 48.3554C111.801 48.4254 111.914 48.5162 112.007 48.6278C112.099 48.7395 112.17 48.8671 112.221 49.0095C112.273 49.1518 112.297 49.2954 112.297 49.4402C112.297 49.6684 112.24 49.8819 112.125 50.0807C112.01 50.2807 111.843 50.428 111.623 50.5249C111.892 50.6035 112.104 50.7446 112.261 50.9495C112.417 51.1532 112.495 51.4084 112.495 51.7152H112.494ZM109.627 49.0266V50.2034H110.843C110.997 50.2034 111.129 50.1507 111.236 50.0451C111.343 49.9396 111.398 49.7948 111.398 49.6107C111.398 49.4267 111.348 49.288 111.249 49.1837C111.15 49.0782 111.028 49.0254 110.883 49.0254H109.628L109.627 49.0266ZM111.575 51.5446C111.575 51.4612 111.561 51.3814 111.533 51.3041C111.505 51.2281 111.466 51.1606 111.417 51.1041C111.368 51.0477 111.31 51.0023 111.245 50.9691C111.179 50.936 111.105 50.9201 111.026 50.9201H109.625V52.1496H110.98C111.063 52.1496 111.142 52.1349 111.214 52.103C111.287 52.0723 111.35 52.0294 111.402 51.9754C111.455 51.9201 111.497 51.8563 111.528 51.7815C111.558 51.7066 111.574 51.6281 111.574 51.5446H111.575Z" fill="#B28556"/>
<path d="M114.609 48.2512H115.415L117.199 52.9191H116.26L115.824 51.7558H114.185L113.755 52.9191H112.817L114.609 48.2512ZM115.66 51.1177L115.013 49.2832L114.339 51.1177H115.66Z" fill="#B28556"/>
<path d="M117.88 52.9191V48.2512H118.792V52.1227H121.184V52.9179H117.88V52.9191Z" fill="#B28556"/>
<defs>
<filter id="filter0_d_8_4856" x="0.957" y="0.860503" width="154.928" height="75.5817" filterUnits="userSpaceOnUse" color-interpolation-filters="sRGB">
<feFlood flood-opacity="0" result="BackgroundImageFix"/>
<feColorMatrix in="SourceAlpha" type="matrix" values="0 0 0 0 0 0 0 0 0 0 0 0 0 0 0 0 0 0 127 0" result="hardAlpha"/>
<feOffset dx="11.1395" dy="11.1395"/>
<feGaussianBlur stdDeviation="11.1395"/>
<feColorMatrix type="matrix" values="0 0 0 0 0 0 0 0 0 0 0 0 0 0 0 0 0 0 0.3 0"/>
<feBlend mode="normal" in2="BackgroundImageFix" result="effect1_dropShadow_8_4856"/>
<feBlend mode="normal" in="SourceGraphic" in2="effect1_dropShadow_8_4856" result="shape"/>
</filter>
</defs>
</svg>
