<?xml version="1.0" encoding="UTF-8"?>
<svg id="Layer_1" data-name="Layer 1" xmlns="http://www.w3.org/2000/svg" xmlns:xlink="http://www.w3.org/1999/xlink" viewBox="0 0 75 75">
  <defs>
    <style>
      .cls-1 {
        fill: url(#linear-gradient-2);
      }

      .cls-2 {
        fill: #fff;
      }

      .cls-3 {
        fill: url(#linear-gradient-4);
      }

      .cls-4 {
        fill: url(#linear-gradient-3);
      }

      .cls-5 {
        opacity: .2;
      }

      .cls-6 {
        fill: url(#linear-gradient);
      }
    </style>
    <linearGradient id="linear-gradient" x1="16.28" y1="16.28" x2="58.72" y2="58.72" gradientTransform="translate(15.74 -10.86) rotate(20.77)" gradientUnits="userSpaceOnUse">
      <stop offset="0" stop-color="#fff"/>
      <stop offset="1" stop-color="#d1d3d4"/>
    </linearGradient>
    <linearGradient id="linear-gradient-2" x1="57.54" y1="57.54" x2="17.46" y2="17.46" gradientTransform="translate(37.5 -15.53) rotate(45)" xlink:href="#linear-gradient"/>
    <linearGradient id="linear-gradient-3" x1="29.05" y1="26.11" x2="52.81" y2="58.13" gradientUnits="userSpaceOnUse">
      <stop offset="0" stop-color="#d4145a"/>
      <stop offset="1" stop-color="#93278f"/>
    </linearGradient>
    <linearGradient id="linear-gradient-4" x1="29.05" y1="26.11" x2="52.81" y2="58.13" xlink:href="#linear-gradient-3"/>
  </defs>
  <g class="cls-5">
    <circle cx="37.5" cy="37.5" r="30.02" transform="translate(-.41 .42) rotate(-.63)"/>
  </g>
  <g>
    <circle class="cls-6" cx="37.5" cy="37.5" r="30.02" transform="translate(-10.86 15.74) rotate(-20.77)"/>
    <circle class="cls-1" cx="37.5" cy="37.5" r="28.35" transform="translate(-15.53 37.5) rotate(-45)"/>
  </g>
  <g>
    <g>
      <path class="cls-4" d="M52.86,33.1v-1.59h-2.54v-2.18c0-2.56-2.08-4.65-4.65-4.65h-2.18v-2.54h-1.59v2.54h-3.61v-2.54h-1.59v2.54h-3.6v-2.54h-1.59v2.54h-2.18c-2.56,0-4.65,2.08-4.65,4.65v2.18h-2.54v1.59h2.54v3.6h-2.54v1.59h2.54v3.61h-2.54v1.59h2.54v2.18c0,2.56,2.08,4.65,4.65,4.65h2.18v2.54h1.59v-2.54h3.6v2.54h1.59v-2.54h3.61v2.54h1.59v-2.54h2.18c2.56,0,4.65-2.08,4.65-4.65v-2.18h2.54v-1.59h-2.54v-3.61h2.54v-1.59h-2.54v-3.6h2.54ZM48.77,45.68c0,1.7-1.39,3.09-3.09,3.09h-16.36c-1.7,0-3.09-1.39-3.09-3.09v-16.36c0-1.7,1.39-3.09,3.09-3.09h16.36c1.7,0,3.09,1.39,3.09,3.09v16.36Z"/>
      <rect class="cls-3" x="27.79" y="27.79" width="19.42" height="19.42" rx="1.53" ry="1.53"/>
    </g>
    <g>
      <rect class="cls-2" x="41.91" y="32.54" width="1.93" height="9.92"/>
      <path class="cls-2" d="M34.61,32.54l-3.74,9.92h2.17l.82-2.38h3.76l.8,2.38h2.17l-3.68-9.92h-2.31ZM34.48,38.3l1.29-3.65,1.26,3.65h-2.54Z"/>
    </g>
  </g>
</svg>