<?xml version="1.0" encoding="UTF-8"?>
<svg id="Layer_1" data-name="Layer 1" xmlns="http://www.w3.org/2000/svg" xmlns:xlink="http://www.w3.org/1999/xlink" viewBox="0 0 75 75">
  <defs>
    <style>
      .cls-1 {
        fill: url(#linear-gradient-2);
      }

      .cls-2 {
        fill: url(#linear-gradient-4);
      }

      .cls-3 {
        fill: url(#linear-gradient-3);
      }

      .cls-4 {
        opacity: .2;
      }

      .cls-5 {
        fill: url(#linear-gradient);
      }
    </style>
    <linearGradient id="linear-gradient" x1="16.23" y1="16.28" x2="58.67" y2="58.72" gradientUnits="userSpaceOnUse">
      <stop offset="0" stop-color="#fff"/>
      <stop offset="1" stop-color="#d1d3d4"/>
    </linearGradient>
    <linearGradient id="linear-gradient-2" x1="57.49" y1="57.54" x2="17.4" y2="17.46" gradientTransform="translate(65.57 -7.42) rotate(77)" xlink:href="#linear-gradient"/>
    <linearGradient id="linear-gradient-3" x1="30.93" y1="38.57" x2="47.7" y2="55.34" gradientUnits="userSpaceOnUse">
      <stop offset="0" stop-color="#29abe2"/>
      <stop offset="1" stop-color="#004f37"/>
    </linearGradient>
    <linearGradient id="linear-gradient-4" x1="36.79" y1="27.74" x2="42.34" y2="33.3" xlink:href="#linear-gradient-3"/>
  </defs>
  <g class="cls-4">
    <circle cx="37.55" cy="37.5" r="30.02" transform="translate(-6.35 7.68) rotate(-10.77)"/>
  </g>
  <g>
    <circle class="cls-5" cx="37.45" cy="37.5" r="30.02"/>
    <circle class="cls-1" cx="37.45" cy="37.5" r="28.35" transform="translate(-7.51 65.56) rotate(-77)"/>
  </g>
  <g>
    <polygon class="cls-3" points="47.98 49.53 47.98 35.12 42.75 35.12 42.75 49.53 40.06 49.53 40.06 38.93 34.84 38.93 34.84 49.53 32.15 49.53 32.15 42.59 26.92 42.59 26.92 49.53 24.31 49.53 24.31 52.44 50.59 52.44 50.59 49.53 47.98 49.53"/>
    <polygon class="cls-2" points="49.83 21.43 44.83 23.29 46.31 24.52 37.51 34.17 34.94 30.5 27.16 37.36 27.95 38.26 34.73 32.28 37.39 36.08 47.23 25.28 48.95 26.69 49.83 21.43"/>
  </g>
</svg>