<svg width="20" height="20" viewBox="0 0 20 20" fill="none" xmlns="http://www.w3.org/2000/svg">
<path d="M14.1666 7.49999H7.49992V5.83333C7.4987 5.33848 7.64437 4.85441 7.91847 4.44241C8.19257 4.03042 8.58277 3.70903 9.03965 3.51896C9.49654 3.32889 9.99955 3.27868 10.485 3.3747C10.9704 3.47072 11.4165 3.70864 11.7666 4.05833C12.0793 4.37885 12.3032 4.77514 12.4166 5.20833C12.4439 5.31448 12.4919 5.4142 12.5578 5.50181C12.6237 5.58941 12.7062 5.66317 12.8007 5.71889C12.8951 5.7746 12.9995 5.81118 13.1081 5.82652C13.2166 5.84187 13.3271 5.83569 13.4333 5.80833C13.5394 5.78097 13.6391 5.73297 13.7267 5.66707C13.8143 5.60117 13.8881 5.51867 13.9438 5.42426C13.9995 5.32985 14.0361 5.2254 14.0514 5.11686C14.0668 5.00831 14.0606 4.89781 14.0333 4.79166C13.843 4.07081 13.4666 3.41268 12.9416 2.88333C12.3584 2.30197 11.616 1.90644 10.8082 1.7467C10.0004 1.58695 9.16337 1.67015 8.4028 1.98579C7.64224 2.30143 6.99225 2.83535 6.53492 3.52014C6.07759 4.20493 5.83343 5.00987 5.83325 5.83333V7.49999C5.17021 7.49999 4.53433 7.76339 4.06549 8.23223C3.59664 8.70107 3.33325 9.33695 3.33325 9.99999V15.8333C3.33325 16.4964 3.59664 17.1323 4.06549 17.6011C4.53433 18.0699 5.17021 18.3333 5.83325 18.3333H14.1666C14.8296 18.3333 15.4655 18.0699 15.9344 17.6011C16.4032 17.1323 16.6666 16.4964 16.6666 15.8333V9.99999C16.6666 9.33695 16.4032 8.70107 15.9344 8.23223C15.4655 7.76339 14.8296 7.49999 14.1666 7.49999ZM14.9999 15.8333C14.9999 16.0543 14.9121 16.2663 14.7558 16.4226C14.5996 16.5789 14.3876 16.6667 14.1666 16.6667H5.83325C5.61224 16.6667 5.40028 16.5789 5.244 16.4226C5.08772 16.2663 4.99992 16.0543 4.99992 15.8333V9.99999C4.99992 9.77898 5.08772 9.56702 5.244 9.41074C5.40028 9.25446 5.61224 9.16666 5.83325 9.16666H14.1666C14.3876 9.16666 14.5996 9.25446 14.7558 9.41074C14.9121 9.56702 14.9999 9.77898 14.9999 9.99999V15.8333Z" fill="white"/>
</svg>
