<svg width="1448" height="300" viewBox="0 0 1448 300" fill="none" xmlns="http://www.w3.org/2000/svg">
<g opacity="0.2">
<path d="M12.2205 116.8H-0.1875V149.422H12.2205V116.8Z" fill="#B48755"/>
<path d="M7.73478 103.011H4.31641V116.8H7.73478V103.011Z" fill="#B48755"/>
<path d="M104.271 103.734H91.8633V151.082H104.271V103.734Z" fill="#B48755"/>
<path d="M99.769 151.066H96.3506V183.277H99.769V151.066Z" fill="#B48755"/>
<path d="M398.827 196.836H386.419V258.893H398.827V196.836Z" fill="#B48755"/>
<path d="M394.324 258.909H390.905V276.379H394.324V258.909Z" fill="#B48755"/>
<path d="M454.047 200.994H441.639V233.616H454.047V200.994Z" fill="#B48755"/>
<path d="M449.56 183.507H446.142V200.977H449.56V183.507Z" fill="#B48755"/>
<path d="M306.777 253.141H294.369V278.417H306.777V253.141Z" fill="#B48755"/>
<path d="M302.274 243.033H298.855V253.141H302.274V243.033Z" fill="#B48755"/>
<path d="M49.035 132.659H36.627V165.282H49.035V132.659Z" fill="#B48755"/>
<path d="M44.5492 118.87H41.1309V132.659H44.5492V118.87Z" fill="#B48755"/>
<path d="M44.5492 165.298H41.1309V177.246H44.5492V165.298Z" fill="#B48755"/>
<path d="M343.59 255.458H331.182V277.036H343.59V255.458Z" fill="#B48755"/>
<path d="M339.104 249.048H335.686V255.458H339.104V249.048Z" fill="#B48755"/>
<path d="M339.104 277.053H335.686V289.001H339.104V277.053Z" fill="#B48755"/>
<path d="M380.404 260.733H367.996V282.295H380.404V260.733Z" fill="#B48755"/>
<path d="M375.916 243.263H372.498V260.733H375.916V243.263Z" fill="#B48755"/>
<path d="M375.916 282.312H372.498V294.26H375.916V282.312Z" fill="#B48755"/>
<path d="M490.877 206.072H478.469V216.607H490.877V206.072Z" fill="#B48755"/>
<path d="M486.373 192.284H482.955V206.072H486.373V192.284Z" fill="#B48755"/>
<path d="M486.373 216.607H482.955V228.555H486.373V216.607Z" fill="#B48755"/>
<path d="M67.4412 118.871H55.0332V133.086H67.4412V118.871Z" fill="#B48755"/>
<path d="M62.9555 97.7194H59.5371V118.871H62.9555V97.7194Z" fill="#B48755"/>
<path d="M62.9555 133.086H59.5371V170.787H62.9555V133.086Z" fill="#B48755"/>
<path d="M233.134 234.8H220.726V249.015H233.134V234.8Z" fill="#B48755"/>
<path d="M228.648 249.015H225.229V270.183H228.648V249.015Z" fill="#B48755"/>
<path d="M228.648 197.099H225.229V234.8H228.648V197.099Z" fill="#B48755"/>
<path d="M159.508 126.431H147.1V181.141H159.508V126.431Z" fill="#4D4D70"/>
<path d="M155.005 112.658H151.587V126.447H155.005V112.658Z" fill="#4D4D70"/>
<path d="M155.005 181.157H151.587V196.77H155.005V181.157Z" fill="#4D4D70"/>
<path d="M141.084 112.675H128.676V123.209H141.084V112.675Z" fill="#4D4D70"/>
<path d="M136.598 98.9027H133.18V112.691H136.598V98.9027Z" fill="#4D4D70"/>
<path d="M136.598 123.226H133.18V138.855H136.598V123.226Z" fill="#4D4D70"/>
<path d="M288.371 239.845H275.963V279.83H288.371V239.845Z" fill="#4D4D70"/>
<path d="M283.867 229.738H280.448V239.845H283.867V229.738Z" fill="#4D4D70"/>
<path d="M283.867 279.83H280.448V288.097H283.867V279.83Z" fill="#4D4D70"/>
<path d="M361.997 251.103H349.589V280.044H361.997V251.103Z" fill="#4D4D70"/>
<path d="M357.51 244.677H354.092V251.103H357.51V244.677Z" fill="#4D4D70"/>
<path d="M357.51 280.044H354.092V299.338H357.51V280.044Z" fill="#4D4D70"/>
<path d="M417.234 195.044H404.826V231.348H417.234V195.044Z" fill="#4D4D70"/>
<path d="M412.748 188.619H409.329V195.044H412.748V188.619Z" fill="#4D4D70"/>
<path d="M412.748 231.348H409.329V272.73H412.748V231.348Z" fill="#4D4D70"/>
<path d="M435.641 223.279H423.233V241.193H435.641V223.279Z" fill="#4D4D70"/>
<path d="M431.138 216.853H427.72V223.279H431.138V216.853Z" fill="#4D4D70"/>
<path d="M431.138 241.176H427.72V249.443H431.138V241.176Z" fill="#4D4D70"/>
<path d="M472.453 203.328H460.045V217.56H472.453V203.328Z" fill="#4D4D70"/>
<path d="M467.966 196.902H464.548V203.327H467.966V196.902Z" fill="#4D4D70"/>
<path d="M467.966 217.543H464.548V229.475H467.966V217.543Z" fill="#4D4D70"/>
<path d="M177.914 179.859H165.506V190.394H177.914V179.859Z" fill="#4D4D70"/>
<path d="M173.411 166.054H169.992V179.859H173.411V166.054Z" fill="#4D4D70"/>
<path d="M173.411 190.377H169.992V246.485H173.411V190.377Z" fill="#4D4D70"/>
<path d="M251.541 237.068H239.133V247.602H251.541V237.068Z" fill="#4D4D70"/>
<path d="M247.054 223.279H243.636V237.068H247.054V223.279Z" fill="#4D4D70"/>
<path d="M247.054 247.602H243.636V263.231H247.054V247.602Z" fill="#4D4D70"/>
<path d="M269.964 234.553H257.556V241.406H269.964V234.553Z" fill="#4D4D70"/>
<path d="M265.461 220.781H262.043V234.553H265.461V220.781Z" fill="#4D4D70"/>
<path d="M265.461 241.423H262.043V260.75H265.461V241.423Z" fill="#4D4D70"/>
<path d="M85.8641 121.862H73.4561V150.803H85.8641V121.862Z" fill="#4D4D70"/>
<path d="M81.3617 108.073H77.9434V121.862H81.3617V108.073Z" fill="#4D4D70"/>
<path d="M81.3617 150.819H77.9434V170.114H81.3617V150.819Z" fill="#4D4D70"/>
<path d="M196.322 194.782H183.914V242.113H196.322V194.782Z" fill="#4D4D70"/>
<path d="M191.834 180.993H188.416V194.782H191.834V180.993Z" fill="#4D4D70"/>
<path d="M191.834 242.113H188.416V261.424H191.834V242.113Z" fill="#4D4D70"/>
<path d="M122.678 96.832H110.27V125.773H122.678V96.832Z" fill="#4D4D70"/>
<path d="M118.192 49.9114H114.773V96.8155H118.192V49.9114Z" fill="#4D4D70"/>
<path d="M214.727 234.109H202.319V248.325H214.727V234.109Z" fill="#4D4D70"/>
<path d="M210.242 201.931H206.823V234.109H210.242V201.931Z" fill="#4D4D70"/>
<path d="M325.183 260.059H312.775V274.275H325.183V260.059Z" fill="#4D4D70"/>
<path d="M320.697 249.952H317.278V260.076H320.697V249.952Z" fill="#4D4D70"/>
<path d="M30.6278 126.94H18.2197V163.244H30.6278V126.94Z" fill="#4D4D70"/>
<path d="M26.141 163.244H22.7227V180.73H26.141V163.244Z" fill="#4D4D70"/>
<path d="M509.283 188.997H496.875V228.982H509.283V188.997Z" fill="#B48755"/>
<path d="M504.78 175.225H501.361V188.997H504.78V175.225Z" fill="#B48755"/>
<path d="M504.78 228.982H501.361V251.957H504.78V228.982Z" fill="#B48755"/>
<path d="M638.146 125.494H625.738V217.018H638.146V125.494Z" fill="#B48755"/>
<path d="M633.66 111.705H630.241V125.494H633.66V111.705Z" fill="#B48755"/>
<path d="M693.383 66.8884H680.975V99.5108H693.383V66.8884Z" fill="#B48755"/>
<path d="M688.879 53.0999H685.461V66.8884H688.879V53.0999Z" fill="#B48755"/>
<path d="M785.431 53.8229H773.023V101.171H785.431V53.8229Z" fill="#B48755"/>
<path d="M780.929 101.154H777.511V133.349H780.929V101.154Z" fill="#B48755"/>
<path d="M1079.99 146.924H1067.58V208.981H1079.99V146.924Z" fill="#B48755"/>
<path d="M1075.48 208.981H1072.07V226.451H1075.48V208.981Z" fill="#B48755"/>
<path d="M1135.21 151.066H1122.8V183.688H1135.21V151.066Z" fill="#B48755"/>
<path d="M1130.72 133.596H1127.3V151.066H1130.72V133.596Z" fill="#B48755"/>
<path d="M987.938 203.229H975.53V228.505H987.938V203.229Z" fill="#B48755"/>
<path d="M983.435 193.122H980.017V203.229H983.435V193.122Z" fill="#B48755"/>
<path d="M527.689 157.508H515.281V193.812H527.689V157.508Z" fill="#B48755"/>
<path d="M523.204 143.72H519.785V157.508H523.204V143.72Z" fill="#B48755"/>
<path d="M523.204 193.828H519.785V205.76H523.204V193.828Z" fill="#B48755"/>
<path d="M656.553 101.401H644.145V126.661H656.553V101.401Z" fill="#B48755"/>
<path d="M652.066 72.8869H648.647V101.401H652.066V72.8869Z" fill="#B48755"/>
<path d="M652.066 126.661H648.647V179.087H652.066V126.661Z" fill="#B48755"/>
<path d="M730.195 82.7477H717.787V115.37H730.195V82.7477Z" fill="#B48755"/>
<path d="M725.708 68.9592H722.29V82.7477H725.708V68.9592Z" fill="#B48755"/>
<path d="M725.708 115.37H722.29V127.302H725.708V115.37Z" fill="#B48755"/>
<path d="M1024.75 205.546H1012.34V227.141H1024.75V205.546Z" fill="#B48755"/>
<path d="M1020.26 199.137H1016.85V205.546H1020.26V199.137Z" fill="#B48755"/>
<path d="M1020.26 227.141H1016.85V239.089H1020.26V227.141Z" fill="#B48755"/>
<path d="M1061.58 210.822H1049.17V232.4H1061.58V210.822Z" fill="#B48755"/>
<path d="M1057.08 193.352H1053.66V210.822H1057.08V193.352Z" fill="#B48755"/>
<path d="M1057.08 232.4H1053.66V244.348H1057.08V232.4Z" fill="#B48755"/>
<path d="M1172.04 156.144H1159.63V166.679H1172.04V156.144Z" fill="#B48755"/>
<path d="M1167.53 142.372H1164.12V156.16H1167.53V142.372Z" fill="#B48755"/>
<path d="M1167.53 166.695H1164.12V178.643H1167.53V166.695Z" fill="#B48755"/>
<path d="M748.602 68.959H736.194V83.1913H748.602V68.959Z" fill="#B48755"/>
<path d="M744.116 47.8079H740.697V68.9591H744.116V47.8079Z" fill="#B48755"/>
<path d="M744.116 83.1749H740.697V120.876H744.116V83.1749Z" fill="#B48755"/>
<path d="M914.295 184.888H901.887V199.104H914.295V184.888Z" fill="#B48755"/>
<path d="M909.808 199.104H906.39V220.272H909.808V199.104Z" fill="#B48755"/>
<path d="M909.808 147.187H906.39V184.888H909.808V147.187Z" fill="#B48755"/>
<path d="M674.975 96.7991H662.567V114.696H674.975V96.7991Z" fill="#B48755"/>
<path d="M670.472 31.4884H667.054V96.7991H670.472V31.4884Z" fill="#B48755"/>
<path d="M670.472 114.696H667.054V122.963H670.472V114.696Z" fill="#B48755"/>
<path d="M546.096 142.586H533.688V160.483H546.096V142.586Z" fill="#B48755"/>
<path d="M541.609 132.495H538.19V142.602H541.609V132.495Z" fill="#B48755"/>
<path d="M541.609 160.499H538.19V190.837H541.609V160.499Z" fill="#B48755"/>
<path d="M564.504 138.444H552.096V156.341H564.504V138.444Z" fill="#4D4D70"/>
<path d="M560.017 128.337H556.599V138.444H560.017V128.337Z" fill="#4D4D70"/>
<path d="M560.017 156.358H556.599V186.696H560.017V156.358Z" fill="#4D4D70"/>
<path d="M582.926 160.729H570.518V185.989H582.926V160.729Z" fill="#4D4D70"/>
<path d="M578.422 146.941H575.004V160.729H578.422V146.941Z" fill="#4D4D70"/>
<path d="M578.422 185.989H575.004V201.618H578.422V185.989Z" fill="#4D4D70"/>
<path d="M840.669 76.5189H828.261V131.229H840.669V76.5189Z" fill="#4D4D70"/>
<path d="M836.165 62.7468H832.747V76.5353H836.165V62.7468Z" fill="#4D4D70"/>
<path d="M836.165 131.229H832.747V146.859H836.165V131.229Z" fill="#4D4D70"/>
<path d="M619.74 213.583H607.332V224.117H619.74V213.583Z" fill="#4D4D70"/>
<path d="M615.252 199.794H611.834V213.599H615.252V199.794Z" fill="#4D4D70"/>
<path d="M615.252 224.117H611.834V239.746H615.252V224.117Z" fill="#4D4D70"/>
<path d="M822.246 62.7632H809.838V73.2978H822.246V62.7632Z" fill="#4D4D70"/>
<path d="M817.759 48.9911H814.341V62.7797H817.759V48.9911Z" fill="#4D4D70"/>
<path d="M817.759 73.3142H814.341V88.9434H817.759V73.3142Z" fill="#4D4D70"/>
<path d="M969.531 189.933H957.123V229.919H969.531V189.933Z" fill="#4D4D70"/>
<path d="M965.028 179.826H961.609V189.933H965.028V179.826Z" fill="#4D4D70"/>
<path d="M965.028 229.902H961.609V238.169H965.028V229.902Z" fill="#4D4D70"/>
<path d="M1043.17 201.191H1030.77V230.132H1043.17V201.191Z" fill="#4D4D70"/>
<path d="M1038.67 194.765H1035.25V201.191H1038.67V194.765Z" fill="#4D4D70"/>
<path d="M1038.67 230.132H1035.25V249.426H1038.67V230.132Z" fill="#4D4D70"/>
<path d="M1098.39 145.117H1085.99V181.437H1098.39V145.117Z" fill="#4D4D70"/>
<path d="M1093.91 138.707H1090.49V145.133H1093.91V138.707Z" fill="#4D4D70"/>
<path d="M1093.91 181.437H1090.49V222.802H1093.91V181.437Z" fill="#4D4D70"/>
<path d="M1116.8 173.367H1104.39V191.265H1116.8V173.367Z" fill="#4D4D70"/>
<path d="M1112.31 166.942H1108.9V173.367H1112.31V166.942Z" fill="#4D4D70"/>
<path d="M1112.31 191.265H1108.9V199.531H1112.31V191.265Z" fill="#4D4D70"/>
<path d="M1153.63 153.416H1141.22V167.648H1153.63V153.416Z" fill="#4D4D70"/>
<path d="M1149.13 146.99H1145.71V153.416H1149.13V146.99Z" fill="#4D4D70"/>
<path d="M1149.13 167.632H1145.71V179.58H1149.13V167.632Z" fill="#4D4D70"/>
<path d="M859.075 129.931H846.667V140.466H859.075V129.931Z" fill="#4D4D70"/>
<path d="M854.573 116.126H851.154V129.915H854.573V116.126Z" fill="#4D4D70"/>
<path d="M854.573 140.466H851.154V196.573H854.573V140.466Z" fill="#4D4D70"/>
<path d="M932.701 187.156H920.293V197.69H932.701V187.156Z" fill="#4D4D70"/>
<path d="M928.214 173.367H924.796V187.156H928.214V173.367Z" fill="#4D4D70"/>
<path d="M928.214 197.69H924.796V213.32H928.214V197.69Z" fill="#4D4D70"/>
<path d="M951.124 184.642H938.716V191.495H951.124V184.642Z" fill="#4D4D70"/>
<path d="M946.622 170.869H943.203V184.641H946.622V170.869Z" fill="#4D4D70"/>
<path d="M946.622 191.511H943.203V210.838H946.622V191.511Z" fill="#4D4D70"/>
<path d="M767.025 71.9501H754.617V100.891H767.025V71.9501Z" fill="#4D4D70"/>
<path d="M762.523 58.1617H759.104V71.9503H762.523V58.1617Z" fill="#4D4D70"/>
<path d="M762.523 100.891H759.104V120.185H762.523V100.891Z" fill="#4D4D70"/>
<path d="M877.481 144.87H865.073V192.201H877.481V144.87Z" fill="#4D4D70"/>
<path d="M872.979 131.065H869.561V144.853H872.979V131.065Z" fill="#4D4D70"/>
<path d="M872.979 192.201H869.561V211.528H872.979V192.201Z" fill="#4D4D70"/>
<path d="M601.333 177.492H588.925V217.478H601.333V177.492Z" fill="#4D4D70"/>
<path d="M596.831 160.023H593.412V177.492H596.831V160.023Z" fill="#4D4D70"/>
<path d="M803.84 46.9039H791.432V75.8451H803.84V46.9039Z" fill="#4D4D70"/>
<path d="M799.353 -6.10352e-05H795.935V46.904H799.353V-6.10352e-05Z" fill="#4D4D70"/>
<path d="M895.888 184.198H883.48V198.414H895.888V184.198Z" fill="#4D4D70"/>
<path d="M891.402 152.003H887.983V184.198H891.402V152.003Z" fill="#4D4D70"/>
<path d="M1006.35 210.148H993.938V224.364H1006.35V210.148Z" fill="#4D4D70"/>
<path d="M1001.86 200.024H998.44V210.148H1001.86V200.024Z" fill="#4D4D70"/>
<path d="M711.789 77.012H699.381V113.316H711.789V77.012Z" fill="#4D4D70"/>
<path d="M707.302 113.316H703.884V130.786H707.302V113.316Z" fill="#4D4D70"/>
<path d="M1227.26 117.178H1214.85V149.8H1227.26V117.178Z" fill="#B48755"/>
<path d="M1222.77 103.406H1219.35V117.194H1222.77V103.406Z" fill="#B48755"/>
<path d="M1319.31 104.112H1306.9V151.46H1319.31V104.112Z" fill="#B48755"/>
<path d="M1314.8 151.46H1311.39V183.655H1314.8V151.46Z" fill="#B48755"/>
<path d="M1190.44 151.69H1178.04V176.967H1190.44V151.69Z" fill="#B48755"/>
<path d="M1185.94 123.177H1182.52V151.69H1185.94V123.177Z" fill="#B48755"/>
<path d="M1185.94 176.967H1182.52V229.376H1185.94V176.967Z" fill="#B48755"/>
<path d="M1264.07 133.054H1251.66V165.693H1264.07V133.054Z" fill="#B48755"/>
<path d="M1259.58 119.265H1256.17V133.054H1259.58V119.265Z" fill="#B48755"/>
<path d="M1259.58 165.676H1256.17V177.607H1259.58V165.676Z" fill="#B48755"/>
<path d="M1282.48 119.249H1270.07V133.465H1282.48V119.249Z" fill="#B48755"/>
<path d="M1277.99 98.0975H1274.57V119.249H1277.99V98.0975Z" fill="#B48755"/>
<path d="M1277.99 133.481H1274.57V171.182H1277.99V133.481Z" fill="#B48755"/>
<path d="M1448.17 235.178H1435.76V249.394H1448.17V235.178Z" fill="#B48755"/>
<path d="M1443.68 249.394H1440.26V270.561H1443.68V249.394Z" fill="#B48755"/>
<path d="M1443.68 197.477H1440.26V235.178H1443.68V197.477Z" fill="#B48755"/>
<path d="M1208.85 147.089H1196.44V164.986H1208.85V147.089Z" fill="#B48755"/>
<path d="M1204.35 81.778H1200.93V147.089H1204.35V81.778Z" fill="#B48755"/>
<path d="M1204.35 165.002H1200.93V173.269H1204.35V165.002Z" fill="#B48755"/>
<path d="M1374.54 126.825H1362.13V181.535H1374.54V126.825Z" fill="#4D4D70"/>
<path d="M1370.04 113.036H1366.62V126.825H1370.04V113.036Z" fill="#4D4D70"/>
<path d="M1370.04 181.535H1366.62V197.148H1370.04V181.535Z" fill="#4D4D70"/>
<path d="M1356.12 113.069H1343.71V123.62H1356.12V113.069Z" fill="#4D4D70"/>
<path d="M1351.63 99.2806H1348.21V113.069H1351.63V99.2806Z" fill="#4D4D70"/>
<path d="M1351.63 123.604H1348.21V139.217H1351.63V123.604Z" fill="#4D4D70"/>
<path d="M1392.95 180.237H1380.54V190.772H1392.95V180.237Z" fill="#4D4D70"/>
<path d="M1388.45 166.432H1385.03V180.237H1388.45V166.432Z" fill="#4D4D70"/>
<path d="M1388.45 190.772H1385.03V246.879H1388.45V190.772Z" fill="#4D4D70"/>
<path d="M1300.9 122.256H1288.49V151.197H1300.9V122.256Z" fill="#4D4D70"/>
<path d="M1296.4 108.468H1292.98V122.256H1296.4V108.468Z" fill="#4D4D70"/>
<path d="M1296.4 151.197H1292.98V170.491H1296.4V151.197Z" fill="#4D4D70"/>
<path d="M1411.36 195.16H1398.95V242.491H1411.36V195.16Z" fill="#4D4D70"/>
<path d="M1406.87 181.371H1403.45V195.16H1406.87V181.371Z" fill="#4D4D70"/>
<path d="M1406.87 242.491H1403.45V261.801H1406.87V242.491Z" fill="#4D4D70"/>
<path d="M1337.71 97.2098H1325.31V126.151H1337.71V97.2098Z" fill="#4D4D70"/>
<path d="M1333.23 50.3058H1329.81V97.2263H1333.23V50.3058Z" fill="#4D4D70"/>
<path d="M1429.76 234.487H1417.35V248.72H1429.76V234.487Z" fill="#4D4D70"/>
<path d="M1425.28 202.309H1421.86V234.487H1425.28V202.309Z" fill="#4D4D70"/>
<path d="M1245.66 127.318H1233.25V163.622H1245.66V127.318Z" fill="#4D4D70"/>
<path d="M1241.18 163.622H1237.76V181.108H1241.18V163.622Z" fill="#4D4D70"/>
</g>
</svg>
