<svg width="600" height="11" viewBox="0 0 600 11" fill="none" xmlns="http://www.w3.org/2000/svg">
<path d="M300.657 1.49035C297.936 1.49035 295.215 1.98061 292.608 2.96763L290.076 3.92542C284.244 6.12997 278.128 7.24686 271.897 7.24686H0.694807C0.311689 7.24686 0 7.55855 0 7.94167C0 8.32479 0.311689 8.63647 0.694807 8.63647L271.897 8.63647C278.3 8.63647 284.579 7.49037 290.566 5.22413L293.098 4.26633C298.228 2.32802 303.842 2.42542 308.904 4.54231C315.394 7.2566 322.251 8.63323 329.287 8.63323L597.932 8.63323C598.315 8.63323 598.626 8.32154 598.626 7.93842C598.626 7.5553 598.315 7.24361 597.932 7.24361H329.287C322.436 7.24361 315.761 5.9027 309.439 3.25984C306.621 2.08126 303.641 1.49035 300.66 1.49035H300.657Z" fill="#D9C3AA"/>
<path d="M598.62 1.49669H329.975C322.939 1.49669 316.082 2.87332 309.592 5.58761C304.53 7.7045 298.92 7.8019 293.787 5.86359L291.254 4.90579C285.267 2.6428 278.985 1.49345 272.585 1.49345H1.38312C1 1.49345 0.688311 1.80514 0.688311 2.18825C0.688311 2.57137 1 2.88306 1.38312 2.88306H272.585C278.819 2.88306 284.936 3.99995 290.764 6.2045L293.296 7.16229C298.761 9.22723 304.738 9.12334 310.124 6.87008C316.443 4.22722 323.121 2.88631 329.972 2.88631H598.617C599 2.88631 599.312 2.57462 599.312 2.1915C599.312 1.80838 599 1.49669 598.617 1.49669H598.62Z" fill="#D9C3AA"/>
<path d="M303.381 8.17522C303.381 7.15249 302.554 6.32457 301.531 6.32457C300.508 6.32457 299.68 7.15249 299.68 8.17522C299.68 9.19795 300.508 10.0259 301.531 10.0259C302.554 10.0259 303.381 9.19795 303.381 8.17522Z" fill="#D9C3AA"/>
<path d="M314.739 5.06463C314.739 4.0419 313.911 3.21397 312.888 3.21397C311.865 3.21397 311.037 4.0419 311.037 5.06463C311.037 6.08736 311.865 6.91528 312.888 6.91528C313.911 6.91528 314.739 6.08736 314.739 5.06463Z" fill="#D9C3AA"/>
<path d="M291.008 5.06463C291.008 4.0419 290.18 3.21397 289.157 3.21397C288.135 3.21397 287.307 4.0419 287.307 5.06463C287.307 6.08736 288.135 6.91528 289.157 6.91528C290.18 6.91528 291.008 6.08736 291.008 5.06463Z" fill="#D9C3AA"/>
<path d="M303.381 1.85052C303.381 0.827787 302.554 -0.000136614 301.531 -0.000136614C300.508 -0.000136614 299.68 0.827787 299.68 1.85052C299.68 2.87325 300.508 3.70117 301.531 3.70117C302.554 3.70117 303.381 2.87325 303.381 1.85052Z" fill="#D9C3AA"/>
</svg>
