<svg width="42" height="41" viewBox="0 0 42 41" fill="none" xmlns="http://www.w3.org/2000/svg">
<g filter="url(#filter0_d_2308_72659)">
<circle cx="20.6666" cy="19" r="15.75" stroke="white" stroke-width="0.5" shape-rendering="crispEdges"/>
</g>
<g clip-path="url(#clip0_2308_72659)">
<path d="M30.0993 16.9435C30.677 16.7542 31.2548 16.565 31.8323 16.3759C32.1516 16.2713 31.9716 15.8251 31.6519 15.9297C31.0741 16.119 30.4963 16.3082 29.9188 16.4972C29.5995 16.6018 29.7795 17.0481 30.0993 16.9435Z" fill="white"/>
<path d="M27.3207 13.7943C27.6089 13.3056 27.897 12.8172 28.1852 12.3285C28.3447 12.058 27.8657 11.8583 27.7067 12.128C27.4185 12.6166 27.1304 13.1051 26.8422 13.5937C26.6827 13.8643 27.1617 14.0639 27.3207 13.7943Z" fill="white"/>
<path d="M29.8183 20.9468C30.3881 21.1545 30.958 21.362 31.5279 21.5696C31.842 21.684 32.0666 21.2542 31.7508 21.1392C31.181 20.9315 30.6111 20.7241 30.0412 20.5164C29.7271 20.402 29.5025 20.8318 29.8183 20.9468Z" fill="white"/>
<path d="M11.0859 23.2489C11.1867 23.4981 11.2889 23.7468 11.3884 23.9965C11.5403 24.3783 11.3499 24.7881 10.923 24.9361C10.5091 25.0715 10.059 24.8727 9.9042 24.5074C9.82988 24.3321 9.76149 24.1546 9.69038 23.9785C9.47778 23.453 9.26198 22.9288 9.0526 22.4024C8.92297 22.0765 9.03581 21.7189 9.36667 21.5286C9.74569 21.3107 10.2731 21.4353 10.4886 21.7898C10.5862 21.9504 10.6393 22.1445 10.7084 22.3149L11.0862 23.2484L11.0859 23.2489Z" fill="white"/>
<path d="M27.6277 23.6094C27.6244 23.969 27.362 24.282 26.9946 24.4086C26.4588 24.5841 25.9304 24.3033 25.7432 23.8431C25.6637 23.6472 25.5847 23.4513 25.5052 23.2551L21.6879 13.8205C21.6699 13.7761 21.6514 13.7317 21.6338 13.6873C21.5323 13.4272 21.562 13.14 21.7331 12.9081C22.1689 12.3175 23.1679 12.4472 23.44 13.096C23.5 13.239 23.5563 13.3834 23.6143 13.5271L27.4612 23.035C27.5368 23.2216 27.6291 23.4071 27.6277 23.6096V23.6094Z" fill="white"/>
<path d="M25.223 23.9439C24.8825 23.9477 24.5415 23.9512 24.201 23.9545C23.1002 23.9661 22 23.9776 20.8993 23.989C19.5736 24.0027 18.2474 24.0165 16.9217 24.0303C15.7753 24.0421 14.6289 24.0543 13.4825 24.066C12.9765 24.0712 12.4617 24.0541 11.9548 24.076C11.9501 24.0496 11.9442 24.023 11.9375 23.9963C11.8832 23.7829 11.78 23.5754 11.697 23.3702C11.4756 22.8229 11.2637 22.2716 11.0323 21.7276C11.0012 21.6545 10.963 21.5852 10.9183 21.5206C11.2276 21.2925 11.5368 21.0644 11.8467 20.8363C12.6978 20.2086 13.5491 19.5809 14.4002 18.9534C15.4257 18.1973 16.4514 17.4412 17.4768 16.6851C18.3635 16.0314 19.2504 15.3777 20.137 14.7238C20.4837 14.4684 20.8348 14.2165 21.18 13.9589C21.2136 14.0422 21.2491 14.1246 21.2827 14.2076L25.1899 23.8646C25.2005 23.891 25.2116 23.9175 25.223 23.9439Z" fill="white"/>
<path d="M19.7402 24.475C19.742 24.6025 19.7434 24.73 19.7452 24.8577C19.7481 25.1049 19.7422 25.3401 19.5847 25.5571C19.3923 25.8223 19.0694 25.9645 18.7234 25.9723C18.5941 25.9754 18.4644 25.9751 18.3348 25.9763C17.7659 25.9823 17.1968 25.988 16.6279 25.9943C16.1765 25.9989 15.7247 26.05 15.362 25.7501C15.1052 25.538 15.0457 25.2566 15.0417 24.9585C15.04 24.8137 15.0378 24.6689 15.036 24.5241C15.5237 24.5187 16.0111 24.5138 16.4988 24.5087C17.5795 24.4976 18.66 24.4863 19.7405 24.4752L19.7402 24.475Z" fill="white"/>
</g>
<defs>
<filter id="filter0_d_2308_72659" x="0.666626" y="0.333333" width="40.5333" height="40.5333" filterUnits="userSpaceOnUse" color-interpolation-filters="sRGB">
<feFlood flood-opacity="0" result="BackgroundImageFix"/>
<feColorMatrix in="SourceAlpha" type="matrix" values="0 0 0 0 0 0 0 0 0 0 0 0 0 0 0 0 0 0 127 0" result="hardAlpha"/>
<feOffset dx="0.266667" dy="1.6"/>
<feGaussianBlur stdDeviation="2.13333"/>
<feComposite in2="hardAlpha" operator="out"/>
<feColorMatrix type="matrix" values="0 0 0 0 0 0 0 0 0 0 0 0 0 0 0 0 0 0 0.1 0"/>
<feBlend mode="normal" in2="BackgroundImageFix" result="effect1_dropShadow_2308_72659"/>
<feBlend mode="normal" in="SourceGraphic" in2="effect1_dropShadow_2308_72659" result="shape"/>
</filter>
<clipPath id="clip0_2308_72659">
<rect width="23" height="14" fill="white" transform="translate(9 12)"/>
</clipPath>
</defs>
</svg>
