<svg width="41" height="41" viewBox="0 0 41 41" fill="none" xmlns="http://www.w3.org/2000/svg">
<g filter="url(#filter0_d_2308_72637)">
<circle cx="20.3333" cy="19" r="15.75" stroke="white" strokeWidth="0.5" shape-rendering="crispEdges"/>
</g>
<path d="M16.1875 18C15.2611 18 14.4705 17.6583 13.8156 16.975C13.1607 16.2917 12.8333 15.4667 12.8333 14.5C12.8333 13.5333 13.1607 12.7083 13.8156 12.025C14.4705 11.3417 15.2611 11 16.1875 11C17.1139 11 17.9045 11.3417 18.5594 12.025C19.2142 12.7083 19.5416 13.5333 19.5416 14.5C19.5416 15.4667 19.2142 16.2917 18.5594 16.975C17.9045 17.6583 17.1139 18 16.1875 18ZM16.1875 16C16.5868 16 16.9264 15.8543 17.2062 15.563C17.486 15.2717 17.6256 14.9173 17.625 14.5C17.6243 14.0827 17.4847 13.7287 17.2062 13.438C16.9276 13.1473 16.5881 13.0013 16.1875 13C15.7869 12.9987 15.4476 13.1447 15.1697 13.438C14.8918 13.7313 14.7519 14.0853 14.75 14.5C14.7481 14.9147 14.888 15.269 15.1697 15.563C15.4515 15.857 15.7907 16.0027 16.1875 16ZM24.8125 27C23.8861 27 23.0955 26.6583 22.4406 25.975C21.7857 25.2917 21.4583 24.4667 21.4583 23.5C21.4583 22.5333 21.7857 21.7083 22.4406 21.025C23.0955 20.3417 23.8861 20 24.8125 20C25.7389 20 26.5295 20.3417 27.1844 21.025C27.8392 21.7083 28.1666 22.5333 28.1666 23.5C28.1666 24.4667 27.8392 25.2917 27.1844 25.975C26.5295 26.6583 25.7389 27 24.8125 27ZM24.8125 25C25.2118 25 25.5514 24.8543 25.8312 24.563C26.111 24.2717 26.2506 23.9173 26.25 23.5C26.2493 23.0827 26.1097 22.7287 25.8312 22.438C25.5526 22.1473 25.2131 22.0013 24.8125 22C24.4119 21.9987 24.0726 22.1447 23.7947 22.438C23.5168 22.7313 23.3769 23.0853 23.375 23.5C23.3731 23.9147 23.513 24.269 23.7947 24.563C24.0765 24.857 24.4157 25.0027 24.8125 25ZM14.175 27L12.8333 25.6L26.825 11L28.1666 12.4L14.175 27Z" fill="white"/>
<defs>
<filter id="filter0_d_2308_72637" x="0.333313" y="0.333333" width="40.5333" height="40.5333" filterUnits="userSpaceOnUse" color-interpolation-filters="sRGB">
<feFlood flood-opacity="0" result="BackgroundImageFix"/>
<feColorMatrix in="SourceAlpha" type="matrix" values="0 0 0 0 0 0 0 0 0 0 0 0 0 0 0 0 0 0 127 0" result="hardAlpha"/>
<feOffset dx="0.266667" dy="1.6"/>
<feGaussianBlur stdDeviation="2.13333"/>
<feComposite in2="hardAlpha" operator="out"/>
<feColorMatrix type="matrix" values="0 0 0 0 0 0 0 0 0 0 0 0 0 0 0 0 0 0 0.1 0"/>
<feBlend mode="normal" in2="BackgroundImageFix" result="effect1_dropShadow_2308_72637"/>
<feBlend mode="normal" in="SourceGraphic" in2="effect1_dropShadow_2308_72637" result="shape"/>
</filter>
</defs>
</svg>
