<svg width="42" height="41" viewBox="0 0 42 41" fill="none" xmlns="http://www.w3.org/2000/svg">
<g filter="url(#filter0_d_2308_72643)">
<circle cx="20.6667" cy="19" r="15.75" stroke="white" strokeWidth="0.5" shape-rendering="crispEdges"/>
</g>
<path d="M15.5867 13.956L14.1167 12.473M23.4257 13.956L24.8957 12.473M14.1157 23.353L15.5857 21.869M19.5057 11.979V10M13.6257 17.913H11.6667M25.5417 23.836L29.3557 22.33C29.4477 22.2932 29.5266 22.2296 29.5821 22.1475C29.6377 22.0655 29.6674 21.9686 29.6674 21.8695C29.6674 21.7704 29.6377 21.6735 29.5821 21.5915C29.5266 21.5094 29.4477 21.4458 29.3557 21.409L20.1907 17.794C20.1014 17.7595 20.0041 17.7517 19.9105 17.7717C19.8169 17.7916 19.7312 17.8384 19.6638 17.9063C19.5964 17.9742 19.5503 18.0603 19.5311 18.154C19.5119 18.2478 19.5204 18.345 19.5557 18.434L23.1377 27.685C23.2997 28.105 23.8877 28.105 24.0497 27.685L25.5417 23.836Z" stroke="white" strokeWidth="1.5" stroke-linecap="round" stroke-linejoin="round"/>
<defs>
<filter id="filter0_d_2308_72643" x="0.666656" y="0.333333" width="40.5333" height="40.5333" filterUnits="userSpaceOnUse" color-interpolation-filters="sRGB">
<feFlood flood-opacity="0" result="BackgroundImageFix"/>
<feColorMatrix in="SourceAlpha" type="matrix" values="0 0 0 0 0 0 0 0 0 0 0 0 0 0 0 0 0 0 127 0" result="hardAlpha"/>
<feOffset dx="0.266667" dy="1.6"/>
<feGaussianBlur stdDeviation="2.13333"/>
<feComposite in2="hardAlpha" operator="out"/>
<feColorMatrix type="matrix" values="0 0 0 0 0 0 0 0 0 0 0 0 0 0 0 0 0 0 0.1 0"/>
<feBlend mode="normal" in2="BackgroundImageFix" result="effect1_dropShadow_2308_72643"/>
<feBlend mode="normal" in="SourceGraphic" in2="effect1_dropShadow_2308_72643" result="shape"/>
</filter>
</defs>
</svg>
