<svg width="41" height="41" viewBox="0 0 41 41" fill="none" xmlns="http://www.w3.org/2000/svg">
<g filter="url(#filter0_d_2308_72665)">
<circle cx="20" cy="19" r="15.75" stroke="white" strokeWidth="0.5" shape-rendering="crispEdges"/>
</g>
<path d="M18.75 19.3688L17.1312 17.75L16.25 18.6312L18.75 21.1312L23.75 16.1312L22.8688 15.25L18.75 19.3688Z" fill="white"/>
<path d="M20 27.75L16.14 25.6919C15.0395 25.1066 14.1192 24.2325 13.4779 23.1637C12.8366 22.0948 12.4985 20.8715 12.5 19.625V11.5C12.5 11.1685 12.6317 10.8505 12.8661 10.6161C13.1005 10.3817 13.4185 10.25 13.75 10.25H26.25C26.5815 10.25 26.8995 10.3817 27.1339 10.6161C27.3683 10.8505 27.5 11.1685 27.5 11.5V19.625C27.5015 20.8715 27.1634 22.0948 26.5221 23.1637C25.8808 24.2325 24.9605 25.1066 23.86 25.6919L20 27.75ZM13.75 11.5V19.625C13.7493 20.6448 14.0262 21.6456 14.5509 22.52C15.0757 23.3945 15.8285 24.1096 16.7288 24.5887L20 26.3331L23.2713 24.5894C24.1716 24.1102 24.9245 23.3949 25.4492 22.5204C25.974 21.6458 26.2508 20.6449 26.25 19.625V11.5H13.75Z" fill="white"/>
<defs>
<filter id="filter0_d_2308_72665" x="-2.08616e-07" y="0.333333" width="40.5333" height="40.5333" filterUnits="userSpaceOnUse" color-interpolation-filters="sRGB">
<feFlood flood-opacity="0" result="BackgroundImageFix"/>
<feColorMatrix in="SourceAlpha" type="matrix" values="0 0 0 0 0 0 0 0 0 0 0 0 0 0 0 0 0 0 127 0" result="hardAlpha"/>
<feOffset dx="0.266667" dy="1.6"/>
<feGaussianBlur stdDeviation="2.13333"/>
<feComposite in2="hardAlpha" operator="out"/>
<feColorMatrix type="matrix" values="0 0 0 0 0 0 0 0 0 0 0 0 0 0 0 0 0 0 0.1 0"/>
<feBlend mode="normal" in2="BackgroundImageFix" result="effect1_dropShadow_2308_72665"/>
<feBlend mode="normal" in="SourceGraphic" in2="effect1_dropShadow_2308_72665" result="shape"/>
</filter>
</defs>
</svg>
