<svg width="179" height="85" viewBox="0 0 179 85" fill="none" xmlns="http://www.w3.org/2000/svg">
<g filter="url(#filter0_d_4035_17936)">
<path d="M140.462 13.6599C140.433 13.7938 140.391 13.9264 140.377 14.0632C140.262 15.2278 140.151 16.3939 140.039 17.5586C140.036 17.5826 140.018 17.6037 139.988 17.6672C139.247 17.725 138.483 17.6841 137.721 17.6911C136.939 17.6982 136.158 17.6926 135.376 17.6926H119.067C118.28 26.4333 117.501 35.1416 116.718 43.8992C116.883 43.9119 117.017 43.9288 117.151 43.9303C118.099 43.9331 119.046 43.9303 119.995 43.9303H137.336C137.175 45.5222 137.021 47.052 136.863 48.6031H109.101C109.993 38.3099 110.883 28.0463 111.776 17.7377C111.646 17.7208 111.539 17.694 111.433 17.6926C108.908 17.6897 106.384 17.6911 103.86 17.6926C103.771 17.6926 103.683 17.7081 103.54 17.7222C102.479 28.0055 101.434 38.2902 100.377 48.5608C100.069 48.6426 92.5617 48.6595 92.093 48.5777C92.2179 46.8687 92.4326 45.164 92.5953 43.4537C92.7581 41.7377 92.9447 40.0231 93.1215 38.3085C93.2983 36.5939 93.4751 34.8793 93.6519 33.1633C93.8273 31.4614 94.0041 29.7595 94.1781 28.0576C94.3535 26.343 94.5275 24.627 94.7015 22.9125C94.8755 21.1993 95.048 19.4861 95.2164 17.8195C95.1743 17.7588 95.1687 17.7475 95.1603 17.7391C95.1505 17.7306 95.1393 17.7208 95.128 17.7193C95.027 17.7081 94.926 17.6911 94.825 17.6911C85.6638 17.6925 76.5026 17.6954 67.3414 17.6996C67.3049 17.6996 67.2699 17.7222 67.1871 17.7504C66.3452 26.4375 65.5019 35.1402 64.6544 43.8908C64.8368 43.9049 64.9953 43.926 65.1539 43.926C68.5622 43.9274 71.9704 43.9274 75.3787 43.9274H75.8852C76.3665 39.3181 76.8436 34.744 77.3178 30.198C77.2757 30.1572 77.2659 30.1473 77.2561 30.1388C77.2463 30.1318 77.2364 30.1219 77.2252 30.1191C77.2 30.112 77.1747 30.1078 77.1495 30.1064C77.1116 30.1036 77.0723 30.1036 77.0344 30.1036C74.1902 30.1007 71.346 30.0965 68.5018 30.0937C68.4906 30.0937 68.478 30.0852 68.4667 30.0824C68.405 29.7877 68.7249 26.6081 68.8835 25.9271C69.1866 25.8509 85.4814 25.8425 85.8897 25.9271C85.2302 33.4763 84.5693 41.0312 83.9084 48.6045H55.8945C56.9862 36.7448 58.0764 24.9105 59.1667 13.055C59.2859 13.0367 59.3827 13.0141 59.481 13.0085C59.596 13.0014 59.7111 13.0056 59.8261 13.0056C86.5029 13.0056 113.18 13.0056 139.856 13.0056C140.06 13.0056 140.263 13.0268 140.467 13.0367V13.6542L140.462 13.6599Z" fill="white"/>
<path d="M56.0924 13.0465C50.8039 19.1237 45.5771 25.1304 40.3279 31.1639C44.1305 36.9647 47.9274 42.7543 51.7482 48.5805C51.6247 48.6017 51.5433 48.6285 51.4605 48.6285C48.2698 48.6299 45.079 48.627 41.8882 48.6369C41.6371 48.6369 41.5262 48.5142 41.4042 48.3366C39.4692 45.5179 37.5202 42.7092 35.6049 39.8764C35.3047 39.4323 35.0016 39.1954 34.4614 39.28C34.2018 39.3209 33.931 39.2871 33.6265 39.2871C33.2995 42.4074 32.9754 45.4869 32.6527 48.558C32.3524 48.6482 14.5268 48.6863 13.6442 48.5988C13.7396 48.4846 13.8098 48.3888 13.8912 48.3027C15.7812 46.3428 17.6726 44.3843 19.5641 42.4244C20.9195 41.02 22.2736 39.6128 23.6346 38.2126C23.8058 38.0364 23.8914 37.8488 23.9153 37.6035C24.1075 35.6957 24.3124 33.7908 24.5102 31.883C24.6758 30.2968 24.8371 28.7091 24.9999 27.1214C25.056 26.5715 25.0897 26.0173 25.1781 25.4717C25.2328 25.1389 25.1571 24.8837 24.9746 24.6115C23.1969 21.9339 21.4303 19.2506 19.6609 16.5688C18.9818 15.5395 18.2999 14.5101 17.6207 13.4794C17.5379 13.3539 17.4622 13.2228 17.3555 13.0479C17.5099 13.031 17.6165 13.0071 17.7246 13.0071C21.043 13.0056 24.3615 13.0071 27.6799 13C27.9367 13 28.0728 13.0959 28.1921 13.3102C28.4994 13.8601 28.8417 14.3903 29.1392 14.9444C29.2921 15.2307 29.4774 15.3322 29.8029 15.3308C32.6864 15.3181 35.5684 15.3237 38.4519 15.3237C40.0669 15.3237 41.6806 15.3167 43.2956 15.3308C43.5875 15.3336 43.7643 15.2405 43.9256 15.0008C44.3227 14.4171 44.7549 13.8559 45.159 13.2764C45.2881 13.0902 45.4298 13.0014 45.6627 13.0028C49.0064 13.0085 52.3515 13.007 55.6953 13.0085C55.7935 13.0085 55.8931 13.0254 56.0895 13.0451L56.0924 13.0465ZM33.5858 23.9404H34.0937C37.5146 23.9404 40.9341 23.9404 44.355 23.9432C44.5669 23.9432 44.7437 23.9206 44.9064 23.75C46.9227 21.6265 48.9461 19.5101 50.9666 17.3908C51.0228 17.3316 51.0606 17.2554 51.1294 17.1539H27.2407C26.1814 27.2892 25.1234 37.4019 24.0626 47.547H31.0798C31.3997 44.4985 31.7196 41.4613 32.0409 38.4016H37.4697C38.379 38.4016 39.2882 38.4016 40.1988 38.4016C41.0884 38.4016 41.9766 38.403 42.9294 38.4002C42.8284 38.2197 42.7722 38.1083 42.7063 38.0039C41.4575 36.0116 40.2031 34.022 38.9613 32.0254C38.8139 31.7886 38.6498 31.7054 38.3747 31.7068C36.6587 31.7181 34.9412 31.7124 33.2252 31.7124H32.7748C33.047 29.101 33.315 26.5475 33.5872 23.9418L33.5858 23.9404Z" fill="white"/>
</g>
<path d="M18.022 55.5686H16.2975V60.0172H15.2578V55.5686H13.5333V54.6549H18.0206V55.5686H18.022Z" fill="#B28556"/>
<path d="M18.8793 60.0186V54.6549H21.2633C21.5116 54.6549 21.7404 54.7071 21.9508 54.81C22.1613 54.9129 22.3423 55.0497 22.4939 55.2175C22.6454 55.3867 22.7647 55.5771 22.8503 55.7914C22.9358 56.0057 22.9793 56.2214 22.9793 56.4372C22.9793 56.784 22.8923 57.1013 22.717 57.3847C22.543 57.6695 22.3058 57.874 22.007 58.0009L23.2375 60.0172H22.0603L20.9588 58.2194H19.9261V60.0172H18.8779L18.8793 60.0186ZM19.9275 57.3057H21.2408C21.3363 57.3057 21.4275 57.2832 21.5102 57.2381C21.5944 57.1929 21.666 57.1309 21.7263 57.0533C21.7867 56.9758 21.8358 56.8827 21.8709 56.777C21.9059 56.6712 21.9242 56.5584 21.9242 56.4372C21.9242 56.3159 21.9031 56.1961 21.8638 56.0903C21.8231 55.9845 21.7684 55.8929 21.7011 55.8139C21.6323 55.7364 21.5537 55.6758 21.4653 55.632C21.3769 55.5897 21.2871 55.5672 21.1959 55.5672H19.9275V57.3043V57.3057Z" fill="#B28556"/>
<path d="M26.3974 59.1345C26.6458 59.1345 26.8549 59.0838 27.0232 58.9837C27.193 58.8836 27.3291 58.7524 27.433 58.5903C27.5368 58.4295 27.6097 58.2434 27.6532 58.0347C27.6967 57.826 27.7178 57.6103 27.7178 57.3889V54.6549H28.7575V57.3889C28.7575 57.757 28.7126 58.101 28.6242 58.4239C28.5358 58.7468 28.3969 59.0288 28.2061 59.2699C28.0167 59.511 27.7725 59.7028 27.4736 59.8438C27.1748 59.9848 26.8184 60.0553 26.403 60.0553C25.9877 60.0553 25.6074 59.9805 25.3058 59.8325C25.0041 59.6844 24.7599 59.487 24.5733 59.2431C24.3853 58.9992 24.2506 58.7158 24.1664 58.3929C24.0822 58.07 24.0415 57.7358 24.0415 57.3889V54.6549H25.0897V57.3889C25.0897 57.6159 25.1107 57.8331 25.1542 58.0418C25.1977 58.2505 25.2707 58.4352 25.3745 58.5973C25.4784 58.7581 25.6131 58.8878 25.7814 58.9865C25.9484 59.0852 26.1533 59.1331 26.396 59.1331L26.3974 59.1345Z" fill="#B28556"/>
<path d="M33.2167 56.0593C33.1817 56.024 33.1171 55.9761 33.0231 55.9155C32.9291 55.8548 32.8154 55.7956 32.6807 55.7378C32.546 55.68 32.4015 55.6306 32.2444 55.5912C32.0872 55.5503 31.9272 55.5305 31.7659 55.5305C31.4768 55.5305 31.2621 55.5827 31.1204 55.6885C30.9787 55.7942 30.9072 55.9423 30.9072 56.134C30.9072 56.2454 30.9338 56.3371 30.9871 56.4104C31.0405 56.4837 31.1176 56.5472 31.2187 56.6036C31.3197 56.6585 31.4474 56.7093 31.6017 56.7544C31.7561 56.7995 31.9343 56.8475 32.1377 56.8982C32.4015 56.9687 32.64 57.0449 32.8547 57.1253C33.0694 57.2056 33.2518 57.3072 33.402 57.427C33.5507 57.5483 33.6672 57.6921 33.7471 57.8613C33.8285 58.0305 33.8692 58.2378 33.8692 58.4845C33.8692 58.7722 33.8145 59.0175 33.7064 59.2206C33.597 59.425 33.4511 59.59 33.2659 59.7155C33.0806 59.841 32.8688 59.9326 32.6274 59.9904C32.3875 60.0482 32.1349 60.0778 31.8725 60.0778C31.467 60.0778 31.0671 60.0172 30.6728 59.896C30.2785 59.7747 29.9235 59.6041 29.6092 59.3827L30.0723 58.4845C30.1172 58.5296 30.2 58.5889 30.3192 58.6622C30.4385 58.7355 30.5788 58.8088 30.7402 58.8807C30.9015 58.9541 31.0825 59.0161 31.279 59.0654C31.4768 59.1162 31.6789 59.1416 31.8866 59.1416C32.4633 59.1416 32.7523 58.9583 32.7523 58.5903C32.7523 58.4747 32.7186 58.376 32.6541 58.2956C32.5881 58.2152 32.4941 58.1447 32.3734 58.0841C32.2514 58.0234 32.1054 57.9685 31.9329 57.9177C31.7603 57.8669 31.568 57.8119 31.3562 57.7513C31.098 57.6808 30.8735 57.6047 30.6841 57.5215C30.4946 57.4383 30.3361 57.3396 30.2098 57.2268C30.0835 57.114 29.9881 56.9829 29.9249 56.8334C29.8618 56.6853 29.8295 56.5077 29.8295 56.3004C29.8295 56.0283 29.88 55.7871 29.9811 55.5756C30.0821 55.3641 30.2224 55.1879 30.402 55.0469C30.5816 54.9059 30.7907 54.7987 31.0278 54.7254C31.2664 54.6521 31.5217 54.6154 31.7953 54.6154C32.1756 54.6154 32.525 54.6746 32.8435 54.7931C33.162 54.9115 33.4412 55.0511 33.6784 55.2119L33.2153 56.0579L33.2167 56.0593Z" fill="#B28556"/>
<path d="M38.8434 55.5686H37.1189V60.0172H36.0792V55.5686H34.3547V54.6549H38.842V55.5686H38.8434Z" fill="#B28556"/>
<path d="M43.4443 59.1035V60.0172H39.7007V54.6535H43.3756V55.5672H40.7489V56.8588H43.0192V57.7048H40.7489V59.1021H43.4443V59.1035Z" fill="#B28556"/>
<path d="M44.4546 60.0186V54.6549H46.4134C46.854 54.6549 47.2398 54.7254 47.571 54.8664C47.9021 55.0074 48.18 55.1992 48.4031 55.4403C48.6262 55.6814 48.7931 55.9648 48.904 56.2905C49.0148 56.6148 49.071 56.9617 49.071 57.3297C49.071 57.7372 49.0092 58.1066 48.8843 58.4366C48.7609 58.7665 48.5813 59.0485 48.3483 59.2826C48.1154 59.5167 47.8362 59.6985 47.5092 59.8269C47.1823 59.9552 46.8175 60.02 46.412 60.02H44.4532L44.4546 60.0186ZM48.0158 57.3283C48.0158 57.0717 47.9807 56.8348 47.9091 56.6176C47.8376 56.4005 47.7338 56.2144 47.5976 56.0593C47.4615 55.9028 47.2932 55.7829 47.0925 55.6969C46.8919 55.6109 46.666 55.5686 46.4134 55.5686H45.5027V59.1035H46.4134C46.6716 59.1035 46.9003 59.0584 47.1009 58.9668C47.3002 58.8765 47.4686 58.751 47.6019 58.5931C47.7366 58.4352 47.839 58.2476 47.9091 58.0305C47.9793 57.8148 48.0158 57.5807 48.0158 57.3283Z" fill="#B28556"/>
<path d="M52.1312 61V54.1642H52.997V61H52.1312Z" fill="#B28556"/>
<path d="M56.3618 60.0186V54.6549H58.7457C58.9941 54.6549 59.2228 54.7071 59.4333 54.81C59.6437 54.9129 59.8247 55.0497 59.9763 55.2175C60.1278 55.3867 60.2471 55.5771 60.3327 55.7914C60.4183 56.0057 60.4618 56.2214 60.4618 56.4372C60.4618 56.784 60.3748 57.1013 60.1994 57.3847C60.0254 57.6695 59.7883 57.874 59.4894 58.0009L60.7199 60.0172H59.5427L58.4412 58.2194H57.4085V60.0172H56.3604L56.3618 60.0186ZM57.4085 57.3057H58.7219C58.8173 57.3057 58.9085 57.2832 58.9913 57.2381C59.0755 57.1929 59.147 57.1309 59.2073 57.0533C59.2677 56.9758 59.3168 56.8827 59.3519 56.777C59.387 56.6712 59.4052 56.5584 59.4052 56.4372C59.4052 56.3159 59.3841 56.1961 59.3449 56.0903C59.3042 55.9845 59.2494 55.8929 59.1821 55.8139C59.1133 55.7364 59.0348 55.6758 58.9464 55.632C58.858 55.5897 58.7682 55.5672 58.677 55.5672H57.4085V57.3043V57.3057Z" fill="#B28556"/>
<path d="M65.3447 59.1035V60.0172H61.6011V54.6535H65.276V55.5672H62.6493V56.8588H64.9196V57.7048H62.6493V59.1021H65.3447V59.1035Z" fill="#B28556"/>
<path d="M69.9835 59.4137C69.5527 59.8424 69.0518 60.0553 68.4793 60.0553C68.1243 60.0553 67.7918 59.9848 67.4803 59.8438C67.1688 59.7028 66.898 59.5096 66.6679 59.2629C66.4377 59.0161 66.2553 58.7256 66.1206 58.39C65.9859 58.0559 65.92 57.6935 65.92 57.3057C65.92 56.9377 65.9873 56.5923 66.1206 56.2666C66.2539 55.9423 66.4391 55.6574 66.6749 55.4135C66.9106 55.1696 67.187 54.975 67.5069 54.8326C67.8255 54.6887 68.172 54.6168 68.5467 54.6168C69.0532 54.6168 69.4868 54.7226 69.8488 54.9341C70.2108 55.1456 70.483 55.4304 70.6654 55.7871L69.8839 56.361C69.7478 56.0945 69.5555 55.8901 69.31 55.7491C69.0644 55.6081 68.7978 55.5376 68.5088 55.5376C68.2815 55.5376 68.0724 55.5855 67.883 55.6814C67.6936 55.7773 67.5308 55.9084 67.3975 56.0748C67.2628 56.2412 67.159 56.4329 67.086 56.6487C67.013 56.8658 66.9766 57.0942 66.9766 57.3354C66.9766 57.5765 67.0173 57.8218 67.0986 58.0418C67.18 58.2603 67.2909 58.4507 67.4326 58.6128C67.5743 58.7736 67.7427 58.9005 67.9377 58.9935C68.1328 59.0866 68.3446 59.1331 68.5719 59.1331C69.0939 59.1331 69.564 58.8892 69.9849 58.3999V58.022H68.8989V57.2592H70.8507V60.0158H69.9849V59.4109L69.9835 59.4137Z" fill="#B28556"/>
<path d="M74.214 59.1345C74.4624 59.1345 74.6714 59.0838 74.8398 58.9837C75.0096 58.8836 75.1457 58.7524 75.2495 58.5903C75.3534 58.4295 75.4263 58.2434 75.4698 58.0347C75.5133 57.826 75.5344 57.6103 75.5344 57.3889V54.6549H76.5741V57.3889C76.5741 57.757 76.5292 58.101 76.4408 58.4239C76.3524 58.7468 76.2135 59.0288 76.0227 59.2699C75.8333 59.511 75.5891 59.7028 75.2902 59.8438C74.9914 59.9848 74.635 60.0553 74.2196 60.0553C73.8043 60.0553 73.424 59.9805 73.1224 59.8325C72.8207 59.6844 72.5765 59.487 72.3899 59.2431C72.2019 58.9992 72.0672 58.7158 71.983 58.3929C71.8988 58.07 71.8581 57.7358 71.8581 57.3889V54.6549H72.9063V57.3889C72.9063 57.6159 72.9273 57.8331 72.9708 58.0418C73.0143 58.2505 73.0873 58.4352 73.1911 58.5973C73.295 58.7581 73.4297 58.8878 73.598 58.9865C73.765 59.0852 73.9699 59.1331 74.2126 59.1331L74.214 59.1345Z" fill="#B28556"/>
<path d="M77.8201 60.0186V54.6549H78.8683V59.1035H81.617V60.0172H77.8201V60.0186Z" fill="#B28556"/>
<path d="M83.9786 54.6549H84.9046L86.9546 60.0186H85.877L85.3761 58.6819H83.4931L82.9992 60.0186H81.9215L83.98 54.6549H83.9786ZM85.1867 57.9487L84.443 55.8407L83.6685 57.9487H85.1867Z" fill="#B28556"/>
<path d="M91.2385 55.5686H89.5154V60.0172H88.4757V55.5686H86.7526V54.6549H91.2399V55.5686H91.2385Z" fill="#B28556"/>
<path d="M95.8394 59.1035V60.0172H92.0958V54.6535H95.7707V55.5672H93.144V56.8588H95.4143V57.7048H93.144V59.1021H95.8394V59.1035Z" fill="#B28556"/>
<path d="M96.8497 60.0186V54.6549H98.8085C99.2491 54.6549 99.635 54.7254 99.9661 54.8664C100.297 55.0074 100.575 55.1992 100.798 55.4403C101.021 55.6814 101.188 55.9648 101.299 56.2905C101.41 56.6148 101.466 56.9617 101.466 57.3297C101.466 57.7372 101.404 58.1066 101.279 58.4366C101.156 58.7665 100.976 59.0485 100.743 59.2826C100.511 59.5167 100.231 59.6985 99.9044 59.8269C99.5774 59.9552 99.2126 60.02 98.8071 60.02H96.8483L96.8497 60.0186ZM100.411 57.3283C100.411 57.0717 100.376 56.8348 100.304 56.6176C100.233 56.4005 100.129 56.2144 99.9928 56.0593C99.8567 55.9028 99.6883 55.7829 99.4876 55.6969C99.287 55.6109 99.0611 55.5686 98.8085 55.5686H97.8979V59.1035H98.8085C99.0667 59.1035 99.2954 59.0584 99.496 58.9668C99.6953 58.8765 99.8637 58.751 99.997 58.5931C100.132 58.4352 100.234 58.2476 100.304 58.0305C100.374 57.8148 100.411 57.5807 100.411 57.3283Z" fill="#B28556"/>
<path d="M104.526 61V54.1642H105.392V61H104.526Z" fill="#B28556"/>
<path d="M112.499 59.4137C112.068 59.8424 111.567 60.0553 110.995 60.0553C110.64 60.0553 110.307 59.9848 109.996 59.8438C109.684 59.7028 109.414 59.5096 109.183 59.2629C108.953 59.0161 108.771 58.7256 108.636 58.39C108.501 58.0559 108.436 57.6935 108.436 57.3057C108.436 56.9377 108.503 56.5923 108.636 56.2666C108.769 55.9423 108.955 55.6574 109.19 55.4135C109.426 55.1696 109.703 54.975 110.023 54.8326C110.341 54.6887 110.688 54.6168 111.062 54.6168C111.569 54.6168 112.002 54.7226 112.364 54.9341C112.726 55.1456 112.999 55.4304 113.181 55.7871L112.399 56.361C112.263 56.0945 112.071 55.8901 111.826 55.7491C111.58 55.6081 111.313 55.5376 111.024 55.5376C110.797 55.5376 110.588 55.5855 110.399 55.6814C110.209 55.7773 110.046 55.9084 109.913 56.0748C109.778 56.2412 109.675 56.4329 109.602 56.6487C109.529 56.8658 109.492 57.0942 109.492 57.3354C109.492 57.5765 109.533 57.8218 109.614 58.0418C109.696 58.2603 109.806 58.4507 109.948 58.6128C110.09 58.7736 110.258 58.9005 110.453 58.9935C110.648 59.0866 110.86 59.1331 111.088 59.1331C111.609 59.1331 112.08 58.8892 112.5 58.3999V58.022H111.414V57.2592H113.366V60.0158H112.5V59.4109L112.499 59.4137Z" fill="#B28556"/>
<path d="M114.451 60.0186V54.6549H115.499V59.1035H118.248V60.0172H114.451V60.0186Z" fill="#B28556"/>
<path d="M121.034 60.0553C120.64 60.0553 120.281 59.9791 119.96 59.8255C119.638 59.6718 119.362 59.4673 119.132 59.2135C118.902 58.9597 118.723 58.6678 118.596 58.3407C118.469 58.0136 118.406 57.678 118.406 57.3368C118.406 56.9955 118.474 56.6374 118.607 56.3089C118.742 55.9817 118.925 55.6927 119.161 55.4403C119.397 55.1893 119.676 54.9891 120 54.8396C120.324 54.6916 120.677 54.6168 121.055 54.6168C121.434 54.6168 121.801 54.6958 122.122 54.8551C122.443 55.013 122.718 55.2217 122.946 55.4784C123.173 55.735 123.351 56.0269 123.477 56.354C123.604 56.6811 123.667 57.0139 123.667 57.3509C123.667 57.709 123.601 58.0502 123.469 58.3745C123.337 58.6988 123.155 58.9865 122.922 59.2361C122.689 59.4856 122.411 59.6844 122.087 59.8325C121.763 59.9806 121.41 60.0553 121.032 60.0553H121.034ZM119.47 57.3368C119.47 57.568 119.505 57.7922 119.577 58.0093C119.647 58.2265 119.749 58.4168 119.884 58.5832C120.019 58.7496 120.183 58.8822 120.378 58.9837C120.573 59.0838 120.794 59.1345 121.043 59.1345C121.291 59.1345 121.52 59.0824 121.715 58.9794C121.91 58.8765 122.074 58.7397 122.209 58.5677C122.344 58.3971 122.445 58.2039 122.513 57.9896C122.582 57.7753 122.616 57.5581 122.616 57.3368C122.616 57.1154 122.579 56.8813 122.506 56.6642C122.433 56.447 122.33 56.2567 122.195 56.0903C122.06 55.9239 121.896 55.7914 121.701 55.6941C121.506 55.5954 121.287 55.5474 121.044 55.5474C120.801 55.5474 120.566 55.5996 120.368 55.7025C120.17 55.8055 120.006 55.9423 119.874 56.11C119.742 56.2792 119.642 56.4696 119.574 56.6839C119.505 56.8982 119.471 57.1154 119.471 57.3368H119.47Z" fill="#B28556"/>
<path d="M129.007 58.6354C129.007 58.8624 128.962 59.0612 128.871 59.2318C128.78 59.4024 128.655 59.5463 128.495 59.6619C128.335 59.7775 128.151 59.8663 127.941 59.927C127.73 59.9876 127.507 60.0172 127.269 60.0172H124.664V54.6535H127.551C127.737 54.6535 127.907 54.6944 128.06 54.7747C128.212 54.8551 128.341 54.9595 128.447 55.0878C128.554 55.2161 128.635 55.3627 128.694 55.5263C128.753 55.6899 128.781 55.8548 128.781 56.0212C128.781 56.2835 128.715 56.5288 128.583 56.7572C128.451 56.9871 128.259 57.1563 128.007 57.2677C128.315 57.3579 128.56 57.5201 128.739 57.7555C128.919 57.9896 129.009 58.2829 129.009 58.6354H129.007ZM125.713 55.546V56.8982H127.11C127.287 56.8982 127.438 56.8376 127.562 56.7164C127.685 56.5951 127.749 56.4287 127.749 56.2172C127.749 56.0057 127.691 55.8464 127.577 55.7265C127.464 55.6053 127.323 55.5446 127.156 55.5446H125.714L125.713 55.546ZM127.952 58.4394C127.952 58.3435 127.935 58.2519 127.903 58.163C127.871 58.0756 127.826 57.9981 127.77 57.9332C127.713 57.8683 127.647 57.8162 127.572 57.7781C127.496 57.74 127.412 57.7217 127.321 57.7217H125.711V59.1345H127.267C127.363 59.1345 127.454 59.1176 127.537 59.081C127.621 59.0457 127.692 58.9964 127.753 58.9343C127.813 58.8709 127.862 58.7975 127.897 58.7115C127.932 58.6255 127.951 58.5353 127.951 58.4394H127.952Z" fill="#B28556"/>
<path d="M131.437 54.6549H132.363L134.413 60.0186H133.334L132.834 58.6819H130.951L130.457 60.0186H129.379L131.437 54.6549ZM132.646 57.9487L131.902 55.8407L131.127 57.9487H132.646Z" fill="#B28556"/>
<path d="M135.196 60.0186V54.6549H136.245V59.1035H138.993V60.0172H135.196V60.0186Z" fill="#B28556"/>
<defs>
<filter id="filter0_d_4035_17936" x="0.844194" y="0.199999" width="178.022" height="86.8482" filterUnits="userSpaceOnUse" color-interpolation-filters="sRGB">
<feFlood flood-opacity="0" result="BackgroundImageFix"/>
<feColorMatrix in="SourceAlpha" type="matrix" values="0 0 0 0 0 0 0 0 0 0 0 0 0 0 0 0 0 0 127 0" result="hardAlpha"/>
<feOffset dx="12.8" dy="12.8"/>
<feGaussianBlur stdDeviation="12.8"/>
<feColorMatrix type="matrix" values="0 0 0 0 0 0 0 0 0 0 0 0 0 0 0 0 0 0 0.3 0"/>
<feBlend mode="normal" in2="BackgroundImageFix" result="effect1_dropShadow_4035_17936"/>
<feBlend mode="normal" in="SourceGraphic" in2="effect1_dropShadow_4035_17936" result="shape"/>
</filter>
</defs>
</svg>
