<svg width="86" height="28" viewBox="0 0 86 28" fill="none" xmlns="http://www.w3.org/2000/svg">
<g filter="url(#filter0_d_2324_137467)">
<mask id="mask0_2324_137467" style="mask-type:luminance" maskUnits="userSpaceOnUse" x="28" y="1" width="54" height="24">
<path d="M81.9974 2.22557C81.9788 2.30966 81.9522 2.39286 81.9434 2.47871C81.8708 3.20981 81.8009 3.9418 81.7301 4.6729C81.7283 4.68795 81.7168 4.70123 81.6982 4.74106C81.2309 4.77735 80.7485 4.75168 80.2679 4.7561C79.7749 4.76053 79.2819 4.75699 78.7889 4.75699H68.5012C68.0046 10.2438 67.5134 15.7103 67.0195 21.2077C67.1231 21.2157 67.208 21.2263 67.2921 21.2272C67.8905 21.2289 68.4879 21.2272 69.0863 21.2272H80.0254C79.9236 22.2265 79.8262 23.1868 79.7271 24.1604H62.2142C62.7772 17.6991 63.3383 11.2564 63.9021 4.78531C63.8198 4.77469 63.7526 4.75788 63.6853 4.75699C62.093 4.75522 60.5007 4.75611 58.9083 4.75699C58.8526 4.75699 58.7968 4.76673 58.7065 4.77558C58.0374 11.2307 57.378 17.6867 56.7115 24.1339C56.5168 24.1852 51.7814 24.1958 51.4858 24.1445C51.5646 23.0717 51.7 22.0016 51.8027 20.928C51.9053 19.8508 52.0231 18.7745 52.1346 17.6982C52.2461 16.6219 52.3576 15.5456 52.4692 14.4684C52.5798 13.4001 52.6913 12.3318 52.8011 11.2635C52.9117 10.1872 53.0215 9.10997 53.1312 8.03368C53.241 6.95826 53.3498 5.88285 53.456 4.83665C53.4295 4.79859 53.426 4.79151 53.4206 4.7862C53.4144 4.78089 53.4074 4.77469 53.4003 4.77381C53.3366 4.76673 53.2728 4.7561 53.2091 4.7561C47.4302 4.75699 41.6513 4.75876 35.8724 4.76141C35.8494 4.76141 35.8273 4.77558 35.775 4.79328C35.244 10.2465 34.712 15.7094 34.1774 21.2024C34.2925 21.2112 34.3925 21.2245 34.4925 21.2245C36.6425 21.2254 38.7924 21.2254 40.9423 21.2254H41.2619C41.5655 18.332 41.8664 15.4607 42.1656 12.6071C42.139 12.5814 42.1328 12.5752 42.1266 12.5699C42.1204 12.5655 42.1142 12.5593 42.1071 12.5575C42.0912 12.5531 42.0753 12.5504 42.0593 12.5495C42.0354 12.5478 42.0107 12.5477 41.9868 12.5477C40.1926 12.546 38.3985 12.5433 36.6044 12.5416C36.5973 12.5416 36.5893 12.5362 36.5823 12.5345C36.5433 12.3495 36.7451 10.3536 36.8451 9.92605C37.0363 9.87825 47.3151 9.87294 47.5727 9.92605C47.1567 14.6649 46.7398 19.4074 46.3229 24.1613H28.6517C29.3403 16.7166 30.028 9.28788 30.7157 1.84586C30.791 1.83435 30.852 1.82019 30.914 1.81665C30.9866 1.81222 31.0592 1.81488 31.1317 1.81488C47.9595 1.81488 64.7873 1.81488 81.615 1.81488C81.7434 1.81488 81.8717 1.82815 82 1.83435V2.22203L81.9974 2.22557Z" fill="white"/>
</mask>
<g mask="url(#mask0_2324_137467)">
<path d="M82.0001 1.81409H22.891V24.1781H82.0001V1.81409Z" fill="url(#paint0_linear_2324_137467)"/>
</g>
<mask id="mask1_2324_137467" style="mask-type:luminance" maskUnits="userSpaceOnUse" x="2" y="1" width="27" height="24">
<path d="M28.7764 1.84049C25.4404 5.65532 22.1434 9.4259 18.8322 13.2133C21.2308 16.8547 23.626 20.4889 26.0361 24.1462C25.9582 24.1595 25.9069 24.1763 25.8547 24.1763C23.8419 24.1772 21.8292 24.1754 19.8164 24.1816C19.658 24.1816 19.5881 24.1046 19.5111 23.9931C18.2905 22.2237 17.0611 20.4606 15.8529 18.6824C15.6635 18.4036 15.4723 18.2549 15.1315 18.308C14.9678 18.3337 14.797 18.3124 14.6049 18.3124C14.3987 20.2712 14.1942 22.2043 13.9906 24.132C13.8012 24.1887 2.55674 24.2126 2 24.1577C2.06019 24.086 2.10444 24.0258 2.15578 23.9718C3.34803 22.7415 4.54116 21.5121 5.73429 20.2818C6.58931 19.4002 7.44344 18.5169 8.302 17.638C8.40999 17.5273 8.46398 17.4096 8.47902 17.2556C8.60028 16.058 8.72951 14.8623 8.85431 13.6647C8.95875 12.669 9.06054 11.6723 9.16321 10.6757C9.19862 10.3305 9.21986 9.98264 9.27563 9.6401C9.31014 9.43121 9.26235 9.27101 9.14728 9.10018C8.02585 7.41935 6.91149 5.73498 5.79536 4.0515C5.36697 3.40537 4.9368 2.75923 4.50841 2.11222C4.45619 2.03344 4.40839 1.95113 4.34112 1.84137C4.43849 1.83075 4.50575 1.81571 4.57391 1.81571C6.6672 1.81482 8.76049 1.8157 10.8538 1.81128C11.0158 1.81128 11.1016 1.87147 11.1768 2.006C11.3707 2.3512 11.5867 2.684 11.7743 3.03185C11.8708 3.21153 11.9876 3.27526 12.193 3.27437C14.0119 3.2664 15.8299 3.26994 17.6488 3.26994C18.6676 3.26994 19.6854 3.26552 20.7042 3.27437C20.8883 3.27614 20.9998 3.21772 21.1016 3.06725C21.3521 2.70082 21.6247 2.34854 21.8796 1.98476C21.9611 1.86793 22.0505 1.81216 22.1974 1.81305C24.3066 1.81659 26.4167 1.8157 28.5259 1.81659C28.5879 1.81659 28.6507 1.82721 28.7747 1.8396L28.7764 1.84049ZM14.5792 8.67887H14.8996C17.0575 8.67887 19.2146 8.67887 21.3725 8.68064C21.5061 8.68064 21.6176 8.66647 21.7203 8.55938C22.9922 7.2264 24.2685 5.89784 25.5431 4.56752C25.5785 4.53035 25.6024 4.48255 25.6458 4.41882H10.5767C9.90848 10.781 9.2411 17.129 8.57196 23.4974H12.9984C13.2002 21.5838 13.402 19.6773 13.6047 17.7566H17.0292C17.6028 17.7566 18.1763 17.7566 18.7508 17.7566C19.3119 17.7566 19.8722 17.7575 20.4732 17.7557C20.4095 17.6424 20.374 17.5725 20.3324 17.507C19.5447 16.2563 18.7534 15.0074 17.9701 13.7541C17.8771 13.6054 17.7736 13.5532 17.6001 13.5541C16.5176 13.5611 15.4342 13.5576 14.3517 13.5576H14.0676C14.2393 11.9184 14.4084 10.3154 14.5801 8.67975L14.5792 8.67887Z" fill="white"/>
</mask>
<g mask="url(#mask1_2324_137467)">
<path d="M82.0001 1.81128H1.93013V27.2078H82.0001V1.81128Z" fill="url(#paint1_linear_2324_137467)"/>
</g>
</g>
<defs>
<filter id="filter0_d_2324_137467" x="0.937865" y="0.749144" width="84.2486" height="26.626" filterUnits="userSpaceOnUse" color-interpolation-filters="sRGB">
<feFlood flood-opacity="0" result="BackgroundImageFix"/>
<feColorMatrix in="SourceAlpha" type="matrix" values="0 0 0 0 0 0 0 0 0 0 0 0 0 0 0 0 0 0 127 0" result="hardAlpha"/>
<feOffset dx="1.06213" dy="1.06213"/>
<feGaussianBlur stdDeviation="1.06213"/>
<feColorMatrix type="matrix" values="0 0 0 0 0 0 0 0 0 0 0 0 0 0 0 0 0 0 0.3 0"/>
<feBlend mode="normal" in2="BackgroundImageFix" result="effect1_dropShadow_2324_137467"/>
<feBlend mode="normal" in="SourceGraphic" in2="effect1_dropShadow_2324_137467" result="shape"/>
</filter>
<linearGradient id="paint0_linear_2324_137467" x1="82.0001" y1="12.9961" x2="22.891" y2="12.9961" gradientUnits="userSpaceOnUse">
<stop stop-color="#01133C"/>
<stop offset="0.17" stop-color="#01133C"/>
<stop offset="0.21" stop-color="#021442"/>
<stop offset="0.42" stop-color="#0C1D62"/>
<stop offset="0.63" stop-color="#122378"/>
<stop offset="0.83" stop-color="#162686"/>
<stop offset="1" stop-color="#01143C"/>
</linearGradient>
<linearGradient id="paint1_linear_2324_137467" x1="82.0001" y1="59.3031" x2="1.93013" y2="59.3031" gradientUnits="userSpaceOnUse">
<stop stop-color="#01133C"/>
<stop offset="0.17" stop-color="#01133C"/>
<stop offset="0.21" stop-color="#021442"/>
<stop offset="0.42" stop-color="#0C1D62"/>
<stop offset="0.63" stop-color="#122378"/>
<stop offset="0.83" stop-color="#162686"/>
<stop offset="1" stop-color="#01143C"/>
</linearGradient>
</defs>
</svg>
