<svg width="30" height="29" viewBox="0 0 30 29" fill="none" xmlns="http://www.w3.org/2000/svg">
<path d="M12.1785 6.03233C13.2487 3.36424 13.7838 2.03019 14.6532 1.8453C14.8818 1.79668 15.1181 1.79668 15.3467 1.8453C16.2161 2.03019 16.7512 3.36424 17.8214 6.03233C18.43 7.54962 18.7344 8.30826 19.3038 8.82426C19.4635 8.96899 19.6369 9.09789 19.8215 9.20916C20.4796 9.60582 21.3012 9.6794 22.9443 9.82656C25.7259 10.0757 27.1166 10.2002 27.5414 10.9932C27.6293 11.1574 27.6891 11.3353 27.7183 11.5193C27.8591 12.4077 26.8367 13.3379 24.7918 15.1983L24.2239 15.715C23.2679 16.5847 22.7899 17.0196 22.5135 17.5623C22.3476 17.8879 22.2364 18.2385 22.1843 18.6002C22.0974 19.203 22.2374 19.8339 22.5173 21.0957L22.6174 21.5465C23.1194 23.8093 23.3704 24.9407 23.0571 25.4968C22.7756 25.9964 22.2572 26.3162 21.6844 26.3435C21.0468 26.374 20.1484 25.6419 18.3516 24.1777C17.1678 23.2131 16.5759 22.7308 15.9188 22.5424C15.3183 22.3702 14.6816 22.3702 14.0811 22.5424C13.424 22.7308 12.8321 23.2131 11.6483 24.1777C9.85148 25.6419 8.95307 26.374 8.31547 26.3435C7.74274 26.3162 7.22428 25.9964 6.94281 25.4968C6.62945 24.9407 6.88048 23.8093 7.38252 21.5465L7.48255 21.0957C7.7625 19.8339 7.90247 19.203 7.81561 18.6002C7.7635 18.2385 7.6523 17.8879 7.48644 17.5623C7.20996 17.0196 6.73196 16.5847 5.77595 15.715L5.2081 15.1983C3.16324 13.3379 2.14081 12.4077 2.28161 11.5193C2.31077 11.3353 2.37058 11.1574 2.45854 10.9932C2.88325 10.2002 4.27403 10.0757 7.05559 9.82656C8.69874 9.6794 9.52031 9.60582 10.1784 9.20916C10.363 9.09789 10.5364 8.96899 10.6961 8.82426C11.2655 8.30826 11.5699 7.54962 12.1785 6.03233Z" fill="#4D4D70" stroke="#4D4D70" strokeWidth="3.33368"/>
</svg>
